<svg xmlns="http://www.w3.org/2000/svg" xmlns:xlink="http://www.w3.org/1999/xlink" width="500" zoomAndPan="magnify" viewBox="0 0 375 374.999991" height="500" preserveAspectRatio="xMidYMid meet" version="1.0"><defs><g/></defs><path stroke-linecap="butt" transform="matrix(2.005484, 0, 0, 2.005484, 36.750002, -81.234823)" fill="none" stroke-linejoin="miter" d="M 90.891419 166.218317 C 91.421217 167.624617 91.296558 169.062082 90.515497 170.530712 C 89.7656 171.999342 88.686527 173.062832 87.282174 173.719235 L 86.109608 174.09321 C 84.703307 174.593791 82.905502 175.172283 80.71814 175.828686 C 78.561943 176.453925 76.719338 176.96814 75.18838 177.375227 L 72.469272 177.938137 C 70.938314 178.312111 69.109344 178.859439 66.984311 179.578171 C 64.890443 180.265739 63.141332 180.937725 61.735032 181.594128 L 59.625581 182.531013 C 58.21928 183.187416 56.45264 183.906149 54.327607 184.68721 C 52.233738 185.437107 50.406716 186.000017 48.844593 186.37594 L 46.735142 187.172584 C 45.328842 187.546558 43.531037 188.062721 41.343675 188.719124 C 39.187477 189.344363 37.342925 189.905325 35.811966 190.405906 L 32.718885 191.391485 C 31.187926 191.890118 30.030942 191.76546 29.24988 191.015563 C 28.499983 190.234501 28.375325 189.077517 28.875906 187.546558 L 29.859537 184.827451 C 30.360117 183.296492 30.921079 181.453888 31.546318 179.29769 C 32.202722 177.110328 32.859125 175.312523 33.515528 173.906223 L 34.452413 171.046875 C 34.984158 169.484752 35.56265 167.655782 36.187889 165.561913 C 36.844292 163.43688 37.422784 161.609859 37.921417 160.0789 L 38.860249 157.219552 C 39.390047 155.655481 39.999703 153.828459 40.687271 151.734591 C 41.406004 149.609558 42.077989 147.780588 42.703228 146.249629 L 43.875795 143.766204 C 44.499086 142.235245 45.124325 140.421858 45.749563 138.327989 C 46.405967 136.202956 46.937712 134.358404 47.342851 132.796281 L 48.281683 129.375971 C 48.655658 127.843065 49.125074 125.984878 49.687984 123.797516 C 50.282058 121.610154 50.84302 119.812349 51.374765 118.406049 L 52.500585 114.937044 C 53.030382 113.530744 53.671203 111.750469 54.4211 109.594271 C 55.202162 107.406909 55.905312 105.609104 56.530551 104.202803 L 57.703117 101.156468 C 58.328356 99.750168 59.015924 97.983527 59.765821 95.858494 C 60.546883 93.733461 61.203286 91.906439 61.735032 90.37548 L 62.671916 87.327198 C 63.203661 85.796239 63.749041 83.969217 64.311951 81.844184 C 64.906025 79.719151 65.453352 77.95251 65.953933 76.54621 C 66.452566 75.139909 67.015476 73.390799 67.640714 71.29693 C 68.297118 69.171897 68.828863 67.342928 69.234002 65.811969 C 69.734583 64.28101 70.390986 63.484366 71.203212 63.422037 C 72.046603 63.359708 72.7965 64.031694 73.452904 65.437994 L 74.015813 66.561866 C 74.641052 67.968167 75.406532 69.734807 76.312251 71.85984 C 77.217971 73.984873 77.983451 75.749566 78.608689 77.155866 L 79.594268 79.64124 C 80.219507 81.04754 81.016151 82.749904 81.9842 84.750279 C 82.952249 86.719489 83.875499 88.40627 84.750054 89.812571 L 85.922621 91.735034 C 86.703682 93.141335 87.59382 94.843698 88.593033 96.844073 C 89.625359 98.813283 90.46875 100.500065 91.125153 101.906365 L 92.250973 104.389791 C 92.905428 105.796091 93.70402 107.562732 94.640904 109.687765 C 95.608953 111.781633 96.42118 113.530744 97.077583 114.937044 L 98.016415 117.469164 C 98.639706 118.875465 99.469462 120.608993 100.499841 122.671697 C 101.532166 124.703236 102.359975 126.421182 102.985214 127.827483 L 103.968845 129.936933 C 104.594084 131.343234 105.359563 133.109874 106.265283 135.234907 C 107.171003 137.328776 107.93843 139.077886 108.561721 140.484187 L 109.734287 143.203294 C 110.359526 144.609595 111.15617 146.343123 112.124219 148.405827 C 113.094216 150.437366 113.89086 152.155312 114.516098 153.561613 L 115.49973 156.046986 C 116.124969 157.453286 116.921612 159.217979 117.889661 161.343012 C 118.859658 163.43688 119.656302 165.187939 120.281541 166.594239 L 121.452159 169.124411 C 122.077398 170.530712 122.874042 172.297353 123.844039 174.422386 C 124.812088 176.516254 125.671061 178.265365 126.420958 179.671665 L 127.593524 182.157038 C 128.218763 183.563339 129.046571 185.296867 130.078897 187.359571 C 131.109275 189.39111 131.937084 191.109056 132.562323 192.515357 L 133.545954 194.624807 C 134.171193 196.031108 134.186775 197.484155 133.594648 198.983949 C 133.031739 200.452579 132.04616 201.500487 130.639859 202.125726 L 125.297086 204.609151 C 123.890786 205.265555 122.406574 205.343466 120.844451 204.842885 C 119.311544 204.313088 118.17209 203.343091 117.422193 201.936791 L 117.422193 201.749803 C 116.641131 200.343503 115.733464 198.625557 114.703086 196.594018 C 113.703872 194.531314 112.874116 192.797785 112.21966 191.391485 L 111.467816 189.656009 C 110.686754 188.249708 109.874528 186.531762 109.031137 184.500223 C 108.218911 182.437519 107.484596 180.639714 106.828193 179.108755 L 106.078296 177.18824 C 105.453057 175.781939 104.687577 174.015299 103.781858 171.890266 C 102.87419 169.765233 102.108711 168.00054 101.483472 166.594239 L 100.312853 164.484789 C 99.687614 163.078488 98.89097 161.358594 97.920974 159.329003 C 96.952925 157.266299 96.156281 155.530823 95.531042 154.124522 L 94.547411 151.828084 C 93.922172 150.421784 93.125528 148.703838 92.155531 146.672299 C 91.187482 144.609595 90.328509 142.874119 89.578612 141.467818 L 88.219059 139.17138 C 87.469162 137.76508 86.545912 136.031551 85.453205 133.968847 C 84.35855 131.906144 83.483994 130.172615 82.827591 128.766315 L 81.890707 126.656864 C 81.234303 125.250564 80.453241 123.53067 79.547522 121.49913 C 78.671019 119.438374 77.921122 117.702898 77.29783 116.296598 L 76.125264 113.813172 C 75.500025 112.406872 74.82804 111.703722 74.109307 111.703722 C 73.421739 111.703722 72.812083 112.469201 72.280337 114.00016 L 71.53044 117.093242 C 71.000643 118.6242 70.406569 120.484335 69.750165 122.671697 C 69.124926 124.827894 68.562017 126.610117 68.063384 128.016418 L 67.124552 131.1095 C 66.468148 132.640458 65.811745 134.500593 65.155341 136.687955 C 64.53205 138.844152 63.969141 140.624427 63.46856 142.030728 L 62.484929 145.312745 C 61.984348 146.843704 61.405856 148.672673 60.749453 150.797706 C 60.124214 152.891575 59.48534 154.703014 58.828937 156.233973 L 57.703117 159.140068 C 57.171372 160.671026 57.264866 161.82801 57.983598 162.609072 C 58.702331 163.358969 59.82815 163.468045 61.359109 162.938248 L 65.764998 161.812428 C 67.295957 161.311847 69.140509 160.750886 71.296706 160.125647 C 73.484068 159.469243 75.281873 158.875169 76.688174 158.343424 L 82.077694 156.609895 C 83.608653 155.984657 85.046118 156.062568 86.390089 156.84363 C 87.73406 157.593527 88.670945 158.734928 89.20269 160.265887 Z M 90.891419 166.218317 " stroke="#005180" stroke-width="14.4" stroke-opacity="1" stroke-miterlimit="4"/><g fill="#38b6ff" fill-opacity="1"><g transform="translate(88.923911, 339.916728)"><g><path d="M 130.148438 -87.792969 C 131.175781 -84.96875 130.917969 -82.082031 129.378906 -79.128906 C 127.835938 -76.175781 125.65625 -74.058594 122.832031 -72.773438 L 120.523438 -72.003906 C 117.699219 -70.976562 114.105469 -69.824219 109.738281 -68.539062 C 105.375 -67.257812 101.652344 -66.230469 98.574219 -65.460938 L 93.183594 -64.304688 C 90.101562 -63.535156 86.445312 -62.441406 82.207031 -61.03125 C 77.972656 -59.617188 74.445312 -58.269531 71.621094 -56.988281 L 67.382812 -55.0625 C 64.558594 -53.777344 61.03125 -52.367188 56.796875 -50.828125 C 52.558594 -49.285156 48.902344 -48.132812 45.820312 -47.363281 L 41.585938 -45.820312 C 38.761719 -45.050781 35.167969 -44.023438 30.804688 -42.742188 C 26.441406 -41.457031 22.71875 -40.300781 19.636719 -39.277344 L 13.476562 -37.351562 C 10.394531 -36.324219 8.085938 -36.578125 6.546875 -38.121094 C 5.003906 -39.660156 4.75 -41.972656 5.777344 -45.050781 L 7.699219 -50.441406 C 8.726562 -53.523438 9.882812 -57.246094 11.167969 -61.609375 C 12.449219 -65.972656 13.734375 -69.566406 15.015625 -72.390625 L 16.941406 -78.164062 C 17.96875 -81.246094 19.125 -84.902344 20.40625 -89.140625 C 21.691406 -93.375 22.847656 -97.035156 23.875 -100.113281 L 25.796875 -105.890625 C 26.824219 -108.96875 28.042969 -112.628906 29.457031 -116.863281 C 30.867188 -121.097656 32.214844 -124.757812 33.5 -127.835938 L 35.808594 -132.84375 C 37.09375 -135.921875 38.375 -139.582031 39.660156 -143.816406 C 40.945312 -148.054688 41.972656 -151.710938 42.742188 -154.792969 L 44.667969 -161.722656 C 45.4375 -164.800781 46.398438 -168.523438 47.554688 -172.890625 C 48.710938 -177.253906 49.800781 -180.847656 50.828125 -183.671875 L 53.136719 -190.601562 C 54.164062 -193.425781 55.449219 -197.019531 56.988281 -201.382812 C 58.527344 -205.746094 59.941406 -209.339844 61.222656 -212.164062 L 63.535156 -218.324219 C 64.816406 -221.148438 66.230469 -224.679688 67.769531 -228.914062 C 69.308594 -233.148438 70.59375 -236.808594 71.621094 -239.886719 L 73.546875 -246.046875 C 74.570312 -249.128906 75.664062 -252.789062 76.816406 -257.023438 C 77.972656 -261.257812 79.0625 -264.789062 80.089844 -267.613281 C 81.117188 -270.433594 82.273438 -273.964844 83.554688 -278.199219 C 84.839844 -282.4375 85.867188 -286.09375 86.636719 -289.175781 C 87.664062 -292.253906 89.011719 -293.859375 90.679688 -293.988281 C 92.347656 -294.117188 93.824219 -292.769531 95.109375 -289.945312 L 96.261719 -287.632812 C 97.546875 -284.8125 99.085938 -281.28125 100.882812 -277.046875 C 102.679688 -272.808594 104.222656 -269.28125 105.503906 -266.457031 L 107.429688 -261.449219 C 108.714844 -258.628906 110.316406 -255.226562 112.242188 -251.246094 C 114.167969 -247.269531 116.027344 -243.867188 117.828125 -241.042969 L 120.136719 -237.191406 C 121.675781 -234.367188 123.472656 -230.96875 125.527344 -226.988281 C 127.582031 -223.011719 129.25 -219.609375 130.53125 -216.785156 L 132.84375 -211.777344 C 134.125 -208.957031 135.730469 -205.425781 137.65625 -201.191406 C 139.582031 -196.953125 141.1875 -193.425781 142.46875 -190.601562 L 144.394531 -185.59375 C 145.679688 -182.773438 147.347656 -179.304688 149.402344 -175.199219 C 151.453125 -171.09375 153.121094 -167.625 154.40625 -164.800781 L 156.332031 -160.566406 C 157.613281 -157.742188 159.15625 -154.214844 160.953125 -149.976562 C 162.75 -145.742188 164.289062 -142.210938 165.574219 -139.390625 L 167.882812 -134 C 169.167969 -131.175781 170.769531 -127.710938 172.695312 -123.601562 C 174.621094 -119.496094 176.226562 -116.027344 177.507812 -113.207031 L 179.433594 -108.199219 C 180.71875 -105.375 182.324219 -101.847656 184.246094 -97.609375 C 186.171875 -93.375 187.777344 -89.84375 189.0625 -87.023438 L 191.371094 -82.015625 C 192.65625 -79.191406 194.257812 -75.664062 196.183594 -71.425781 C 198.109375 -67.191406 199.84375 -63.660156 201.382812 -60.839844 L 203.691406 -55.832031 C 204.976562 -53.007812 206.644531 -49.542969 208.699219 -45.4375 C 210.753906 -41.328125 212.421875 -37.863281 213.703125 -35.039062 L 215.628906 -30.804688 C 216.914062 -27.980469 216.976562 -25.09375 215.820312 -22.140625 C 214.667969 -19.1875 212.675781 -17.070312 209.855469 -15.789062 L 199.074219 -10.78125 C 196.25 -9.496094 193.296875 -9.371094 190.214844 -10.394531 C 187.136719 -11.421875 184.824219 -13.347656 183.285156 -16.171875 L 183.285156 -16.558594 C 181.746094 -19.382812 179.949219 -22.847656 177.894531 -26.953125 C 175.839844 -31.0625 174.171875 -34.527344 172.890625 -37.351562 L 171.347656 -40.816406 C 169.808594 -43.640625 168.203125 -47.105469 166.535156 -51.210938 C 164.867188 -55.320312 163.390625 -58.914062 162.105469 -61.992188 L 160.566406 -65.84375 C 159.285156 -68.667969 157.742188 -72.199219 155.945312 -76.433594 C 154.148438 -80.667969 152.609375 -84.199219 151.324219 -87.023438 L 149.015625 -91.257812 C 147.730469 -94.082031 146.128906 -97.546875 144.203125 -101.652344 C 142.277344 -105.761719 140.671875 -109.226562 139.390625 -112.050781 L 137.464844 -116.671875 C 136.179688 -119.496094 134.574219 -122.960938 132.652344 -127.066406 C 130.726562 -131.175781 128.992188 -134.640625 127.453125 -137.464844 L 124.757812 -142.085938 C 123.21875 -144.910156 121.355469 -148.375 119.175781 -152.480469 C 116.992188 -156.589844 115.257812 -160.054688 113.976562 -162.878906 L 112.050781 -167.113281 C 110.765625 -169.9375 109.226562 -173.402344 107.429688 -177.507812 C 105.632812 -181.617188 104.09375 -185.082031 102.808594 -187.90625 L 100.5 -192.910156 C 99.214844 -195.734375 97.867188 -197.148438 96.457031 -197.148438 C 95.042969 -197.148438 93.824219 -195.605469 92.796875 -192.527344 L 91.257812 -186.367188 C 90.230469 -183.285156 89.074219 -179.5625 87.792969 -175.199219 C 86.507812 -170.835938 85.351562 -167.242188 84.328125 -164.417969 L 82.402344 -158.257812 C 81.117188 -155.175781 79.835938 -151.453125 78.550781 -147.089844 C 77.265625 -142.726562 76.113281 -139.132812 75.085938 -136.308594 L 73.160156 -129.761719 C 72.132812 -126.683594 70.976562 -123.023438 69.695312 -118.789062 C 68.410156 -114.554688 67.128906 -110.894531 65.84375 -107.816406 L 63.535156 -102.039062 C 62.507812 -98.957031 62.699219 -96.648438 64.109375 -95.109375 C 65.523438 -93.566406 67.769531 -93.3125 70.851562 -94.339844 L 79.707031 -96.648438 C 82.785156 -97.675781 86.507812 -98.832031 90.871094 -100.113281 C 95.238281 -101.398438 98.832031 -102.550781 101.652344 -103.578125 L 112.433594 -107.042969 C 115.515625 -108.328125 118.402344 -108.199219 121.097656 -106.660156 C 123.792969 -105.121094 125.65625 -102.808594 126.683594 -99.730469 Z M 130.148438 -87.792969 "/></g></g></g></svg>