<svg xmlns="http://www.w3.org/2000/svg" xmlns:xlink="http://www.w3.org/1999/xlink" width="500" zoomAndPan="magnify" viewBox="0 0 375 374.999991" height="500" preserveAspectRatio="xMidYMid meet" version="1.0"><defs><clipPath id="5e536ab027"><path d="M 187 4.335938 L 374.097656 4.335938 L 374.097656 294 L 187 294 Z M 187 4.335938 " clip-rule="nonzero"/></clipPath><clipPath id="cd14f503e2"><path d="M 0.597656 90 L 188 90 L 188 370.335938 L 0.597656 370.335938 Z M 0.597656 90 " clip-rule="nonzero"/></clipPath></defs><rect x="-37.5" width="450" fill="#ffffff" y="-37.499999" height="449.999989" fill-opacity="1"/><rect x="-37.5" width="450" fill="#0005b8" y="-37.499999" height="449.999989" fill-opacity="1"/><path fill="#0005b8" d="M 19.632812 106.441406 C 17.046875 110.519531 14.761719 114.757812 12.777344 119.160156 C 6.144531 133.914062 3.625 150.085938 2.296875 166.128906 C 0.0195312 193.503906 1.082031 221.386719 8.597656 247.859375 C 17.675781 279.816406 37.183594 308.535156 64.132812 328.859375 C 64.332031 329.597656 64.738281 330.089844 65.609375 330.042969 C 73.324219 336.226562 81.992188 340.492188 91.433594 343.917969 C 131.101562 358.316406 166.148438 366.421875 205.539062 364.332031 C 244.925781 362.238281 279.910156 346.863281 309.195312 322.59375 C 326.316406 308.402344 342.136719 292.234375 352.632812 272.914062 C 362.445312 254.84375 367.296875 234.574219 369.601562 214.277344 C 374.96875 167.011719 366.4375 117.546875 340.71875 77.054688 C 334.019531 66.503906 326.125 56.527344 316.191406 48.730469 C 304.863281 39.828125 291.261719 34.058594 277.429688 29.585938 C 212.777344 8.671875 144.195312 16.035156 84.359375 45.996094 C 80.179688 48.09375 76.363281 51.023438 72.683594 53.933594 C 53.089844 69.4375 32.949219 85.363281 19.632812 106.441406 Z M 19.632812 106.441406 " fill-opacity="1" fill-rule="nonzero"/><path fill="#63d3fb" d="M 75.84375 135.039062 C 74.132812 137.738281 72.621094 140.546875 71.304688 143.460938 C 66.910156 153.238281 65.242188 163.953125 64.359375 174.582031 C 62.855469 192.714844 63.558594 211.1875 68.539062 228.726562 C 70.058594 234.042969 71.996094 239.203125 74.347656 244.207031 C 76.699219 249.210938 79.441406 253.992188 82.566406 258.550781 C 85.695312 263.113281 89.167969 267.390625 92.984375 271.390625 C 96.804688 275.386719 100.917969 279.054688 105.332031 282.386719 C 105.464844 282.875 105.734375 283.203125 106.308594 283.167969 C 111.417969 287.269531 117.164062 290.09375 123.417969 292.363281 C 149.699219 301.902344 172.914062 307.273438 199.011719 305.886719 C 225.109375 304.503906 248.285156 294.3125 267.671875 278.234375 C 279.015625 268.832031 289.496094 258.128906 296.453125 245.324219 C 302.953125 233.351562 306.164062 219.925781 307.691406 206.476562 C 311.246094 175.167969 305.585938 142.390625 288.554688 115.566406 C 284.117188 108.578125 278.882812 101.964844 272.300781 96.800781 C 264.792969 90.90625 255.785156 87.082031 246.621094 84.117188 C 203.800781 70.269531 158.371094 75.144531 118.726562 94.988281 C 115.949219 96.375 113.421875 98.316406 110.988281 100.246094 C 98.011719 110.527344 84.667969 121.078125 75.84375 135.039062 Z M 75.84375 135.039062 " fill-opacity="1" fill-rule="nonzero"/><path fill="#f7f2ef" d="M 103.796875 149.257812 C 102.519531 151.273438 101.390625 153.371094 100.410156 155.546875 C 97.132812 162.847656 95.886719 170.847656 95.226562 178.78125 C 94.101562 192.324219 94.628906 206.117188 98.347656 219.210938 C 99.480469 223.179688 100.925781 227.035156 102.683594 230.769531 C 104.441406 234.507812 106.488281 238.078125 108.820312 241.480469 C 111.15625 244.886719 113.75 248.082031 116.601562 251.070312 C 119.453125 254.054688 122.523438 256.789062 125.820312 259.28125 C 125.917969 259.644531 126.117188 259.886719 126.546875 259.863281 C 130.363281 262.925781 134.652344 265.03125 139.320312 266.726562 C 158.941406 273.851562 176.277344 277.859375 195.765625 276.824219 C 215.25 275.789062 232.554688 268.1875 247.035156 256.179688 C 255.507812 249.160156 263.332031 241.164062 268.523438 231.605469 C 273.378906 222.667969 275.777344 212.640625 276.917969 202.597656 C 279.570312 179.21875 275.347656 154.746094 262.628906 134.722656 C 259.3125 129.503906 255.40625 124.566406 250.496094 120.707031 C 244.890625 116.308594 238.164062 113.449219 231.324219 111.238281 C 199.339844 100.894531 165.417969 104.535156 135.816406 119.355469 C 133.746094 120.394531 131.859375 121.84375 130.039062 123.28125 C 120.347656 130.957031 110.382812 138.832031 103.796875 149.257812 Z M 103.796875 149.257812 " fill-opacity="1" fill-rule="nonzero"/><path fill="#000000" d="M 140.777344 168.070312 C 140.070312 169.183594 139.449219 170.335938 138.910156 171.535156 C 137.101562 175.558594 136.421875 179.96875 136.050781 184.34375 C 135.429688 191.808594 135.71875 199.40625 137.769531 206.625 C 139.03125 211.03125 140.953125 215.121094 143.542969 218.898438 C 146.132812 222.675781 149.257812 225.945312 152.910156 228.707031 C 152.921875 228.808594 152.96875 228.890625 153.046875 228.953125 C 153.128906 229.015625 153.21875 229.039062 153.316406 229.027344 C 155.421875 230.714844 157.785156 231.878906 160.359375 232.8125 C 171.171875 236.738281 180.726562 238.949219 191.46875 238.375 C 202.207031 237.804688 211.742188 233.617188 219.726562 227 C 224.394531 223.128906 228.707031 218.722656 231.566406 213.453125 C 234.246094 208.527344 235.566406 203.003906 236.195312 197.46875 C 237.65625 184.582031 235.328125 171.09375 228.320312 160.058594 C 226.496094 157.183594 224.339844 154.460938 221.632812 152.335938 C 218.542969 149.910156 214.832031 148.335938 211.066406 147.117188 C 193.4375 141.414062 174.746094 143.421875 158.429688 151.597656 C 157.285156 152.167969 156.246094 152.964844 155.246094 153.753906 C 149.898438 157.984375 144.410156 162.324219 140.777344 168.070312 Z M 140.777344 168.070312 " fill-opacity="1" fill-rule="nonzero"/><g clip-path="url(#5e536ab027)"><path fill="#f7f2ef" d="M 187.460938 4.484375 L 190.589844 4.460938 L 192.15625 4.449219 L 193.722656 4.476562 L 196.851562 4.539062 L 199.980469 4.679688 L 201.546875 4.75 L 203.109375 4.859375 L 206.238281 5.078125 L 209.359375 5.378906 L 210.917969 5.53125 L 212.476562 5.71875 C 213.515625 5.847656 214.554688 5.96875 215.589844 6.105469 L 218.695312 6.566406 C 219.210938 6.644531 219.730469 6.710938 220.246094 6.804688 L 221.792969 7.074219 L 223.34375 7.34375 C 223.859375 7.4375 224.378906 7.507812 224.890625 7.621094 C 226.941406 8.039062 229.003906 8.421875 231.039062 8.90625 L 232.574219 9.253906 L 233.339844 9.421875 L 234.101562 9.613281 L 237.152344 10.378906 C 253.503906 14.691406 268.964844 21.140625 283.535156 29.730469 C 285.335938 30.820312 287.148438 31.890625 288.914062 33.042969 C 290.699219 34.160156 292.433594 35.351562 294.1875 36.523438 C 295.054688 37.117188 295.910156 37.738281 296.769531 38.34375 L 298.058594 39.257812 L 299.328125 40.199219 C 300.164062 40.832031 301.023438 41.453125 301.863281 42.09375 L 304.355469 44.042969 C 307.648438 46.671875 310.886719 49.390625 313.992188 52.246094 L 315.160156 53.308594 C 315.550781 53.667969 315.929688 54.035156 316.3125 54.398438 L 318.605469 56.585938 C 320.09375 58.082031 321.613281 59.550781 323.054688 61.101562 C 334.828125 73.410156 344.707031 87.089844 352.691406 102.140625 C 360.628906 117.117188 366.695312 133.148438 370.390625 149.78125 L 371.035156 152.90625 L 371.359375 154.472656 L 371.640625 156.042969 L 372.195312 159.1875 L 372.667969 162.347656 C 372.742188 162.875 372.835938 163.402344 372.894531 163.929688 L 373.089844 165.515625 C 373.21875 166.574219 373.355469 167.628906 373.460938 168.691406 L 373.757812 171.867188 C 373.804688 172.398438 373.867188 172.929688 373.898438 173.460938 L 373.996094 175.054688 C 374.0625 176.117188 374.140625 177.179688 374.191406 178.246094 L 374.304688 181.4375 C 374.320312 181.96875 374.351562 182.5 374.351562 183.035156 L 374.363281 184.628906 C 374.371094 185.695312 374.390625 186.761719 374.378906 187.824219 C 374.347656 192.082031 374.128906 196.339844 373.785156 200.582031 C 373.4375 204.824219 372.929688 209.050781 372.265625 213.253906 C 371.601562 217.453125 370.785156 221.628906 369.8125 225.765625 C 368.84375 229.902344 367.742188 234.003906 366.46875 238.046875 L 365.476562 241.074219 C 365.320312 241.578125 365.144531 242.078125 364.964844 242.582031 L 364.441406 244.085938 L 364.179688 244.835938 L 363.90625 245.582031 L 363.351562 247.070312 C 362.988281 248.0625 362.59375 249.046875 362.203125 250.03125 C 359.085938 257.890625 355.390625 265.472656 351.117188 272.769531 C 348.984375 276.402344 346.722656 279.945312 344.324219 283.394531 C 341.929688 286.84375 339.40625 290.191406 336.734375 293.410156 L 336.050781 292.925781 C 338.195312 289.355469 340.261719 285.753906 342.210938 282.101562 C 344.160156 278.445312 346.003906 274.742188 347.726562 271.003906 C 351.179688 263.53125 354.148438 255.875 356.640625 248.03125 C 356.953125 247.058594 357.265625 246.082031 357.550781 245.097656 L 357.988281 243.628906 L 358.207031 242.890625 L 358.410156 242.152344 C 358.675781 241.164062 358.96875 240.183594 359.226562 239.195312 L 360 236.226562 C 360.976562 232.261719 361.851562 228.269531 362.578125 224.257812 C 363.304688 220.242188 363.929688 216.214844 364.398438 212.167969 L 364.734375 209.132812 C 364.835938 208.121094 364.921875 207.109375 365.015625 206.09375 L 365.085938 205.332031 L 365.140625 204.574219 L 365.253906 203.050781 C 365.285156 202.550781 365.332031 202.039062 365.359375 201.527344 L 365.4375 200.007812 L 365.523438 198.484375 C 365.554688 197.980469 365.5625 197.464844 365.585938 196.960938 L 365.640625 195.433594 L 365.667969 194.671875 L 365.679688 193.910156 L 365.738281 190.859375 L 365.738281 187.8125 C 365.679688 183.746094 365.589844 179.679688 365.296875 175.628906 L 365.203125 174.109375 C 365.175781 173.605469 365.121094 173.09375 365.082031 172.585938 L 364.824219 169.550781 C 364.78125 169.050781 364.71875 168.546875 364.65625 168.035156 L 364.488281 166.519531 L 364.324219 165.003906 C 364.265625 164.503906 364.195312 164 364.128906 163.5 L 363.738281 160.476562 L 363.304688 157.453125 L 363.074219 155.945312 L 362.8125 154.441406 L 362.277344 151.433594 C 360.769531 143.414062 358.722656 135.535156 356.144531 127.796875 C 355.523438 125.855469 354.796875 123.953125 354.113281 122.027344 C 353.75 121.074219 353.375 120.125 353.007812 119.175781 L 352.453125 117.746094 L 351.859375 116.335938 C 350.316406 112.554688 348.566406 108.863281 346.75 105.203125 C 332.054688 75.996094 309.207031 50.859375 281.351562 33.289062 C 274.375 28.886719 267.128906 24.980469 259.613281 21.570312 L 258.207031 20.929688 C 257.738281 20.710938 257.261719 20.519531 256.789062 20.3125 L 253.945312 19.097656 L 251.070312 17.949219 L 249.632812 17.378906 L 248.183594 16.84375 C 247.210938 16.488281 246.246094 16.121094 245.273438 15.777344 L 242.34375 14.773438 C 241.371094 14.425781 240.382812 14.128906 239.398438 13.816406 L 237.183594 13.113281 C 236.9375 13.039062 236.679688 12.972656 236.441406 12.898438 L 233.460938 12.035156 L 232.710938 11.835938 L 231.96875 11.640625 L 230.460938 11.246094 C 228.46875 10.699219 226.449219 10.25 224.441406 9.773438 C 223.941406 9.648438 223.4375 9.554688 222.925781 9.4375 L 221.402344 9.132812 L 219.886719 8.8125 C 219.382812 8.707031 218.867188 8.625 218.359375 8.527344 L 215.304688 7.960938 C 214.285156 7.792969 213.261719 7.636719 212.238281 7.472656 L 210.703125 7.230469 L 209.164062 7.019531 L 206.082031 6.613281 L 202.988281 6.277344 L 201.441406 6.121094 L 199.890625 5.996094 L 196.789062 5.742188 L 193.683594 5.574219 L 192.128906 5.484375 L 190.574219 5.433594 L 187.460938 5.335938 Z M 187.460938 4.484375 " fill-opacity="1" fill-rule="nonzero"/></g><g clip-path="url(#cd14f503e2)"><path fill="#f7f2ef" d="M 187.460938 370.515625 L 182.890625 370.550781 C 182.386719 370.550781 181.871094 370.535156 181.363281 370.527344 L 178.3125 370.46875 C 177.296875 370.4375 176.28125 370.382812 175.265625 370.339844 C 173.230469 370.273438 171.203125 370.097656 169.171875 369.964844 C 168.667969 369.933594 168.15625 369.875 167.648438 369.828125 L 166.128906 369.683594 C 165.113281 369.585938 164.097656 369.503906 163.089844 369.371094 L 160.054688 369 C 159.554688 368.945312 159.050781 368.863281 158.550781 368.789062 L 157.042969 368.566406 C 155.023438 368.289062 153.019531 367.914062 151.007812 367.5625 C 146.996094 366.800781 143 365.96875 139.046875 364.941406 C 137.0625 364.464844 135.101562 363.886719 133.132812 363.34375 C 132.636719 363.214844 132.152344 363.050781 131.664062 362.902344 L 128.734375 362.003906 C 128.242188 361.855469 127.761719 361.683594 127.277344 361.523438 L 124.367188 360.550781 C 123.402344 360.214844 122.445312 359.855469 121.480469 359.511719 L 120.039062 358.988281 C 119.5625 358.808594 119.085938 358.617188 118.609375 358.433594 L 115.75 357.316406 C 108.144531 354.230469 100.777344 350.652344 93.648438 346.589844 C 65.121094 330.367188 41.011719 306.230469 24.734375 277.476562 L 23.960938 276.136719 L 23.222656 274.777344 L 21.75 272.050781 L 20.332031 269.296875 C 20.097656 268.835938 19.855469 268.378906 19.628906 267.914062 L 18.960938 266.519531 C 17.121094 262.816406 15.464844 259.027344 13.875 255.207031 L 12.722656 252.324219 L 12.433594 251.605469 L 12.164062 250.875 L 11.621094 249.421875 L 11.078125 247.964844 L 10.785156 247.246094 L 10.535156 246.511719 L 9.519531 243.566406 C 8.226562 239.632812 7.011719 235.667969 5.992188 231.648438 C 3.898438 223.597656 2.414062 215.441406 1.539062 207.175781 C 1.121094 203.042969 0.804688 198.902344 0.703125 194.753906 L 0.632812 192.421875 C 0.632812 192.164062 0.632812 191.90625 0.632812 191.644531 L 0.613281 188.535156 C 0.601562 187.496094 0.648438 186.460938 0.679688 185.421875 L 0.78125 182.316406 C 1.472656 165.671875 4.5 149.460938 9.863281 133.6875 C 12.523438 125.886719 15.746094 118.324219 19.527344 111.003906 L 21.707031 106.9375 C 21.953125 106.488281 22.1875 106.035156 22.453125 105.601562 L 24.011719 102.953125 C 24.53125 102.074219 25.042969 101.1875 25.582031 100.320312 C 26.6875 98.597656 27.796875 96.882812 28.910156 95.171875 C 30.082031 93.5 31.25 91.828125 32.445312 90.179688 L 33.15625 90.625 C 32.242188 92.441406 31.316406 94.242188 30.390625 96.035156 L 27.765625 101.496094 L 25.300781 107.015625 C 25.089844 107.472656 24.910156 107.945312 24.71875 108.410156 L 24.140625 109.796875 L 22.996094 112.585938 C 20.042969 120.035156 17.546875 127.640625 15.511719 135.390625 C 11.453125 150.847656 9.328125 166.5625 9.132812 182.539062 L 9.121094 185.511719 C 9.121094 186.5 9.097656 187.492188 9.136719 188.480469 L 9.203125 191.453125 C 9.203125 191.699219 9.203125 191.953125 9.222656 192.195312 L 9.328125 194.421875 L 9.394531 195.902344 L 9.425781 196.644531 L 9.476562 197.386719 L 9.675781 200.347656 C 9.710938 200.851562 9.742188 201.335938 9.792969 201.828125 L 9.925781 203.308594 L 10.058594 204.785156 C 10.101562 205.277344 10.140625 205.773438 10.199219 206.261719 C 11.039062 214.132812 12.265625 221.96875 14.035156 229.695312 C 14.871094 233.566406 15.910156 237.398438 17.011719 241.207031 L 17.875 244.050781 L 18.089844 244.761719 L 18.324219 245.46875 L 18.789062 246.882812 L 19.492188 249.003906 L 19.746094 249.703125 L 20.75 252.507812 C 22.152344 256.222656 23.613281 259.921875 25.273438 263.542969 L 25.882812 264.902344 C 26.085938 265.355469 26.3125 265.800781 26.523438 266.25 L 27.8125 268.941406 L 29.171875 271.597656 L 29.851562 272.929688 L 30.566406 274.238281 L 31.996094 276.859375 L 33.484375 279.449219 C 33.738281 279.875 33.976562 280.316406 34.238281 280.738281 L 35.011719 282.011719 L 35.789062 283.289062 C 36.050781 283.714844 36.300781 284.144531 36.574219 284.558594 C 37.65625 286.230469 38.714844 287.921875 39.847656 289.5625 L 40.683594 290.800781 L 41.101562 291.417969 L 41.535156 292.027344 L 43.269531 294.460938 C 43.554688 294.871094 43.855469 295.265625 44.15625 295.667969 L 45.050781 296.863281 C 45.648438 297.660156 46.238281 298.464844 46.863281 299.242188 L 48.710938 301.597656 C 49.335938 302.371094 49.976562 303.136719 50.609375 303.910156 L 51.5625 305.0625 L 52.539062 306.195312 L 54.5 308.457031 L 56.507812 310.671875 C 56.84375 311.039062 57.175781 311.417969 57.519531 311.777344 L 58.554688 312.859375 C 61.28125 315.777344 64.148438 318.5625 67.070312 321.289062 L 69.285156 323.3125 C 69.652344 323.648438 70.035156 323.980469 70.410156 324.304688 L 71.539062 325.285156 L 72.671875 326.273438 C 73.050781 326.605469 73.441406 326.914062 73.824219 327.234375 L 76.132812 329.148438 C 85.507812 336.769531 95.546875 343.378906 106.25 348.980469 C 116.953125 354.582031 128.105469 359.066406 139.707031 362.425781 C 143.566406 363.574219 147.480469 364.53125 151.414062 365.421875 C 153.386719 365.828125 155.355469 366.269531 157.34375 366.609375 L 158.832031 366.882812 C 159.332031 366.972656 159.820312 367.070312 160.320312 367.144531 L 163.308594 367.617188 C 164.3125 367.78125 165.316406 367.90625 166.304688 368.042969 L 167.8125 368.242188 C 168.3125 368.304688 168.816406 368.382812 169.316406 368.433594 C 171.324219 368.640625 173.328125 368.890625 175.347656 369.035156 C 176.347656 369.113281 177.351562 369.199219 178.367188 369.277344 L 181.394531 369.445312 C 181.894531 369.46875 182.398438 369.503906 182.910156 369.527344 L 184.425781 369.578125 L 187.457031 369.675781 Z M 187.460938 370.515625 " fill-opacity="1" fill-rule="nonzero"/></g></svg>