<svg xmlns="http://www.w3.org/2000/svg" xmlns:xlink="http://www.w3.org/1999/xlink" width="500" zoomAndPan="magnify" viewBox="0 0 375 374.999991" height="500" preserveAspectRatio="xMidYMid meet" version="1.0"><defs><radialGradient gradientTransform="matrix(1, 0, 0, 1, 0.0000045, 0)" gradientUnits="userSpaceOnUse" r="265.164751" cx="187.499996" id="8dc2954a2b" cy="187.499996" fx="187.499996" fy="187.499996"><stop stop-opacity="1" stop-color="rgb(27.690125%, 28.486633%, 99.609375%)" offset="0"/><stop stop-opacity="1" stop-color="rgb(27.47345%, 28.263855%, 98.828125%)" offset="0.00390625"/><stop stop-opacity="1" stop-color="rgb(27.256775%, 28.041077%, 98.046875%)" offset="0.0078125"/><stop stop-opacity="1" stop-color="rgb(27.038574%, 27.816772%, 97.265625%)" offset="0.0117188"/><stop stop-opacity="1" stop-color="rgb(26.821899%, 27.593994%, 96.484375%)" offset="0.015625"/><stop stop-opacity="1" stop-color="rgb(26.603699%, 27.36969%, 95.703125%)" offset="0.0195312"/><stop stop-opacity="1" stop-color="rgb(26.387024%, 27.146912%, 94.921875%)" offset="0.0234375"/><stop stop-opacity="1" stop-color="rgb(26.170349%, 26.922607%, 94.140625%)" offset="0.0273438"/><stop stop-opacity="1" stop-color="rgb(25.952148%, 26.699829%, 93.359375%)" offset="0.03125"/><stop stop-opacity="1" stop-color="rgb(25.735474%, 26.475525%, 92.578125%)" offset="0.0351562"/><stop stop-opacity="1" stop-color="rgb(25.518799%, 26.252747%, 91.796875%)" offset="0.0390625"/><stop stop-opacity="1" stop-color="rgb(25.300598%, 26.029968%, 91.015625%)" offset="0.0429688"/><stop stop-opacity="1" stop-color="rgb(25.083923%, 25.805664%, 90.234375%)" offset="0.046875"/><stop stop-opacity="1" stop-color="rgb(24.867249%, 25.582886%, 89.453125%)" offset="0.0507812"/><stop stop-opacity="1" stop-color="rgb(24.649048%, 25.358582%, 88.671875%)" offset="0.0546875"/><stop stop-opacity="1" stop-color="rgb(24.432373%, 25.135803%, 87.890625%)" offset="0.0585938"/><stop stop-opacity="1" stop-color="rgb(24.215698%, 24.911499%, 87.109375%)" offset="0.0625"/><stop stop-opacity="1" stop-color="rgb(23.997498%, 24.688721%, 86.328125%)" offset="0.0664062"/><stop stop-opacity="1" stop-color="rgb(23.780823%, 24.465942%, 85.546875%)" offset="0.0703125"/><stop stop-opacity="1" stop-color="rgb(23.564148%, 24.241638%, 84.765625%)" offset="0.0742188"/><stop stop-opacity="1" stop-color="rgb(23.345947%, 24.01886%, 83.984375%)" offset="0.078125"/><stop stop-opacity="1" stop-color="rgb(23.129272%, 23.794556%, 83.203125%)" offset="0.0820312"/><stop stop-opacity="1" stop-color="rgb(22.912598%, 23.571777%, 82.421875%)" offset="0.0859375"/><stop stop-opacity="1" stop-color="rgb(22.694397%, 23.347473%, 81.640625%)" offset="0.0898438"/><stop stop-opacity="1" stop-color="rgb(22.477722%, 23.124695%, 80.859375%)" offset="0.09375"/><stop stop-opacity="1" stop-color="rgb(22.261047%, 22.901917%, 80.078125%)" offset="0.0976562"/><stop stop-opacity="1" stop-color="rgb(22.042847%, 22.677612%, 79.296875%)" offset="0.101562"/><stop stop-opacity="1" stop-color="rgb(21.826172%, 22.454834%, 78.515625%)" offset="0.105469"/><stop stop-opacity="1" stop-color="rgb(21.609497%, 22.23053%, 77.734375%)" offset="0.109375"/><stop stop-opacity="1" stop-color="rgb(21.391296%, 22.007751%, 76.953125%)" offset="0.113281"/><stop stop-opacity="1" stop-color="rgb(21.174622%, 21.783447%, 76.171875%)" offset="0.117188"/><stop stop-opacity="1" stop-color="rgb(20.957947%, 21.560669%, 75.390625%)" offset="0.121094"/><stop stop-opacity="1" stop-color="rgb(20.739746%, 21.337891%, 74.609375%)" offset="0.125"/><stop stop-opacity="1" stop-color="rgb(20.523071%, 21.113586%, 73.828125%)" offset="0.128906"/><stop stop-opacity="1" stop-color="rgb(20.306396%, 20.890808%, 73.046875%)" offset="0.132812"/><stop stop-opacity="1" stop-color="rgb(20.088196%, 20.666504%, 72.265625%)" offset="0.136719"/><stop stop-opacity="1" stop-color="rgb(19.871521%, 20.443726%, 71.484375%)" offset="0.140625"/><stop stop-opacity="1" stop-color="rgb(19.654846%, 20.219421%, 70.703125%)" offset="0.144531"/><stop stop-opacity="1" stop-color="rgb(19.436646%, 19.996643%, 69.921875%)" offset="0.148438"/><stop stop-opacity="1" stop-color="rgb(19.219971%, 19.773865%, 69.140625%)" offset="0.152344"/><stop stop-opacity="1" stop-color="rgb(19.003296%, 19.549561%, 68.359375%)" offset="0.15625"/><stop stop-opacity="1" stop-color="rgb(18.785095%, 19.326782%, 67.578125%)" offset="0.160156"/><stop stop-opacity="1" stop-color="rgb(18.56842%, 19.102478%, 66.796875%)" offset="0.164062"/><stop stop-opacity="1" stop-color="rgb(18.351746%, 18.8797%, 66.015625%)" offset="0.167969"/><stop stop-opacity="1" stop-color="rgb(18.133545%, 18.655396%, 65.234375%)" offset="0.171875"/><stop stop-opacity="1" stop-color="rgb(17.91687%, 18.432617%, 64.453125%)" offset="0.175781"/><stop stop-opacity="1" stop-color="rgb(17.700195%, 18.208313%, 63.671875%)" offset="0.179688"/><stop stop-opacity="1" stop-color="rgb(17.481995%, 17.985535%, 62.890625%)" offset="0.183594"/><stop stop-opacity="1" stop-color="rgb(17.26532%, 17.762756%, 62.109375%)" offset="0.1875"/><stop stop-opacity="1" stop-color="rgb(17.048645%, 17.538452%, 61.328125%)" offset="0.191406"/><stop stop-opacity="1" stop-color="rgb(16.830444%, 17.315674%, 60.546875%)" offset="0.195312"/><stop stop-opacity="1" stop-color="rgb(16.61377%, 17.09137%, 59.765625%)" offset="0.199219"/><stop stop-opacity="1" stop-color="rgb(16.397095%, 16.868591%, 58.984375%)" offset="0.203125"/><stop stop-opacity="1" stop-color="rgb(16.178894%, 16.644287%, 58.203125%)" offset="0.207031"/><stop stop-opacity="1" stop-color="rgb(15.962219%, 16.421509%, 57.421875%)" offset="0.210938"/><stop stop-opacity="1" stop-color="rgb(15.745544%, 16.19873%, 56.640625%)" offset="0.214844"/><stop stop-opacity="1" stop-color="rgb(15.527344%, 15.974426%, 55.859375%)" offset="0.21875"/><stop stop-opacity="1" stop-color="rgb(15.310669%, 15.751648%, 55.078125%)" offset="0.222656"/><stop stop-opacity="1" stop-color="rgb(15.093994%, 15.527344%, 54.296875%)" offset="0.226562"/><stop stop-opacity="1" stop-color="rgb(14.875793%, 15.304565%, 53.515625%)" offset="0.230469"/><stop stop-opacity="1" stop-color="rgb(14.659119%, 15.080261%, 52.734375%)" offset="0.234375"/><stop stop-opacity="1" stop-color="rgb(14.442444%, 14.857483%, 51.953125%)" offset="0.238281"/><stop stop-opacity="1" stop-color="rgb(14.224243%, 14.634705%, 51.171875%)" offset="0.242188"/><stop stop-opacity="1" stop-color="rgb(14.007568%, 14.4104%, 50.390625%)" offset="0.246094"/><stop stop-opacity="1" stop-color="rgb(13.790894%, 14.187622%, 49.609375%)" offset="0.25"/><stop stop-opacity="1" stop-color="rgb(13.572693%, 13.963318%, 48.828125%)" offset="0.253906"/><stop stop-opacity="1" stop-color="rgb(13.356018%, 13.74054%, 48.046875%)" offset="0.257812"/><stop stop-opacity="1" stop-color="rgb(13.139343%, 13.516235%, 47.265625%)" offset="0.261719"/><stop stop-opacity="1" stop-color="rgb(12.921143%, 13.293457%, 46.484375%)" offset="0.265625"/><stop stop-opacity="1" stop-color="rgb(12.704468%, 13.070679%, 45.703125%)" offset="0.269531"/><stop stop-opacity="1" stop-color="rgb(12.487793%, 12.846375%, 44.921875%)" offset="0.273438"/><stop stop-opacity="1" stop-color="rgb(12.269592%, 12.623596%, 44.140625%)" offset="0.277344"/><stop stop-opacity="1" stop-color="rgb(12.052917%, 12.399292%, 43.359375%)" offset="0.28125"/><stop stop-opacity="1" stop-color="rgb(11.836243%, 12.176514%, 42.578125%)" offset="0.285156"/><stop stop-opacity="1" stop-color="rgb(11.618042%, 11.952209%, 41.796875%)" offset="0.289062"/><stop stop-opacity="1" stop-color="rgb(11.401367%, 11.729431%, 41.015625%)" offset="0.292969"/><stop stop-opacity="1" stop-color="rgb(11.184692%, 11.506653%, 40.234375%)" offset="0.296875"/><stop stop-opacity="1" stop-color="rgb(10.966492%, 11.282349%, 39.453125%)" offset="0.300781"/><stop stop-opacity="1" stop-color="rgb(10.749817%, 11.05957%, 38.671875%)" offset="0.304688"/><stop stop-opacity="1" stop-color="rgb(10.533142%, 10.835266%, 37.890625%)" offset="0.308594"/><stop stop-opacity="1" stop-color="rgb(10.314941%, 10.612488%, 37.109375%)" offset="0.3125"/><stop stop-opacity="1" stop-color="rgb(10.098267%, 10.388184%, 36.328125%)" offset="0.316406"/><stop stop-opacity="1" stop-color="rgb(9.881592%, 10.165405%, 35.546875%)" offset="0.320312"/><stop stop-opacity="1" stop-color="rgb(9.663391%, 9.942627%, 34.765625%)" offset="0.324219"/><stop stop-opacity="1" stop-color="rgb(9.446716%, 9.718323%, 33.984375%)" offset="0.328125"/><stop stop-opacity="1" stop-color="rgb(9.230042%, 9.495544%, 33.203125%)" offset="0.332031"/><stop stop-opacity="1" stop-color="rgb(9.011841%, 9.27124%, 32.421875%)" offset="0.335938"/><stop stop-opacity="1" stop-color="rgb(8.795166%, 9.048462%, 31.640625%)" offset="0.339844"/><stop stop-opacity="1" stop-color="rgb(8.578491%, 8.824158%, 30.859375%)" offset="0.34375"/><stop stop-opacity="1" stop-color="rgb(8.360291%, 8.601379%, 30.078125%)" offset="0.347656"/><stop stop-opacity="1" stop-color="rgb(8.143616%, 8.377075%, 29.296875%)" offset="0.351562"/><stop stop-opacity="1" stop-color="rgb(7.926941%, 8.154297%, 28.515625%)" offset="0.355469"/><stop stop-opacity="1" stop-color="rgb(7.70874%, 7.931519%, 27.734375%)" offset="0.359375"/><stop stop-opacity="1" stop-color="rgb(7.492065%, 7.707214%, 26.953125%)" offset="0.363281"/><stop stop-opacity="1" stop-color="rgb(7.275391%, 7.484436%, 26.171875%)" offset="0.367188"/><stop stop-opacity="1" stop-color="rgb(7.05719%, 7.260132%, 25.390625%)" offset="0.371094"/><stop stop-opacity="1" stop-color="rgb(6.840515%, 7.037354%, 24.609375%)" offset="0.375"/><stop stop-opacity="1" stop-color="rgb(6.62384%, 6.813049%, 23.828125%)" offset="0.378906"/><stop stop-opacity="1" stop-color="rgb(6.40564%, 6.590271%, 23.046875%)" offset="0.382812"/><stop stop-opacity="1" stop-color="rgb(6.188965%, 6.367493%, 22.265625%)" offset="0.386719"/><stop stop-opacity="1" stop-color="rgb(5.97229%, 6.143188%, 21.484375%)" offset="0.390625"/><stop stop-opacity="1" stop-color="rgb(5.754089%, 5.92041%, 20.703125%)" offset="0.394531"/><stop stop-opacity="1" stop-color="rgb(5.537415%, 5.696106%, 19.921875%)" offset="0.398438"/><stop stop-opacity="1" stop-color="rgb(5.32074%, 5.473328%, 19.140625%)" offset="0.402344"/><stop stop-opacity="1" stop-color="rgb(5.102539%, 5.249023%, 18.359375%)" offset="0.40625"/><stop stop-opacity="1" stop-color="rgb(4.885864%, 5.026245%, 17.578125%)" offset="0.410156"/><stop stop-opacity="1" stop-color="rgb(4.669189%, 4.803467%, 16.796875%)" offset="0.414062"/><stop stop-opacity="1" stop-color="rgb(4.450989%, 4.579163%, 16.015625%)" offset="0.417969"/><stop stop-opacity="1" stop-color="rgb(4.234314%, 4.356384%, 15.234375%)" offset="0.421875"/><stop stop-opacity="1" stop-color="rgb(4.017639%, 4.13208%, 14.453125%)" offset="0.425781"/><stop stop-opacity="1" stop-color="rgb(3.799438%, 3.909302%, 13.671875%)" offset="0.429688"/><stop stop-opacity="1" stop-color="rgb(3.582764%, 3.684998%, 12.890625%)" offset="0.433594"/><stop stop-opacity="1" stop-color="rgb(3.366089%, 3.462219%, 12.109375%)" offset="0.4375"/><stop stop-opacity="1" stop-color="rgb(3.147888%, 3.239441%, 11.328125%)" offset="0.441406"/><stop stop-opacity="1" stop-color="rgb(2.931213%, 3.015137%, 10.546875%)" offset="0.445312"/><stop stop-opacity="1" stop-color="rgb(2.714539%, 2.792358%, 9.765625%)" offset="0.449219"/><stop stop-opacity="1" stop-color="rgb(2.496338%, 2.568054%, 8.984375%)" offset="0.453125"/><stop stop-opacity="1" stop-color="rgb(2.279663%, 2.345276%, 8.203125%)" offset="0.457031"/><stop stop-opacity="1" stop-color="rgb(2.062988%, 2.120972%, 7.421875%)" offset="0.460938"/><stop stop-opacity="1" stop-color="rgb(1.844788%, 1.898193%, 6.640625%)" offset="0.464844"/><stop stop-opacity="1" stop-color="rgb(1.628113%, 1.675415%, 5.859375%)" offset="0.46875"/><stop stop-opacity="1" stop-color="rgb(1.411438%, 1.451111%, 5.078125%)" offset="0.472656"/><stop stop-opacity="1" stop-color="rgb(1.193237%, 1.228333%, 4.296875%)" offset="0.476562"/><stop stop-opacity="1" stop-color="rgb(0.976562%, 1.004028%, 3.515625%)" offset="0.480469"/><stop stop-opacity="1" stop-color="rgb(0.759888%, 0.78125%, 2.734375%)" offset="0.484375"/><stop stop-opacity="1" stop-color="rgb(0.541687%, 0.556946%, 1.953125%)" offset="0.488281"/><stop stop-opacity="1" stop-color="rgb(0.325012%, 0.334167%, 1.171875%)" offset="0.492188"/><stop stop-opacity="1" stop-color="rgb(0.108337%, 0.111389%, 0.390625%)" offset="0.496094"/><stop stop-opacity="1" stop-color="rgb(0.390625%, 0.390625%, 0.390625%)" offset="0.5"/><stop stop-opacity="1" stop-color="rgb(1.171875%, 1.171875%, 1.171875%)" offset="0.503906"/><stop stop-opacity="1" stop-color="rgb(1.953125%, 1.953125%, 1.953125%)" offset="0.507812"/><stop stop-opacity="1" stop-color="rgb(2.734375%, 2.734375%, 2.734375%)" offset="0.511719"/><stop stop-opacity="1" stop-color="rgb(3.515625%, 3.515625%, 3.515625%)" offset="0.515625"/><stop stop-opacity="1" stop-color="rgb(4.296875%, 4.296875%, 4.296875%)" offset="0.519531"/><stop stop-opacity="1" stop-color="rgb(5.078125%, 5.078125%, 5.078125%)" offset="0.523438"/><stop stop-opacity="1" stop-color="rgb(5.859375%, 5.859375%, 5.859375%)" offset="0.527344"/><stop stop-opacity="1" stop-color="rgb(6.640625%, 6.640625%, 6.640625%)" offset="0.53125"/><stop stop-opacity="1" stop-color="rgb(7.421875%, 7.421875%, 7.421875%)" offset="0.535156"/><stop stop-opacity="1" stop-color="rgb(8.203125%, 8.203125%, 8.203125%)" offset="0.539062"/><stop stop-opacity="1" stop-color="rgb(8.984375%, 8.984375%, 8.984375%)" offset="0.542969"/><stop stop-opacity="1" stop-color="rgb(9.765625%, 9.765625%, 9.765625%)" offset="0.546875"/><stop stop-opacity="1" stop-color="rgb(10.546875%, 10.546875%, 10.546875%)" offset="0.550781"/><stop stop-opacity="1" stop-color="rgb(11.328125%, 11.328125%, 11.328125%)" offset="0.554688"/><stop stop-opacity="1" stop-color="rgb(12.109375%, 12.109375%, 12.109375%)" offset="0.558594"/><stop stop-opacity="1" stop-color="rgb(12.890625%, 12.890625%, 12.890625%)" offset="0.5625"/><stop stop-opacity="1" stop-color="rgb(13.671875%, 13.671875%, 13.671875%)" offset="0.566406"/><stop stop-opacity="1" stop-color="rgb(14.453125%, 14.453125%, 14.453125%)" offset="0.570312"/><stop stop-opacity="1" stop-color="rgb(15.234375%, 15.234375%, 15.234375%)" offset="0.574219"/><stop stop-opacity="1" stop-color="rgb(16.015625%, 16.015625%, 16.015625%)" offset="0.578125"/><stop stop-opacity="1" stop-color="rgb(16.796875%, 16.796875%, 16.796875%)" offset="0.582031"/><stop stop-opacity="1" stop-color="rgb(17.578125%, 17.578125%, 17.578125%)" offset="0.585938"/><stop stop-opacity="1" stop-color="rgb(18.359375%, 18.359375%, 18.359375%)" offset="0.589844"/><stop stop-opacity="1" stop-color="rgb(19.140625%, 19.140625%, 19.140625%)" offset="0.59375"/><stop stop-opacity="1" stop-color="rgb(19.921875%, 19.921875%, 19.921875%)" offset="0.597656"/><stop stop-opacity="1" stop-color="rgb(20.703125%, 20.703125%, 20.703125%)" offset="0.601562"/><stop stop-opacity="1" stop-color="rgb(21.484375%, 21.484375%, 21.484375%)" offset="0.605469"/><stop stop-opacity="1" stop-color="rgb(22.265625%, 22.265625%, 22.265625%)" offset="0.609375"/><stop stop-opacity="1" stop-color="rgb(23.046875%, 23.046875%, 23.046875%)" offset="0.613281"/><stop stop-opacity="1" stop-color="rgb(23.828125%, 23.828125%, 23.828125%)" offset="0.617188"/><stop stop-opacity="1" stop-color="rgb(24.609375%, 24.609375%, 24.609375%)" offset="0.621094"/><stop stop-opacity="1" stop-color="rgb(25.390625%, 25.390625%, 25.390625%)" offset="0.625"/><stop stop-opacity="1" stop-color="rgb(26.171875%, 26.171875%, 26.171875%)" offset="0.628906"/><stop stop-opacity="1" stop-color="rgb(26.953125%, 26.953125%, 26.953125%)" offset="0.632812"/><stop stop-opacity="1" stop-color="rgb(27.734375%, 27.734375%, 27.734375%)" offset="0.636719"/><stop stop-opacity="1" stop-color="rgb(28.515625%, 28.515625%, 28.515625%)" offset="0.640625"/><stop stop-opacity="1" stop-color="rgb(29.296875%, 29.296875%, 29.296875%)" offset="0.644531"/><stop stop-opacity="1" stop-color="rgb(30.078125%, 30.078125%, 30.078125%)" offset="0.648438"/><stop stop-opacity="1" stop-color="rgb(30.859375%, 30.859375%, 30.859375%)" offset="0.652344"/><stop stop-opacity="1" stop-color="rgb(31.640625%, 31.640625%, 31.640625%)" offset="0.65625"/><stop stop-opacity="1" stop-color="rgb(32.421875%, 32.421875%, 32.421875%)" offset="0.660156"/><stop stop-opacity="1" stop-color="rgb(33.203125%, 33.203125%, 33.203125%)" offset="0.664062"/><stop stop-opacity="1" stop-color="rgb(33.984375%, 33.984375%, 33.984375%)" offset="0.667969"/><stop stop-opacity="1" stop-color="rgb(34.765625%, 34.765625%, 34.765625%)" offset="0.671875"/><stop stop-opacity="1" stop-color="rgb(35.546875%, 35.546875%, 35.546875%)" offset="0.675781"/><stop stop-opacity="1" stop-color="rgb(36.328125%, 36.328125%, 36.328125%)" offset="0.679688"/><stop stop-opacity="1" stop-color="rgb(37.109375%, 37.109375%, 37.109375%)" offset="0.683594"/><stop stop-opacity="1" stop-color="rgb(37.890625%, 37.890625%, 37.890625%)" offset="0.6875"/><stop stop-opacity="1" stop-color="rgb(38.671875%, 38.671875%, 38.671875%)" offset="0.691406"/><stop stop-opacity="1" stop-color="rgb(39.453125%, 39.453125%, 39.453125%)" offset="0.695312"/><stop stop-opacity="1" stop-color="rgb(40.234375%, 40.234375%, 40.234375%)" offset="0.699219"/><stop stop-opacity="1" stop-color="rgb(41.015625%, 41.015625%, 41.015625%)" offset="0.703125"/><stop stop-opacity="1" stop-color="rgb(41.796875%, 41.796875%, 41.796875%)" offset="0.707031"/><stop stop-opacity="1" stop-color="rgb(42.578125%, 42.578125%, 42.578125%)" offset="0.710938"/><stop stop-opacity="1" stop-color="rgb(43.359375%, 43.359375%, 43.359375%)" offset="0.714844"/><stop stop-opacity="1" stop-color="rgb(44.140625%, 44.140625%, 44.140625%)" offset="0.71875"/><stop stop-opacity="1" stop-color="rgb(44.921875%, 44.921875%, 44.921875%)" offset="0.722656"/><stop stop-opacity="1" stop-color="rgb(45.703125%, 45.703125%, 45.703125%)" offset="0.726562"/><stop stop-opacity="1" stop-color="rgb(46.484375%, 46.484375%, 46.484375%)" offset="0.730469"/><stop stop-opacity="1" stop-color="rgb(47.265625%, 47.265625%, 47.265625%)" offset="0.734375"/><stop stop-opacity="1" stop-color="rgb(48.046875%, 48.046875%, 48.046875%)" offset="0.738281"/><stop stop-opacity="1" stop-color="rgb(48.828125%, 48.828125%, 48.828125%)" offset="0.742188"/><stop stop-opacity="1" stop-color="rgb(49.609375%, 49.609375%, 49.609375%)" offset="0.746094"/><stop stop-opacity="1" stop-color="rgb(50.390625%, 50.390625%, 50.390625%)" offset="0.75"/><stop stop-opacity="1" stop-color="rgb(51.171875%, 51.171875%, 51.171875%)" offset="0.753906"/><stop stop-opacity="1" stop-color="rgb(51.953125%, 51.953125%, 51.953125%)" offset="0.757812"/><stop stop-opacity="1" stop-color="rgb(52.734375%, 52.734375%, 52.734375%)" offset="0.761719"/><stop stop-opacity="1" stop-color="rgb(53.515625%, 53.515625%, 53.515625%)" offset="0.765625"/><stop stop-opacity="1" stop-color="rgb(54.296875%, 54.296875%, 54.296875%)" offset="0.769531"/><stop stop-opacity="1" stop-color="rgb(55.078125%, 55.078125%, 55.078125%)" offset="0.773438"/><stop stop-opacity="1" stop-color="rgb(55.859375%, 55.859375%, 55.859375%)" offset="0.777344"/><stop stop-opacity="1" stop-color="rgb(56.640625%, 56.640625%, 56.640625%)" offset="0.78125"/><stop stop-opacity="1" stop-color="rgb(57.421875%, 57.421875%, 57.421875%)" offset="0.785156"/><stop stop-opacity="1" stop-color="rgb(58.203125%, 58.203125%, 58.203125%)" offset="0.789062"/><stop stop-opacity="1" stop-color="rgb(58.984375%, 58.984375%, 58.984375%)" offset="0.792969"/><stop stop-opacity="1" stop-color="rgb(59.765625%, 59.765625%, 59.765625%)" offset="0.796875"/><stop stop-opacity="1" stop-color="rgb(60.546875%, 60.546875%, 60.546875%)" offset="0.800781"/><stop stop-opacity="1" stop-color="rgb(61.328125%, 61.328125%, 61.328125%)" offset="0.804688"/><stop stop-opacity="1" stop-color="rgb(62.109375%, 62.109375%, 62.109375%)" offset="0.808594"/><stop stop-opacity="1" stop-color="rgb(62.890625%, 62.890625%, 62.890625%)" offset="0.8125"/><stop stop-opacity="1" stop-color="rgb(63.671875%, 63.671875%, 63.671875%)" offset="0.816406"/><stop stop-opacity="1" stop-color="rgb(64.453125%, 64.453125%, 64.453125%)" offset="0.820312"/><stop stop-opacity="1" stop-color="rgb(65.234375%, 65.234375%, 65.234375%)" offset="0.824219"/><stop stop-opacity="1" stop-color="rgb(66.015625%, 66.015625%, 66.015625%)" offset="0.828125"/><stop stop-opacity="1" stop-color="rgb(66.796875%, 66.796875%, 66.796875%)" offset="0.832031"/><stop stop-opacity="1" stop-color="rgb(67.578125%, 67.578125%, 67.578125%)" offset="0.835938"/><stop stop-opacity="1" stop-color="rgb(68.359375%, 68.359375%, 68.359375%)" offset="0.839844"/><stop stop-opacity="1" stop-color="rgb(69.140625%, 69.140625%, 69.140625%)" offset="0.84375"/><stop stop-opacity="1" stop-color="rgb(69.921875%, 69.921875%, 69.921875%)" offset="0.847656"/><stop stop-opacity="1" stop-color="rgb(70.703125%, 70.703125%, 70.703125%)" offset="0.851562"/><stop stop-opacity="1" stop-color="rgb(71.484375%, 71.484375%, 71.484375%)" offset="0.855469"/><stop stop-opacity="1" stop-color="rgb(72.265625%, 72.265625%, 72.265625%)" offset="0.859375"/><stop stop-opacity="1" stop-color="rgb(73.046875%, 73.046875%, 73.046875%)" offset="0.863281"/><stop stop-opacity="1" stop-color="rgb(73.828125%, 73.828125%, 73.828125%)" offset="0.867188"/><stop stop-opacity="1" stop-color="rgb(74.609375%, 74.609375%, 74.609375%)" offset="0.871094"/><stop stop-opacity="1" stop-color="rgb(75.390625%, 75.390625%, 75.390625%)" offset="0.875"/><stop stop-opacity="1" stop-color="rgb(76.171875%, 76.171875%, 76.171875%)" offset="0.878906"/><stop stop-opacity="1" stop-color="rgb(76.953125%, 76.953125%, 76.953125%)" offset="0.882812"/><stop stop-opacity="1" stop-color="rgb(77.734375%, 77.734375%, 77.734375%)" offset="0.886719"/><stop stop-opacity="1" stop-color="rgb(78.515625%, 78.515625%, 78.515625%)" offset="0.890625"/><stop stop-opacity="1" stop-color="rgb(79.296875%, 79.296875%, 79.296875%)" offset="0.894531"/><stop stop-opacity="1" stop-color="rgb(80.078125%, 80.078125%, 80.078125%)" offset="0.898438"/><stop stop-opacity="1" stop-color="rgb(80.859375%, 80.859375%, 80.859375%)" offset="0.902344"/><stop stop-opacity="1" stop-color="rgb(81.640625%, 81.640625%, 81.640625%)" offset="0.90625"/><stop stop-opacity="1" stop-color="rgb(82.421875%, 82.421875%, 82.421875%)" offset="0.910156"/><stop stop-opacity="1" stop-color="rgb(83.203125%, 83.203125%, 83.203125%)" offset="0.914062"/><stop stop-opacity="1" stop-color="rgb(83.984375%, 83.984375%, 83.984375%)" offset="0.917969"/><stop stop-opacity="1" stop-color="rgb(84.765625%, 84.765625%, 84.765625%)" offset="0.921875"/><stop stop-opacity="1" stop-color="rgb(85.546875%, 85.546875%, 85.546875%)" offset="0.925781"/><stop stop-opacity="1" stop-color="rgb(86.328125%, 86.328125%, 86.328125%)" offset="0.929688"/><stop stop-opacity="1" stop-color="rgb(87.109375%, 87.109375%, 87.109375%)" offset="0.933594"/><stop stop-opacity="1" stop-color="rgb(87.890625%, 87.890625%, 87.890625%)" offset="0.9375"/><stop stop-opacity="1" stop-color="rgb(88.671875%, 88.671875%, 88.671875%)" offset="0.941406"/><stop stop-opacity="1" stop-color="rgb(89.453125%, 89.453125%, 89.453125%)" offset="0.945312"/><stop stop-opacity="1" stop-color="rgb(90.234375%, 90.234375%, 90.234375%)" offset="0.949219"/><stop stop-opacity="1" stop-color="rgb(91.015625%, 91.015625%, 91.015625%)" offset="0.953125"/><stop stop-opacity="1" stop-color="rgb(91.796875%, 91.796875%, 91.796875%)" offset="0.957031"/><stop stop-opacity="1" stop-color="rgb(92.578125%, 92.578125%, 92.578125%)" offset="0.960938"/><stop stop-opacity="1" stop-color="rgb(93.359375%, 93.359375%, 93.359375%)" offset="0.964844"/><stop stop-opacity="1" stop-color="rgb(94.140625%, 94.140625%, 94.140625%)" offset="0.96875"/><stop stop-opacity="1" stop-color="rgb(94.921875%, 94.921875%, 94.921875%)" offset="0.972656"/><stop stop-opacity="1" stop-color="rgb(95.703125%, 95.703125%, 95.703125%)" offset="0.976562"/><stop stop-opacity="1" stop-color="rgb(96.484375%, 96.484375%, 96.484375%)" offset="0.980469"/><stop stop-opacity="1" stop-color="rgb(97.265625%, 97.265625%, 97.265625%)" offset="0.984375"/><stop stop-opacity="1" stop-color="rgb(98.046875%, 98.046875%, 98.046875%)" offset="0.988281"/><stop stop-opacity="1" stop-color="rgb(98.828125%, 98.828125%, 98.828125%)" offset="0.992188"/><stop stop-opacity="1" stop-color="rgb(99.609375%, 99.609375%, 99.609375%)" offset="0.996094"/><stop stop-opacity="1" stop-color="rgb(100%, 100%, 100%)" offset="1"/></radialGradient></defs><rect x="-37.5" width="450" fill="#ffffff" y="-37.499999" height="449.999989" fill-opacity="1"/><rect x="-37.5" fill="url(#8dc2954a2b)" width="450" y="-37.499999" height="449.999989"/><path fill="#000000" d="M 333.664062 152.472656 C 334.238281 154.863281 334.75 157.269531 335.203125 159.6875 C 335.660156 162.101562 336.054688 164.53125 336.390625 166.964844 C 336.722656 169.402344 337 171.847656 337.214844 174.296875 C 337.429688 176.746094 337.585938 179.199219 337.679688 181.65625 C 337.773438 184.113281 337.808594 186.574219 337.785156 189.03125 C 337.757812 191.492188 337.671875 193.949219 337.523438 196.402344 C 337.378906 198.859375 337.171875 201.308594 336.90625 203.753906 C 336.636719 206.199219 336.3125 208.632812 335.925781 211.0625 C 335.539062 213.492188 335.09375 215.910156 334.589844 218.316406 C 334.082031 220.722656 333.519531 223.117188 332.894531 225.496094 C 332.273438 227.875 331.59375 230.238281 330.855469 232.582031 C 330.117188 234.929688 329.320312 237.253906 328.46875 239.5625 C 327.613281 241.867188 326.707031 244.152344 325.742188 246.414062 C 324.777344 248.675781 323.753906 250.914062 322.679688 253.125 C 321.605469 255.339844 320.476562 257.523438 319.296875 259.679688 C 318.113281 261.835938 316.878906 263.960938 315.59375 266.058594 C 314.304688 268.15625 312.96875 270.21875 311.582031 272.246094 C 310.195312 274.277344 308.757812 276.273438 307.269531 278.234375 C 305.785156 280.191406 304.253906 282.117188 302.671875 284 C 301.09375 285.882812 299.46875 287.730469 297.796875 289.535156 C 296.125 291.339844 294.410156 293.101562 292.65625 294.820312 C 290.898438 296.542969 289.097656 298.21875 287.257812 299.851562 C 285.421875 301.484375 283.542969 303.070312 281.625 304.609375 C 279.707031 306.148438 277.753906 307.640625 275.761719 309.085938 C 273.773438 310.53125 271.746094 311.925781 269.6875 313.269531 C 267.628906 314.613281 265.539062 315.90625 263.414062 317.148438 C 261.292969 318.390625 259.140625 319.582031 256.960938 320.71875 C 254.777344 321.855469 252.570312 322.9375 250.335938 323.964844 C 248.101562 324.992188 245.84375 325.964844 243.5625 326.882812 C 241.28125 327.800781 238.976562 328.660156 236.652344 329.464844 C 234.328125 330.269531 231.988281 331.015625 229.625 331.703125 C 227.265625 332.394531 224.890625 333.023438 222.496094 333.597656 C 220.105469 334.167969 217.703125 334.683594 215.285156 335.136719 C 212.867188 335.589844 210.441406 335.988281 208.003906 336.320312 C 205.566406 336.65625 203.125 336.933594 200.675781 337.148438 C 198.226562 337.363281 195.769531 337.519531 193.3125 337.613281 C 190.855469 337.707031 188.398438 337.742188 185.9375 337.714844 C 183.480469 337.691406 181.023438 337.605469 178.566406 337.457031 C 176.113281 337.3125 173.664062 337.105469 171.21875 336.835938 C 168.773438 336.570312 166.335938 336.246094 163.90625 335.859375 C 161.480469 335.472656 159.0625 335.027344 156.652344 334.519531 C 154.246094 334.015625 151.855469 333.453125 149.476562 332.828125 C 147.097656 332.207031 144.734375 331.527344 142.386719 330.789062 C 140.042969 330.046875 137.714844 329.253906 135.410156 328.398438 C 133.101562 327.546875 130.816406 326.636719 128.554688 325.671875 C 126.292969 324.707031 124.054688 323.6875 121.84375 322.613281 C 119.632812 321.539062 117.449219 320.410156 115.292969 319.226562 C 113.132812 318.046875 111.007812 316.8125 108.914062 315.527344 C 106.816406 314.238281 104.753906 312.902344 102.722656 311.515625 C 100.691406 310.125 98.695312 308.691406 96.738281 307.203125 C 94.777344 305.71875 92.855469 304.183594 90.96875 302.605469 C 89.085938 301.023438 87.242188 299.398438 85.4375 297.730469 C 83.632812 296.058594 81.871094 294.34375 80.148438 292.585938 C 78.429688 290.828125 76.75 289.03125 75.121094 287.191406 C 73.488281 285.351562 71.902344 283.472656 70.359375 281.558594 C 68.820312 279.640625 67.328125 277.683594 65.882812 275.695312 C 64.441406 273.703125 63.046875 271.679688 61.699219 269.621094 C 60.355469 267.5625 59.0625 265.46875 57.820312 263.347656 C 56.578125 261.226562 55.390625 259.074219 54.253906 256.890625 C 53.117188 254.710938 52.035156 252.503906 51.007812 250.269531 C 49.976562 248.035156 49.003906 245.777344 48.089844 243.496094 C 47.171875 241.214844 46.308594 238.910156 45.507812 236.585938 C 44.703125 234.261719 43.957031 231.917969 43.265625 229.558594 C 42.578125 227.199219 41.945312 224.820312 41.375 222.429688 C 40.800781 220.039062 40.289062 217.632812 39.832031 215.21875 C 39.378906 212.800781 38.984375 210.375 38.648438 207.9375 C 38.3125 205.5 38.039062 203.058594 37.824219 200.609375 C 37.609375 198.15625 37.453125 195.703125 37.359375 193.246094 C 37.261719 190.789062 37.230469 188.332031 37.253906 185.871094 C 37.28125 183.414062 37.367188 180.957031 37.511719 178.5 C 37.660156 176.046875 37.867188 173.59375 38.132812 171.152344 C 38.398438 168.707031 38.726562 166.269531 39.113281 163.839844 C 39.5 161.410156 39.945312 158.992188 40.449219 156.585938 C 40.957031 154.179688 41.519531 151.785156 42.140625 149.40625 C 42.765625 147.027344 43.445312 144.664062 44.183594 142.320312 C 44.921875 139.972656 45.71875 137.648438 46.570312 135.339844 C 47.421875 133.035156 48.332031 130.75 49.296875 128.488281 C 50.261719 126.226562 51.28125 123.988281 52.355469 121.777344 C 53.433594 119.566406 54.558594 117.378906 55.742188 115.222656 C 56.925781 113.066406 58.160156 110.941406 59.445312 108.84375 C 60.730469 106.75 62.070312 104.6875 63.457031 102.65625 C 64.84375 100.625 66.28125 98.628906 67.765625 96.671875 C 69.253906 94.710938 70.785156 92.789062 72.367188 90.902344 C 73.945312 89.019531 75.570312 87.175781 77.242188 85.371094 C 78.914062 83.566406 80.625 81.800781 82.382812 80.082031 C 84.140625 78.359375 85.9375 76.683594 87.777344 75.050781 C 89.617188 73.417969 91.496094 71.832031 93.414062 70.292969 C 95.332031 68.753906 97.285156 67.261719 99.277344 65.816406 C 101.265625 64.371094 103.292969 62.976562 105.351562 61.632812 C 107.410156 60.289062 109.5 58.996094 111.625 57.753906 C 113.746094 56.511719 115.898438 55.320312 118.078125 54.183594 C 120.257812 53.050781 122.46875 51.964844 124.699219 50.9375 C 126.933594 49.910156 129.191406 48.9375 131.476562 48.019531 C 133.757812 47.101562 136.058594 46.242188 138.382812 45.4375 C 140.707031 44.632812 143.050781 43.886719 145.410156 43.199219 C 147.773438 42.507812 150.148438 41.878906 152.539062 41.304688 C 154.933594 40.734375 157.335938 40.21875 159.753906 39.765625 C 162.171875 39.3125 164.597656 38.917969 167.035156 38.582031 C 169.46875 38.246094 171.914062 37.972656 174.363281 37.753906 C 176.8125 37.539062 179.265625 37.386719 181.722656 37.289062 C 184.179688 37.195312 186.640625 37.160156 189.097656 37.1875 C 191.558594 37.214844 194.015625 37.300781 196.46875 37.445312 C 198.925781 37.59375 201.375 37.796875 203.820312 38.066406 C 206.265625 38.332031 208.703125 38.660156 211.128906 39.046875 C 213.558594 39.433594 215.976562 39.878906 218.382812 40.382812 C 220.789062 40.886719 223.183594 41.453125 225.5625 42.074219 C 227.941406 42.695312 230.304688 43.378906 232.652344 44.117188 C 234.996094 44.855469 237.324219 45.652344 239.628906 46.503906 C 241.9375 47.355469 244.21875 48.265625 246.484375 49.230469 C 248.746094 50.195312 250.980469 51.214844 253.195312 52.289062 C 255.40625 53.363281 257.589844 54.492188 259.746094 55.675781 C 261.902344 56.855469 264.03125 58.089844 266.125 59.378906 C 268.222656 60.664062 270.285156 62 272.316406 63.390625 C 274.347656 64.777344 276.339844 66.214844 278.300781 67.699219 C 280.261719 69.183594 282.183594 70.71875 284.066406 72.296875 C 285.953125 73.878906 287.796875 75.503906 289.601562 77.175781 C 291.40625 78.84375 293.167969 80.558594 294.890625 82.316406 C 296.609375 84.074219 298.285156 85.871094 299.917969 87.710938 C 301.550781 89.550781 303.136719 91.429688 304.675781 93.347656 C 306.21875 95.265625 307.710938 97.21875 309.152344 99.207031 C 310.597656 101.199219 311.992188 103.222656 313.335938 105.28125 C 314.683594 107.34375 315.976562 109.433594 317.21875 111.554688 C 318.460938 113.679688 319.648438 115.828125 320.785156 118.011719 C 321.921875 120.191406 323.003906 122.398438 324.03125 124.632812 C 325.058594 126.867188 326.03125 129.125 326.949219 131.40625 C 327.867188 133.691406 328.726562 135.992188 329.53125 138.316406 C 330.335938 140.640625 331.082031 142.984375 331.773438 145.34375 C 332.460938 147.707031 333.09375 150.082031 333.664062 152.472656 Z M 333.664062 152.472656 " fill-opacity="1" fill-rule="nonzero"/><path fill="#040ba6" d="M 330.585938 153.210938 C 331.148438 155.550781 331.652344 157.90625 332.09375 160.269531 C 332.539062 162.636719 332.925781 165.011719 333.253906 167.398438 C 333.582031 169.78125 333.851562 172.175781 334.0625 174.574219 C 334.273438 176.972656 334.425781 179.371094 334.519531 181.777344 C 334.613281 184.183594 334.644531 186.589844 334.621094 189 C 334.59375 191.40625 334.511719 193.8125 334.367188 196.214844 C 334.222656 198.617188 334.019531 201.015625 333.761719 203.410156 C 333.5 205.804688 333.179688 208.1875 332.800781 210.566406 C 332.421875 212.945312 331.984375 215.3125 331.492188 217.667969 C 330.996094 220.023438 330.445312 222.367188 329.835938 224.695312 C 329.226562 227.023438 328.558594 229.335938 327.835938 231.632812 C 327.113281 233.929688 326.335938 236.207031 325.5 238.464844 C 324.664062 240.722656 323.773438 242.960938 322.832031 245.175781 C 321.886719 247.386719 320.886719 249.578125 319.835938 251.742188 C 318.78125 253.910156 317.679688 256.046875 316.519531 258.160156 C 315.363281 260.269531 314.15625 262.351562 312.894531 264.402344 C 311.636719 266.457031 310.328125 268.476562 308.96875 270.460938 C 307.609375 272.449219 306.203125 274.402344 304.75 276.320312 C 303.296875 278.242188 301.796875 280.121094 300.25 281.96875 C 298.703125 283.8125 297.109375 285.617188 295.476562 287.386719 C 293.839844 289.152344 292.160156 290.878906 290.441406 292.5625 C 288.722656 294.246094 286.960938 295.886719 285.160156 297.484375 C 283.359375 299.082031 281.519531 300.636719 279.644531 302.144531 C 277.765625 303.652344 275.851562 305.113281 273.90625 306.527344 C 271.957031 307.9375 269.972656 309.304688 267.957031 310.621094 C 265.941406 311.9375 263.894531 313.203125 261.816406 314.417969 C 259.738281 315.636719 257.632812 316.800781 255.496094 317.914062 C 253.363281 319.023438 251.203125 320.085938 249.015625 321.089844 C 246.828125 322.097656 244.617188 323.050781 242.382812 323.945312 C 240.148438 324.84375 237.894531 325.6875 235.621094 326.476562 C 233.34375 327.261719 231.050781 327.992188 228.738281 328.667969 C 226.429688 329.34375 224.101562 329.960938 221.761719 330.519531 C 219.417969 331.082031 217.066406 331.582031 214.699219 332.027344 C 212.332031 332.472656 209.957031 332.859375 207.574219 333.1875 C 205.1875 333.515625 202.796875 333.785156 200.398438 333.996094 C 198 334.207031 195.597656 334.359375 193.191406 334.453125 C 190.785156 334.542969 188.378906 334.578125 185.972656 334.550781 C 183.566406 334.527344 181.160156 334.441406 178.757812 334.300781 C 176.351562 334.15625 173.953125 333.953125 171.5625 333.691406 C 169.167969 333.429688 166.78125 333.113281 164.40625 332.734375 C 162.027344 332.355469 159.660156 331.917969 157.304688 331.425781 C 154.949219 330.929688 152.605469 330.378906 150.277344 329.769531 C 147.945312 329.160156 145.632812 328.492188 143.335938 327.769531 C 141.042969 327.046875 138.765625 326.265625 136.503906 325.433594 C 134.246094 324.597656 132.011719 323.707031 129.796875 322.761719 C 127.582031 321.820312 125.390625 320.820312 123.226562 319.769531 C 121.0625 318.714844 118.921875 317.609375 116.8125 316.453125 C 114.699219 315.296875 112.617188 314.089844 110.566406 312.828125 C 108.515625 311.570312 106.496094 310.261719 104.507812 308.902344 C 102.519531 307.542969 100.566406 306.136719 98.648438 304.683594 C 96.730469 303.226562 94.847656 301.726562 93.003906 300.179688 C 91.160156 298.632812 89.351562 297.042969 87.585938 295.40625 C 85.820312 293.773438 84.09375 292.09375 82.410156 290.375 C 80.726562 288.652344 79.082031 286.894531 77.484375 285.09375 C 75.886719 283.292969 74.335938 281.453125 72.828125 279.574219 C 71.320312 277.699219 69.859375 275.785156 68.445312 273.835938 C 67.03125 271.886719 65.667969 269.90625 64.351562 267.890625 C 63.035156 265.875 61.765625 263.828125 60.550781 261.75 C 59.335938 259.671875 58.171875 257.566406 57.058594 255.429688 C 55.945312 253.296875 54.886719 251.132812 53.878906 248.945312 C 52.875 246.761719 51.921875 244.550781 51.023438 242.316406 C 50.125 240.082031 49.28125 237.828125 48.496094 235.550781 C 47.707031 233.277344 46.976562 230.984375 46.304688 228.671875 C 45.628906 226.363281 45.011719 224.035156 44.449219 221.695312 C 43.890625 219.351562 43.386719 217 42.941406 214.632812 C 42.5 212.265625 42.113281 209.890625 41.785156 207.503906 C 41.457031 205.121094 41.1875 202.730469 40.976562 200.332031 C 40.765625 197.933594 40.613281 195.53125 40.519531 193.125 C 40.425781 190.71875 40.394531 188.3125 40.417969 185.90625 C 40.445312 183.496094 40.527344 181.09375 40.671875 178.6875 C 40.816406 176.285156 41.015625 173.886719 41.277344 171.492188 C 41.539062 169.101562 41.859375 166.714844 42.238281 164.335938 C 42.617188 161.960938 43.050781 159.59375 43.546875 157.238281 C 44.039062 154.878906 44.59375 152.539062 45.203125 150.207031 C 45.8125 147.878906 46.476562 145.566406 47.203125 143.269531 C 47.925781 140.972656 48.703125 138.695312 49.539062 136.4375 C 50.375 134.179688 51.261719 131.945312 52.207031 129.730469 C 53.152344 127.515625 54.152344 125.324219 55.203125 123.160156 C 56.253906 120.992188 57.359375 118.855469 58.515625 116.746094 C 59.675781 114.632812 60.882812 112.550781 62.140625 110.5 C 63.402344 108.449219 64.710938 106.429688 66.070312 104.441406 C 67.425781 102.453125 68.832031 100.5 70.289062 98.582031 C 71.742188 96.664062 73.242188 94.78125 74.789062 92.9375 C 76.335938 91.089844 77.929688 89.285156 79.5625 87.519531 C 81.199219 85.75 82.875 84.027344 84.597656 82.339844 C 86.316406 80.65625 88.078125 79.015625 89.878906 77.417969 C 91.679688 75.820312 93.519531 74.265625 95.394531 72.757812 C 97.273438 71.253906 99.183594 69.792969 101.132812 68.378906 C 103.082031 66.964844 105.066406 65.597656 107.082031 64.28125 C 109.097656 62.964844 111.144531 61.699219 113.222656 60.484375 C 115.296875 59.269531 117.40625 58.105469 119.539062 56.992188 C 121.675781 55.878906 123.835938 54.820312 126.023438 53.8125 C 128.210938 52.804688 130.421875 51.855469 132.65625 50.957031 C 134.890625 50.058594 137.144531 49.214844 139.417969 48.429688 C 141.695312 47.640625 143.988281 46.910156 146.296875 46.234375 C 148.609375 45.5625 150.9375 44.945312 153.277344 44.382812 C 155.617188 43.824219 157.972656 43.320312 160.339844 42.875 C 162.703125 42.429688 165.078125 42.042969 167.464844 41.714844 C 169.851562 41.386719 172.242188 41.117188 174.640625 40.90625 C 177.039062 40.695312 179.441406 40.542969 181.847656 40.453125 C 184.253906 40.359375 186.660156 40.324219 189.066406 40.351562 C 191.472656 40.375 193.878906 40.460938 196.28125 40.605469 C 198.683594 40.746094 201.082031 40.949219 203.476562 41.210938 C 205.871094 41.472656 208.253906 41.792969 210.632812 42.167969 C 213.011719 42.546875 215.378906 42.984375 217.734375 43.480469 C 220.089844 43.972656 222.433594 44.527344 224.761719 45.136719 C 227.089844 45.746094 229.402344 46.410156 231.699219 47.132812 C 233.996094 47.855469 236.273438 48.636719 238.53125 49.472656 C 240.789062 50.304688 243.027344 51.195312 245.242188 52.140625 C 247.457031 53.085938 249.644531 54.082031 251.8125 55.136719 C 253.976562 56.1875 256.113281 57.292969 258.226562 58.449219 C 260.335938 59.605469 262.417969 60.816406 264.472656 62.074219 C 266.523438 63.332031 268.542969 64.644531 270.53125 66 C 272.519531 67.359375 274.472656 68.765625 276.390625 70.21875 C 278.308594 71.675781 280.191406 73.175781 282.035156 74.722656 C 283.878906 76.269531 285.683594 77.859375 287.453125 79.496094 C 289.21875 81.132812 290.945312 82.808594 292.628906 84.53125 C 294.3125 86.25 295.953125 88.011719 297.550781 89.8125 C 299.152344 91.613281 300.703125 93.449219 302.210938 95.328125 C 303.71875 97.203125 305.179688 99.117188 306.59375 101.066406 C 308.007812 103.015625 309.371094 104.996094 310.6875 107.011719 C 312.003906 109.027344 313.269531 111.074219 314.488281 113.152344 C 315.703125 115.230469 316.867188 117.339844 317.980469 119.472656 C 319.09375 121.609375 320.152344 123.769531 321.15625 125.957031 C 322.164062 128.144531 323.117188 130.355469 324.015625 132.585938 C 324.914062 134.820312 325.753906 137.074219 326.542969 139.351562 C 327.328125 141.625 328.058594 143.917969 328.734375 146.230469 C 329.410156 148.542969 330.027344 150.867188 330.585938 153.210938 Z M 330.585938 153.210938 " fill-opacity="1" fill-rule="nonzero"/><path fill="#ffffff" d="M 294.394531 187.496094 C 294.394531 189.246094 294.351562 190.992188 294.265625 192.742188 C 294.179688 194.488281 294.050781 196.234375 293.878906 197.972656 C 293.707031 199.714844 293.496094 201.449219 293.238281 203.179688 C 292.980469 204.910156 292.683594 206.636719 292.339844 208.351562 C 292 210.066406 291.617188 211.773438 291.191406 213.46875 C 290.765625 215.167969 290.300781 216.851562 289.792969 218.527344 C 289.285156 220.203125 288.734375 221.863281 288.144531 223.507812 C 287.558594 225.15625 286.925781 226.789062 286.257812 228.40625 C 285.589844 230.019531 284.878906 231.621094 284.132812 233.199219 C 283.382812 234.78125 282.597656 236.34375 281.773438 237.886719 C 280.949219 239.429688 280.085938 240.953125 279.1875 242.453125 C 278.285156 243.953125 277.351562 245.429688 276.378906 246.886719 C 275.40625 248.339844 274.398438 249.769531 273.359375 251.175781 C 272.316406 252.582031 271.238281 253.960938 270.128906 255.3125 C 269.019531 256.664062 267.878906 257.988281 266.703125 259.285156 C 265.527344 260.582031 264.320312 261.847656 263.085938 263.085938 C 261.847656 264.320312 260.582031 265.527344 259.285156 266.703125 C 257.988281 267.878906 256.664062 269.019531 255.3125 270.128906 C 253.960938 271.238281 252.582031 272.316406 251.175781 273.359375 C 249.769531 274.398438 248.339844 275.40625 246.886719 276.378906 C 245.429688 277.351562 243.953125 278.285156 242.453125 279.1875 C 240.953125 280.085938 239.429688 280.949219 237.886719 281.773438 C 236.34375 282.597656 234.78125 283.382812 233.199219 284.132812 C 231.621094 284.878906 230.019531 285.589844 228.40625 286.257812 C 226.789062 286.925781 225.15625 287.558594 223.507812 288.144531 C 221.863281 288.734375 220.203125 289.285156 218.527344 289.792969 C 216.851562 290.300781 215.167969 290.765625 213.46875 291.191406 C 211.773438 291.617188 210.066406 292 208.351562 292.339844 C 206.636719 292.683594 204.910156 292.980469 203.179688 293.238281 C 201.449219 293.496094 199.714844 293.707031 197.972656 293.878906 C 196.234375 294.050781 194.488281 294.179688 192.742188 294.265625 C 190.992188 294.351562 189.246094 294.394531 187.496094 294.394531 C 185.746094 294.394531 184 294.351562 182.25 294.265625 C 180.503906 294.179688 178.757812 294.050781 177.019531 293.878906 C 175.277344 293.707031 173.542969 293.496094 171.8125 293.238281 C 170.078125 292.980469 168.355469 292.683594 166.640625 292.339844 C 164.925781 292 163.21875 291.617188 161.523438 291.191406 C 159.824219 290.765625 158.140625 290.300781 156.464844 289.792969 C 154.789062 289.285156 153.128906 288.734375 151.484375 288.144531 C 149.835938 287.558594 148.203125 286.925781 146.585938 286.257812 C 144.972656 285.589844 143.371094 284.878906 141.789062 284.132812 C 140.210938 283.382812 138.648438 282.597656 137.105469 281.773438 C 135.5625 280.949219 134.039062 280.085938 132.539062 279.1875 C 131.039062 278.285156 129.5625 277.351562 128.105469 276.378906 C 126.652344 275.40625 125.222656 274.398438 123.816406 273.359375 C 122.410156 272.316406 121.03125 271.238281 119.679688 270.128906 C 118.328125 269.019531 117.003906 267.878906 115.707031 266.703125 C 114.410156 265.527344 113.144531 264.320312 111.90625 263.085938 C 110.667969 261.847656 109.464844 260.582031 108.289062 259.285156 C 107.113281 257.988281 105.972656 256.664062 104.863281 255.3125 C 103.75 253.960938 102.675781 252.582031 101.632812 251.175781 C 100.589844 249.769531 99.585938 248.339844 98.613281 246.886719 C 97.640625 245.429688 96.703125 243.953125 95.804688 242.453125 C 94.90625 240.953125 94.042969 239.429688 93.21875 237.886719 C 92.394531 236.34375 91.609375 234.78125 90.859375 233.199219 C 90.113281 231.621094 89.402344 230.019531 88.734375 228.40625 C 88.066406 226.789062 87.433594 225.15625 86.847656 223.507812 C 86.257812 221.863281 85.707031 220.203125 85.199219 218.527344 C 84.691406 216.851562 84.226562 215.167969 83.800781 213.46875 C 83.375 211.773438 82.992188 210.066406 82.652344 208.351562 C 82.308594 206.636719 82.011719 204.910156 81.753906 203.179688 C 81.496094 201.449219 81.28125 199.714844 81.113281 197.972656 C 80.941406 196.234375 80.8125 194.488281 80.726562 192.742188 C 80.640625 190.992188 80.597656 189.246094 80.597656 187.496094 C 80.597656 185.746094 80.640625 184 80.726562 182.25 C 80.8125 180.503906 80.941406 178.757812 81.113281 177.019531 C 81.28125 175.277344 81.496094 173.542969 81.753906 171.8125 C 82.011719 170.078125 82.308594 168.355469 82.652344 166.640625 C 82.992188 164.925781 83.375 163.21875 83.800781 161.523438 C 84.226562 159.824219 84.691406 158.140625 85.199219 156.464844 C 85.707031 154.789062 86.257812 153.128906 86.84375 151.484375 C 87.433594 149.835938 88.066406 148.203125 88.734375 146.585938 C 89.402344 144.972656 90.113281 143.371094 90.859375 141.789062 C 91.609375 140.210938 92.394531 138.648438 93.21875 137.105469 C 94.042969 135.5625 94.90625 134.039062 95.804688 132.539062 C 96.703125 131.039062 97.640625 129.5625 98.613281 128.105469 C 99.585938 126.652344 100.589844 125.222656 101.632812 123.816406 C 102.675781 122.410156 103.75 121.03125 104.863281 119.679688 C 105.972656 118.328125 107.113281 117.003906 108.289062 115.707031 C 109.464844 114.410156 110.667969 113.144531 111.90625 111.90625 C 113.144531 110.667969 114.410156 109.464844 115.707031 108.289062 C 117.003906 107.113281 118.328125 105.972656 119.679688 104.863281 C 121.03125 103.75 122.410156 102.675781 123.816406 101.632812 C 125.222656 100.589844 126.652344 99.585938 128.105469 98.613281 C 129.5625 97.640625 131.039062 96.703125 132.539062 95.804688 C 134.039062 94.90625 135.5625 94.042969 137.105469 93.21875 C 138.648438 92.394531 140.210938 91.609375 141.789062 90.859375 C 143.371094 90.113281 144.972656 89.402344 146.585938 88.734375 C 148.203125 88.066406 149.835938 87.433594 151.484375 86.847656 C 153.128906 86.257812 154.789062 85.707031 156.464844 85.199219 C 158.140625 84.691406 159.824219 84.226562 161.523438 83.800781 C 163.21875 83.375 164.925781 82.992188 166.640625 82.652344 C 168.355469 82.308594 170.078125 82.011719 171.8125 81.753906 C 173.542969 81.496094 175.277344 81.28125 177.019531 81.113281 C 178.757812 80.941406 180.503906 80.8125 182.25 80.726562 C 184 80.640625 185.746094 80.597656 187.496094 80.597656 C 189.246094 80.597656 190.992188 80.640625 192.742188 80.726562 C 194.488281 80.8125 196.234375 80.941406 197.972656 81.113281 C 199.714844 81.28125 201.449219 81.496094 203.179688 81.753906 C 204.910156 82.011719 206.636719 82.308594 208.351562 82.652344 C 210.066406 82.992188 211.773438 83.375 213.46875 83.800781 C 215.167969 84.226562 216.851562 84.691406 218.527344 85.199219 C 220.203125 85.707031 221.863281 86.257812 223.507812 86.847656 C 225.15625 87.433594 226.789062 88.066406 228.40625 88.734375 C 230.019531 89.402344 231.621094 90.113281 233.199219 90.859375 C 234.78125 91.609375 236.34375 92.394531 237.886719 93.21875 C 239.429688 94.042969 240.953125 94.90625 242.453125 95.804688 C 243.953125 96.703125 245.429688 97.640625 246.886719 98.613281 C 248.339844 99.585938 249.769531 100.589844 251.175781 101.632812 C 252.582031 102.675781 253.960938 103.75 255.3125 104.863281 C 256.664062 105.972656 257.988281 107.113281 259.285156 108.289062 C 260.582031 109.464844 261.847656 110.667969 263.085938 111.90625 C 264.320312 113.144531 265.527344 114.410156 266.703125 115.707031 C 267.878906 117.003906 269.019531 118.328125 270.128906 119.679688 C 271.238281 121.03125 272.316406 122.410156 273.359375 123.816406 C 274.398438 125.222656 275.40625 126.652344 276.378906 128.105469 C 277.351562 129.5625 278.285156 131.039062 279.1875 132.539062 C 280.085938 134.039062 280.949219 135.5625 281.773438 137.105469 C 282.597656 138.648438 283.382812 140.210938 284.132812 141.789062 C 284.878906 143.371094 285.589844 144.972656 286.257812 146.585938 C 286.925781 148.203125 287.558594 149.835938 288.144531 151.484375 C 288.734375 153.128906 289.285156 154.789062 289.792969 156.464844 C 290.300781 158.140625 290.765625 159.824219 291.191406 161.523438 C 291.617188 163.21875 292 164.925781 292.339844 166.640625 C 292.683594 168.355469 292.980469 170.078125 293.238281 171.8125 C 293.496094 173.542969 293.707031 175.277344 293.878906 177.019531 C 294.050781 178.757812 294.179688 180.503906 294.265625 182.25 C 294.351562 184 294.394531 185.746094 294.394531 187.496094 Z M 294.394531 187.496094 " fill-opacity="1" fill-rule="nonzero"/><path fill="#78dcf2" d="M 265.453125 187.496094 C 265.453125 188.773438 265.421875 190.046875 265.359375 191.320312 C 265.296875 192.59375 265.203125 193.867188 265.078125 195.136719 C 264.953125 196.40625 264.796875 197.671875 264.609375 198.933594 C 264.421875 200.195312 264.203125 201.453125 263.957031 202.703125 C 263.707031 203.957031 263.425781 205.199219 263.117188 206.4375 C 262.808594 207.675781 262.46875 208.90625 262.097656 210.125 C 261.726562 211.347656 261.324219 212.558594 260.894531 213.757812 C 260.464844 214.960938 260.007812 216.148438 259.519531 217.328125 C 259.03125 218.507812 258.515625 219.671875 257.96875 220.828125 C 257.421875 221.980469 256.847656 223.121094 256.25 224.246094 C 255.648438 225.371094 255.019531 226.480469 254.363281 227.574219 C 253.707031 228.667969 253.023438 229.746094 252.316406 230.808594 C 251.605469 231.867188 250.871094 232.910156 250.113281 233.933594 C 249.351562 234.960938 248.566406 235.964844 247.757812 236.953125 C 246.949219 237.9375 246.117188 238.902344 245.257812 239.847656 C 244.402344 240.792969 243.523438 241.71875 242.621094 242.621094 C 241.71875 243.523438 240.792969 244.402344 239.847656 245.257812 C 238.902344 246.117188 237.9375 246.949219 236.953125 247.757812 C 235.964844 248.566406 234.960938 249.351562 233.933594 250.113281 C 232.910156 250.871094 231.867188 251.605469 230.808594 252.316406 C 229.746094 253.023438 228.667969 253.707031 227.574219 254.363281 C 226.480469 255.019531 225.371094 255.648438 224.246094 256.25 C 223.121094 256.847656 221.980469 257.421875 220.828125 257.96875 C 219.671875 258.515625 218.507812 259.03125 217.328125 259.519531 C 216.148438 260.007812 214.960938 260.464844 213.757812 260.894531 C 212.558594 261.324219 211.347656 261.726562 210.125 262.097656 C 208.90625 262.46875 207.675781 262.808594 206.4375 263.117188 C 205.199219 263.425781 203.957031 263.707031 202.703125 263.957031 C 201.453125 264.203125 200.195312 264.421875 198.933594 264.609375 C 197.671875 264.796875 196.40625 264.953125 195.136719 265.078125 C 193.867188 265.203125 192.59375 265.296875 191.320312 265.359375 C 190.046875 265.421875 188.773438 265.453125 187.496094 265.453125 C 186.21875 265.453125 184.945312 265.421875 183.671875 265.359375 C 182.398438 265.296875 181.125 265.203125 179.855469 265.078125 C 178.585938 264.953125 177.320312 264.796875 176.058594 264.609375 C 174.796875 264.421875 173.539062 264.203125 172.289062 263.957031 C 171.035156 263.707031 169.792969 263.425781 168.554688 263.117188 C 167.316406 262.808594 166.085938 262.46875 164.867188 262.097656 C 163.644531 261.726562 162.433594 261.324219 161.234375 260.894531 C 160.03125 260.464844 158.839844 260.007812 157.664062 259.519531 C 156.484375 259.03125 155.316406 258.515625 154.164062 257.96875 C 153.011719 257.421875 151.871094 256.847656 150.746094 256.25 C 149.621094 255.648438 148.511719 255.019531 147.417969 254.363281 C 146.324219 253.707031 145.246094 253.023438 144.183594 252.316406 C 143.125 251.605469 142.082031 250.871094 141.058594 250.113281 C 140.03125 249.351562 139.027344 248.566406 138.039062 247.757812 C 137.054688 246.949219 136.089844 246.117188 135.144531 245.257812 C 134.199219 244.402344 133.273438 243.523438 132.371094 242.621094 C 131.46875 241.71875 130.589844 240.792969 129.734375 239.847656 C 128.875 238.902344 128.042969 237.9375 127.234375 236.953125 C 126.425781 235.964844 125.640625 234.960938 124.878906 233.933594 C 124.121094 232.910156 123.386719 231.867188 122.675781 230.808594 C 121.96875 229.746094 121.285156 228.667969 120.628906 227.574219 C 119.972656 226.480469 119.34375 225.371094 118.742188 224.246094 C 118.140625 223.121094 117.570312 221.980469 117.023438 220.828125 C 116.476562 219.671875 115.960938 218.507812 115.472656 217.328125 C 114.984375 216.148438 114.527344 214.960938 114.09375 213.757812 C 113.664062 212.558594 113.265625 211.347656 112.894531 210.125 C 112.523438 208.90625 112.183594 207.675781 111.875 206.4375 C 111.566406 205.199219 111.285156 203.957031 111.035156 202.703125 C 110.789062 201.453125 110.570312 200.195312 110.382812 198.933594 C 110.195312 197.671875 110.039062 196.40625 109.914062 195.136719 C 109.789062 193.867188 109.695312 192.59375 109.632812 191.320312 C 109.570312 190.046875 109.539062 188.773438 109.539062 187.496094 C 109.539062 186.21875 109.570312 184.945312 109.632812 183.671875 C 109.695312 182.398438 109.789062 181.125 109.914062 179.855469 C 110.039062 178.585938 110.195312 177.320312 110.382812 176.058594 C 110.570312 174.796875 110.789062 173.539062 111.035156 172.289062 C 111.285156 171.035156 111.566406 169.792969 111.875 168.554688 C 112.183594 167.316406 112.523438 166.085938 112.894531 164.867188 C 113.265625 163.644531 113.664062 162.433594 114.09375 161.234375 C 114.527344 160.03125 114.984375 158.839844 115.472656 157.664062 C 115.960938 156.484375 116.476562 155.316406 117.023438 154.164062 C 117.570312 153.011719 118.140625 151.871094 118.742188 150.746094 C 119.34375 149.621094 119.972656 148.511719 120.628906 147.417969 C 121.285156 146.324219 121.96875 145.246094 122.675781 144.183594 C 123.386719 143.125 124.121094 142.082031 124.878906 141.058594 C 125.640625 140.03125 126.425781 139.027344 127.234375 138.039062 C 128.042969 137.054688 128.875 136.089844 129.734375 135.144531 C 130.589844 134.199219 131.46875 133.273438 132.371094 132.371094 C 133.273438 131.46875 134.199219 130.589844 135.144531 129.734375 C 136.089844 128.875 137.054688 128.042969 138.039062 127.234375 C 139.027344 126.425781 140.03125 125.640625 141.058594 124.878906 C 142.082031 124.121094 143.125 123.386719 144.183594 122.675781 C 145.246094 121.96875 146.324219 121.285156 147.417969 120.628906 C 148.511719 119.972656 149.621094 119.34375 150.746094 118.742188 C 151.871094 118.140625 153.011719 117.570312 154.164062 117.023438 C 155.316406 116.476562 156.484375 115.960938 157.664062 115.472656 C 158.839844 114.984375 160.03125 114.527344 161.234375 114.09375 C 162.433594 113.664062 163.644531 113.265625 164.867188 112.894531 C 166.085938 112.523438 167.316406 112.183594 168.554688 111.875 C 169.792969 111.566406 171.035156 111.285156 172.289062 111.035156 C 173.539062 110.789062 174.796875 110.570312 176.058594 110.382812 C 177.320312 110.195312 178.585938 110.039062 179.855469 109.914062 C 181.125 109.789062 182.398438 109.695312 183.671875 109.632812 C 184.945312 109.570312 186.21875 109.539062 187.496094 109.539062 C 188.773438 109.539062 190.046875 109.570312 191.320312 109.632812 C 192.59375 109.695312 193.867188 109.789062 195.136719 109.914062 C 196.40625 110.039062 197.671875 110.195312 198.933594 110.382812 C 200.195312 110.570312 201.453125 110.789062 202.703125 111.035156 C 203.957031 111.285156 205.199219 111.566406 206.4375 111.875 C 207.675781 112.183594 208.90625 112.523438 210.125 112.894531 C 211.347656 113.265625 212.558594 113.664062 213.757812 114.09375 C 214.960938 114.527344 216.148438 114.984375 217.328125 115.472656 C 218.507812 115.960938 219.671875 116.476562 220.828125 117.023438 C 221.980469 117.570312 223.121094 118.140625 224.246094 118.742188 C 225.371094 119.34375 226.480469 119.972656 227.574219 120.628906 C 228.667969 121.285156 229.746094 121.96875 230.808594 122.675781 C 231.867188 123.386719 232.910156 124.121094 233.933594 124.878906 C 234.960938 125.640625 235.964844 126.425781 236.953125 127.234375 C 237.9375 128.042969 238.902344 128.875 239.847656 129.734375 C 240.792969 130.589844 241.71875 131.46875 242.621094 132.371094 C 243.523438 133.273438 244.402344 134.199219 245.257812 135.144531 C 246.117188 136.089844 246.949219 137.054688 247.757812 138.039062 C 248.566406 139.027344 249.351562 140.03125 250.113281 141.058594 C 250.871094 142.082031 251.605469 143.125 252.316406 144.183594 C 253.023438 145.246094 253.707031 146.324219 254.363281 147.417969 C 255.019531 148.511719 255.648438 149.621094 256.25 150.746094 C 256.847656 151.871094 257.421875 153.011719 257.96875 154.164062 C 258.515625 155.316406 259.03125 156.484375 259.519531 157.664062 C 260.007812 158.839844 260.464844 160.03125 260.894531 161.234375 C 261.324219 162.433594 261.726562 163.644531 262.097656 164.867188 C 262.46875 166.085938 262.808594 167.316406 263.117188 168.554688 C 263.425781 169.792969 263.707031 171.035156 263.957031 172.289062 C 264.203125 173.539062 264.421875 174.796875 264.609375 176.058594 C 264.796875 177.320312 264.953125 178.585938 265.078125 179.855469 C 265.203125 181.125 265.296875 182.398438 265.359375 183.671875 C 265.421875 184.945312 265.453125 186.21875 265.453125 187.496094 Z M 265.453125 187.496094 " fill-opacity="1" fill-rule="nonzero"/><path fill="#000000" d="M 231.359375 177.136719 C 231.699219 178.574219 231.96875 180.023438 232.167969 181.488281 C 232.367188 182.953125 232.492188 184.421875 232.546875 185.898438 C 232.597656 187.375 232.578125 188.847656 232.488281 190.324219 C 232.398438 191.796875 232.234375 193.265625 232 194.722656 C 231.761719 196.179688 231.457031 197.625 231.078125 199.050781 C 230.703125 200.480469 230.257812 201.886719 229.742188 203.269531 C 229.226562 204.65625 228.644531 206.011719 227.996094 207.339844 C 227.347656 208.664062 226.632812 209.957031 225.859375 211.214844 C 225.082031 212.472656 224.246094 213.6875 223.351562 214.863281 C 222.457031 216.039062 221.507812 217.167969 220.5 218.25 C 219.496094 219.332031 218.4375 220.359375 217.332031 221.339844 C 216.222656 222.316406 215.070312 223.238281 213.875 224.101562 C 212.675781 224.96875 211.4375 225.769531 210.164062 226.515625 C 208.886719 227.257812 207.574219 227.9375 206.234375 228.550781 C 204.890625 229.164062 203.519531 229.710938 202.121094 230.191406 C 200.726562 230.671875 199.308594 231.082031 197.871094 231.421875 C 196.433594 231.761719 194.980469 232.03125 193.519531 232.230469 C 192.054688 232.429688 190.585938 232.554688 189.109375 232.609375 C 187.632812 232.660156 186.15625 232.644531 184.683594 232.550781 C 183.207031 232.460938 181.742188 232.296875 180.285156 232.0625 C 178.824219 231.828125 177.382812 231.519531 175.953125 231.144531 C 174.523438 230.765625 173.117188 230.320312 171.734375 229.804688 C 170.351562 229.289062 168.996094 228.707031 167.667969 228.058594 C 166.339844 227.410156 165.046875 226.695312 163.789062 225.921875 C 162.535156 225.144531 161.316406 224.3125 160.140625 223.414062 C 158.96875 222.519531 157.839844 221.570312 156.757812 220.5625 C 155.675781 219.558594 154.644531 218.5 153.667969 217.394531 C 152.6875 216.289062 151.769531 215.136719 150.902344 213.9375 C 150.039062 212.738281 149.234375 211.503906 148.492188 210.226562 C 147.75 208.949219 147.070312 207.640625 146.453125 206.296875 C 145.839844 204.953125 145.292969 203.582031 144.8125 202.183594 C 144.332031 200.789062 143.921875 199.371094 143.582031 197.933594 C 143.242188 196.496094 142.972656 195.046875 142.773438 193.582031 C 142.578125 192.117188 142.449219 190.648438 142.398438 189.171875 C 142.34375 187.695312 142.363281 186.21875 142.453125 184.746094 C 142.546875 183.269531 142.707031 181.804688 142.945312 180.347656 C 143.179688 178.886719 143.484375 177.445312 143.863281 176.015625 C 144.238281 174.589844 144.6875 173.183594 145.203125 171.796875 C 145.71875 170.414062 146.300781 169.058594 146.949219 167.730469 C 147.597656 166.402344 148.308594 165.109375 149.085938 163.855469 C 149.859375 162.597656 150.695312 161.378906 151.589844 160.207031 C 152.484375 159.03125 153.4375 157.902344 154.441406 156.820312 C 155.449219 155.738281 156.503906 154.707031 157.609375 153.730469 C 158.71875 152.753906 159.871094 151.832031 161.066406 150.964844 C 162.265625 150.101562 163.503906 149.296875 164.78125 148.554688 C 166.054688 147.8125 167.367188 147.132812 168.710938 146.519531 C 170.054688 145.902344 171.421875 145.355469 172.820312 144.875 C 174.21875 144.398438 175.636719 143.988281 177.070312 143.644531 C 178.507812 143.304688 179.960938 143.035156 181.425781 142.839844 C 182.886719 142.640625 184.359375 142.515625 185.835938 142.460938 C 187.308594 142.40625 188.785156 142.425781 190.261719 142.515625 C 191.734375 142.609375 193.199219 142.773438 194.660156 143.007812 C 196.117188 143.242188 197.5625 143.550781 198.988281 143.925781 C 200.417969 144.304688 201.824219 144.75 203.207031 145.265625 C 204.59375 145.78125 205.949219 146.363281 207.273438 147.011719 C 208.601562 147.660156 209.894531 148.371094 211.152344 149.148438 C 212.410156 149.921875 213.625 150.757812 214.800781 151.652344 C 215.976562 152.546875 217.105469 153.5 218.1875 154.503906 C 219.269531 155.511719 220.296875 156.566406 221.277344 157.675781 C 222.253906 158.78125 223.175781 159.933594 224.039062 161.132812 C 224.902344 162.328125 225.707031 163.566406 226.453125 164.84375 C 227.195312 166.121094 227.875 167.429688 228.488281 168.773438 C 229.101562 170.117188 229.648438 171.488281 230.128906 172.882812 C 230.609375 174.28125 231.019531 175.699219 231.359375 177.136719 Z M 231.359375 177.136719 " fill-opacity="1" fill-rule="nonzero"/><path fill="#000000" d="M 340.214844 32.3125 C 339.703125 32.828125 339.703125 33.636719 340.214844 34.152344 C 340.730469 34.667969 341.539062 34.667969 342.054688 34.152344 L 403.429688 -27.222656 C 403.679688 -27.472656 403.804688 -27.8125 403.804688 -28.140625 C 403.804688 -28.46875 403.679688 -28.8125 403.429688 -29.0625 C 402.914062 -29.574219 402.105469 -29.574219 401.589844 -29.0625 Z M 340.214844 32.3125 " fill-opacity="1" fill-rule="nonzero"/><path fill="#000000" d="M -73.496094 446.664062 C -74.007812 447.175781 -74.007812 447.988281 -73.496094 448.5 C -72.980469 449.015625 -72.167969 449.015625 -71.65625 448.5 L 63.421875 313.425781 C 63.671875 313.175781 63.796875 312.832031 63.796875 312.503906 C 63.796875 312.179688 63.671875 311.835938 63.421875 311.585938 C 62.90625 311.070312 62.097656 311.070312 61.582031 311.585938 Z M -73.496094 446.664062 " fill-opacity="1" fill-rule="nonzero"/><path fill="#000000" d="M 74.503906 346.605469 L 34.464844 403.789062 C 34.058594 404.378906 34.199219 405.191406 34.777344 405.597656 C 35.367188 406 36.179688 405.859375 36.585938 405.285156 L 76.621094 348.101562 C 76.777344 347.867188 76.855469 347.617188 76.855469 347.355469 C 76.855469 346.949219 76.667969 346.542969 76.296875 346.292969 C 75.703125 345.886719 74.894531 346.027344 74.488281 346.605469 Z M 74.503906 346.605469 " fill-opacity="1" fill-rule="nonzero"/><path fill="#000000" d="M 342.226562 -34.515625 L 302.1875 22.667969 C 301.78125 23.257812 301.921875 24.070312 302.515625 24.472656 C 303.105469 24.878906 303.917969 24.738281 304.324219 24.164062 L 344.363281 -33.003906 C 344.515625 -33.238281 344.59375 -33.488281 344.59375 -33.753906 C 344.59375 -34.15625 344.40625 -34.5625 344.035156 -34.8125 C 343.441406 -35.21875 342.632812 -35.078125 342.226562 -34.5 Z M 342.226562 -34.515625 " fill-opacity="1" fill-rule="nonzero"/><path fill="#000000" d="M 103.851562 363.8125 L 98.410156 375.46875 C 98.113281 376.125 98.394531 376.886719 99.035156 377.199219 C 99.6875 377.496094 100.453125 377.214844 100.765625 376.574219 L 106.203125 364.917969 C 106.28125 364.746094 106.328125 364.558594 106.328125 364.371094 C 106.328125 363.890625 106.046875 363.421875 105.578125 363.1875 C 104.925781 362.890625 104.160156 363.171875 103.851562 363.8125 Z M 103.851562 363.8125 " fill-opacity="1" fill-rule="nonzero"/><path fill="#000000" d="M 140.492188 357.921875 L 107.214844 482.121094 C 107.03125 482.804688 107.433594 483.523438 108.136719 483.707031 C 108.820312 483.894531 109.539062 483.492188 109.726562 482.789062 L 143 358.589844 C 143.03125 358.480469 143.046875 358.371094 143.046875 358.246094 C 143.046875 357.671875 142.65625 357.15625 142.082031 357 C 141.394531 356.8125 140.679688 357.234375 140.492188 357.921875 Z M 140.492188 357.921875 " fill-opacity="1" fill-rule="nonzero"/><path fill="#000000" d="M 171.101562 358.511719 L 164.898438 429.410156 C 164.835938 430.125 165.363281 430.75 166.082031 430.8125 C 166.796875 430.875 167.421875 430.34375 167.484375 429.628906 L 173.6875 358.730469 C 173.6875 358.730469 173.6875 358.652344 173.6875 358.621094 C 173.6875 357.953125 173.171875 357.390625 172.503906 357.328125 C 171.785156 357.265625 171.164062 357.796875 171.101562 358.511719 Z M 171.101562 358.511719 " fill-opacity="1" fill-rule="nonzero"/><path fill="#000000" d="M 162.324219 -89.703125 L 171.054688 10.027344 C 171.117188 10.742188 171.738281 11.273438 172.457031 11.210938 C 173.125 11.148438 173.640625 10.589844 173.640625 9.917969 C 173.640625 9.886719 173.640625 9.839844 173.640625 9.808594 L 164.914062 -89.921875 C 164.851562 -90.636719 164.226562 -91.167969 163.511719 -91.105469 C 162.792969 -91.042969 162.261719 -90.40625 162.324219 -89.703125 Z M 162.324219 -89.703125 " fill-opacity="1" fill-rule="nonzero"/><path fill="#000000" d="M 134.785156 -4.21875 L 143.21875 27.28125 C 143.40625 27.964844 144.121094 28.386719 144.808594 28.199219 C 145.382812 28.042969 145.773438 27.511719 145.773438 26.953125 C 145.773438 26.84375 145.773438 26.734375 145.726562 26.609375 L 137.296875 -4.886719 C 137.109375 -5.574219 136.390625 -5.996094 135.707031 -5.808594 C 135.019531 -5.621094 134.601562 -4.902344 134.785156 -4.21875 Z M 134.785156 -4.21875 " fill-opacity="1" fill-rule="nonzero"/><path fill="#000000" d="M 266.480469 360.304688 L 273.277344 374.878906 C 273.574219 375.53125 274.351562 375.8125 275.007812 375.5 C 275.472656 375.28125 275.753906 374.816406 275.753906 374.316406 C 275.753906 374.128906 275.722656 373.941406 275.628906 373.769531 L 268.835938 359.199219 C 268.539062 358.542969 267.761719 358.261719 267.105469 358.574219 C 266.449219 358.871094 266.171875 359.652344 266.480469 360.304688 Z M 266.480469 360.304688 " fill-opacity="1" fill-rule="nonzero"/><path fill="#000000" d="M -5.621094 -88.582031 L 77.339844 29.914062 C 77.746094 30.507812 78.554688 30.644531 79.148438 30.226562 C 79.507812 29.976562 79.707031 29.570312 79.707031 29.164062 C 79.707031 28.902344 79.628906 28.652344 79.476562 28.417969 L -3.484375 -90.078125 C -3.890625 -90.667969 -4.699219 -90.808594 -5.292969 -90.390625 C -5.886719 -89.984375 -6.027344 -89.171875 -5.605469 -88.582031 Z M -5.621094 -88.582031 " fill-opacity="1" fill-rule="nonzero"/><path fill="#000000" d="M 316.011719 373.304688 L 348.929688 420.324219 C 349.332031 420.917969 350.144531 421.054688 350.734375 420.636719 C 351.09375 420.386719 351.296875 419.980469 351.296875 419.574219 C 351.296875 419.328125 351.21875 419.0625 351.0625 418.828125 L 318.148438 371.808594 C 317.742188 371.214844 316.929688 371.074219 316.339844 371.496094 C 315.746094 371.902344 315.605469 372.710938 316.027344 373.304688 Z M 316.011719 373.304688 " fill-opacity="1" fill-rule="nonzero"/><path fill="#000000" d="M 0.535156 2.359375 L 8.65625 10.480469 C 9.167969 10.992188 9.980469 10.992188 10.496094 10.480469 C 10.742188 10.230469 10.867188 9.886719 10.867188 9.558594 C 10.867188 9.230469 10.742188 8.890625 10.496094 8.640625 L 2.375 0.519531 C 1.859375 0.00390625 1.050781 0.00390625 0.535156 0.519531 C 0.0195312 1.035156 0.0195312 1.84375 0.535156 2.359375 Z M 0.535156 2.359375 " fill-opacity="1" fill-rule="nonzero"/><path fill="#000000" d="M 31.050781 32.050781 L 44.035156 45.03125 C 44.546875 45.546875 45.359375 45.546875 45.871094 45.03125 C 46.121094 44.78125 46.246094 44.4375 46.246094 44.113281 C 46.246094 43.785156 46.121094 43.441406 45.871094 43.191406 L 32.890625 30.210938 C 32.375 29.695312 31.566406 29.695312 31.050781 30.210938 C 30.535156 30.722656 30.535156 31.535156 31.050781 32.050781 Z M 31.050781 32.050781 " fill-opacity="1" fill-rule="nonzero"/><path fill="#000000" d="M 364.015625 311.085938 C 363.609375 311.679688 363.75 312.488281 364.324219 312.894531 L 469.652344 386.644531 C 470.242188 387.050781 471.054688 386.910156 471.460938 386.332031 C 471.613281 386.097656 471.691406 385.847656 471.691406 385.585938 C 471.691406 385.179688 471.503906 384.773438 471.132812 384.523438 L 365.808594 310.773438 C 365.214844 310.371094 364.402344 310.511719 364 311.085938 Z M 364.015625 311.085938 " fill-opacity="1" fill-rule="nonzero"/><path fill="#000000" d="M -12.632812 92.613281 C -12.929688 93.269531 -12.648438 94.03125 -12.011719 94.34375 L 0.0507812 99.96875 C 0.707031 100.265625 1.46875 99.984375 1.78125 99.347656 C 1.859375 99.175781 1.90625 98.988281 1.90625 98.800781 C 1.90625 98.316406 1.625 97.851562 1.160156 97.617188 L -10.902344 91.988281 C -11.558594 91.695312 -12.324219 91.972656 -12.632812 92.613281 Z M -12.632812 92.613281 " fill-opacity="1" fill-rule="nonzero"/><path fill="#000000" d="M 363.1875 269.425781 C 362.890625 270.082031 363.171875 270.847656 363.8125 271.15625 L 481.589844 326.078125 C 482.242188 326.375 483.007812 326.09375 483.320312 325.457031 C 483.398438 325.285156 483.445312 325.097656 483.445312 324.910156 C 483.445312 324.429688 483.164062 323.960938 482.695312 323.726562 L 364.917969 268.804688 C 364.261719 268.507812 363.5 268.789062 363.1875 269.425781 Z M 363.1875 269.425781 " fill-opacity="1" fill-rule="nonzero"/><path fill="#000000" d="M -77.6875 116.769531 C -77.875 117.457031 -77.46875 118.171875 -76.765625 118.359375 L 7.066406 140.816406 C 7.75 141.003906 8.46875 140.601562 8.65625 139.898438 C 8.6875 139.789062 8.703125 139.679688 8.703125 139.554688 C 8.703125 138.980469 8.3125 138.464844 7.734375 138.308594 L -76.097656 115.851562 C -76.78125 115.664062 -77.5 116.070312 -77.6875 116.769531 Z M -77.6875 116.769531 " fill-opacity="1" fill-rule="nonzero"/><path fill="#000000" d="M 357 232.910156 C 356.8125 233.597656 357.21875 234.3125 357.921875 234.5 L 388.078125 242.574219 C 388.765625 242.761719 389.480469 242.355469 389.667969 241.65625 C 389.699219 241.546875 389.714844 241.4375 389.714844 241.3125 C 389.714844 240.734375 389.324219 240.222656 388.75 240.066406 L 358.589844 231.992188 C 357.90625 231.804688 357.1875 232.210938 357 232.910156 Z M 357 232.910156 " fill-opacity="1" fill-rule="nonzero"/><path fill="#000000" d="M -14.035156 239.957031 C -14.722656 240.144531 -15.144531 240.859375 -14.957031 241.546875 C -14.769531 242.230469 -14.050781 242.652344 -13.367188 242.464844 L 13.691406 235.21875 C 14.265625 235.0625 14.65625 234.53125 14.65625 233.972656 C 14.65625 233.863281 14.65625 233.753906 14.609375 233.628906 C 14.421875 232.941406 13.703125 232.523438 13.019531 232.707031 Z M -14.035156 239.957031 " fill-opacity="1" fill-rule="nonzero"/><path fill="#000000" d="M 375.65625 135.738281 C 374.972656 135.925781 374.550781 136.640625 374.738281 137.328125 C 374.925781 138.011719 375.640625 138.433594 376.328125 138.246094 L 461.484375 115.429688 C 462.0625 115.273438 462.449219 114.742188 462.449219 114.183594 C 462.449219 114.074219 462.449219 113.964844 462.402344 113.839844 C 462.21875 113.15625 461.5 112.734375 460.8125 112.921875 Z M 375.65625 135.738281 " fill-opacity="1" fill-rule="nonzero"/><path fill="#000000" d="M -41.109375 292.664062 C -41.761719 292.960938 -42.042969 293.742188 -41.730469 294.394531 C -41.433594 295.050781 -40.65625 295.332031 -40 295.019531 L 25.332031 264.550781 C 25.800781 264.332031 26.078125 263.863281 26.078125 263.363281 C 26.078125 263.179688 26.03125 262.992188 25.953125 262.820312 C 25.660156 262.164062 24.878906 261.882812 24.226562 262.195312 Z M -41.109375 292.664062 " fill-opacity="1" fill-rule="nonzero"/><path fill="#000000" d="M -57.738281 358.386719 C -58.328125 358.792969 -58.46875 359.605469 -58.050781 360.195312 C -57.644531 360.789062 -56.832031 360.929688 -56.242188 360.507812 L 18.242188 308.359375 C 18.597656 308.109375 18.800781 307.703125 18.800781 307.300781 C 18.800781 307.035156 18.722656 306.785156 18.566406 306.550781 C 18.164062 305.960938 17.351562 305.820312 16.757812 306.238281 L -57.722656 358.386719 Z M -57.738281 358.386719 " fill-opacity="1" fill-rule="nonzero"/><path fill="#000000" d="M 371.808594 56.84375 C 371.214844 57.25 371.074219 58.0625 371.496094 58.652344 C 371.902344 59.246094 372.710938 59.386719 373.304688 58.964844 L 454.550781 2.078125 C 454.90625 1.828125 455.109375 1.425781 455.109375 1.019531 C 455.109375 0.753906 455.03125 0.503906 454.875 0.269531 C 454.472656 -0.320312 453.660156 -0.460938 453.066406 -0.0429688 L 371.824219 56.84375 Z M 371.808594 56.84375 " fill-opacity="1" fill-rule="nonzero"/></svg>