<svg xmlns="http://www.w3.org/2000/svg" xmlns:xlink="http://www.w3.org/1999/xlink" width="500" zoomAndPan="magnify" viewBox="0 0 375 374.999991" height="500" preserveAspectRatio="xMidYMid meet" version="1.0"><defs><g/></defs><path stroke-linecap="butt" transform="matrix(2.058843, 0, 0, 2.058843, 8.318947, -82.028287)" fill="none" stroke-linejoin="miter" d="M 116.531171 70.593444 C 116.531171 72.282045 116.500815 74.249549 116.438204 76.499751 C 116.375592 78.719597 116.280727 80.594133 116.155505 82.125257 L 115.969569 84.235059 C 115.844347 85.766183 115.781736 87.655898 115.781736 89.9061 C 115.781736 92.156303 115.781736 94.108629 115.781736 95.764975 L 115.969569 98.06261 L 115.969569 109.594423 L 115.781736 112.265827 C 115.781736 113.796951 115.781736 115.686666 115.781736 117.936868 C 115.781736 120.187071 115.844347 122.141294 115.969569 123.79764 L 116.343338 126.469044 C 116.46856 128.12539 116.563426 130.077716 116.624139 132.327918 C 116.68675 134.578121 116.719004 136.467835 116.719004 138.000857 L 116.719004 154.311979 C 116.719004 155.968325 116.68675 157.922548 116.624139 160.17275 C 116.563426 162.421055 116.531171 164.312667 116.531171 165.843792 L 116.343338 168.703029 C 116.218116 170.266407 116.125148 172.1713 116.062537 174.421503 C 115.999926 176.641348 115.969569 178.578495 115.969569 180.234842 L 115.781736 182.530579 C 115.781736 184.21918 115.781736 186.186684 115.781736 188.436886 C 115.781736 190.656732 115.844347 192.531268 115.969569 194.062393 L 115.969569 196.545963 C 116.092894 198.078985 115.671693 199.171832 114.704068 199.828299 C 113.764902 200.452512 112.594266 200.389901 111.188364 199.640466 L 109.078562 198.467932 C 107.67266 197.843719 105.968881 196.984241 103.969122 195.891393 C 101.999721 194.796649 100.313018 193.874559 98.907115 193.125124 L 96.188279 191.764757 C 94.78048 190.984966 93.078598 190.093233 91.07884 189.093354 C 89.109438 188.063118 87.422735 187.218817 86.014936 186.56235 L 83.155699 185.437249 C 81.749796 184.780782 80.015661 183.953557 77.953291 182.953678 C 75.921279 181.921545 74.202321 181.077245 72.796419 180.422675 L 70.265416 179.109741 C 68.859514 178.453273 67.155735 177.624152 65.155976 176.624272 C 63.186575 175.594036 61.499872 174.687125 60.09397 173.905436 L 57.0469 172.1713 C 55.640997 171.421865 53.937219 170.499775 51.93746 169.406928 C 49.968059 168.312184 48.281356 167.437527 46.875453 166.78106 L 43.407182 165.094357 C 41.999382 164.312667 41.094368 163.217923 40.688345 161.812021 C 40.312679 160.406119 40.515691 159.000216 41.29738 157.594314 L 43.219349 154.499812 C 44.094006 153.093909 45.141318 151.500174 46.359387 149.718606 C 47.577456 147.937037 48.702557 146.328124 49.73469 144.889967 L 51.844492 142.03073 C 52.749506 140.75005 53.969473 139.98354 55.500597 139.734993 C 57.031721 139.484549 58.500234 139.797604 59.906137 140.672261 L 65.108544 144.328365 C 66.516343 145.235277 67.406179 146.390735 67.781845 147.796637 C 68.155614 149.202539 68.030392 150.485117 67.406179 151.640575 C 66.62449 152.672708 66.484089 153.828166 66.984977 155.108846 C 67.516223 156.391424 68.483848 157.34387 69.88975 157.968083 L 70.453249 158.155916 C 71.859151 158.812383 73.578108 159.687041 75.610121 160.781785 C 77.67249 161.844275 79.421804 162.703754 80.859961 163.360221 L 81.985062 164.109656 C 83.390964 164.766123 85.077667 165.64078 87.047069 166.733627 C 89.046827 167.796117 90.750606 168.718207 92.156508 169.499896 L 93.141209 170.063396 C 94.547111 170.717965 95.750002 170.765398 96.749881 170.203796 C 97.782014 169.60994 98.358795 168.530374 98.484017 166.968893 L 98.484017 166.219458 C 98.609239 164.688334 98.67185 162.8119 98.67185 160.593952 C 98.67185 158.343749 98.609239 156.374348 98.484017 154.687645 L 98.484017 153.186877 C 98.358795 151.500174 98.265827 149.545951 98.203216 147.328003 C 98.140605 145.0778 98.110248 143.188086 98.110248 141.656962 L 98.110248 140.108762 C 97.985026 138.577637 97.922415 136.703101 97.922415 134.485153 C 97.922415 132.23495 97.985026 130.32816 98.110248 128.764782 L 98.110248 127.078078 C 98.110248 125.391375 98.140605 123.437152 98.203216 121.219204 C 98.265827 118.969002 98.296184 117.07739 98.296184 115.546265 L 98.296184 102.46815 L 98.484017 100.546181 L 98.484017 86.906463 C 98.484017 85.250117 97.905339 83.88975 96.749881 82.82726 C 95.62478 81.734413 94.281489 81.187989 92.71811 81.187989 L 91.780842 81.187989 C 90.124496 81.313211 88.750848 80.797144 87.656103 79.639789 C 86.563256 78.484331 86.014936 77.14104 86.014936 75.609916 L 85.829 69.28051 C 85.829 67.719029 86.375423 66.375738 87.46827 65.250636 C 88.563015 64.093281 89.936663 63.45389 91.593009 63.328667 L 95.063178 63.140834 C 96.719524 63.140834 98.656671 63.10858 100.87462 63.045969 C 103.124822 62.953001 105.016434 62.905569 106.547558 62.905569 L 110.812697 63.140834 C 112.469044 63.140834 113.827513 63.687258 114.890004 64.782002 C 115.984748 65.844492 116.531171 67.202962 116.531171 68.859308 Z M 116.531171 70.593444 " stroke="#005180" stroke-width="14.4" stroke-opacity="1" stroke-miterlimit="4"/><g fill="#38b6ff" fill-opacity="1"><g transform="translate(90.157938, 350.328649)"><g><path d="M 158.117188 -286.984375 C 158.117188 -283.558594 158.054688 -279.542969 157.921875 -274.929688 C 157.789062 -270.316406 157.59375 -266.429688 157.328125 -263.269531 L 156.933594 -258.921875 C 156.667969 -255.757812 156.539062 -251.871094 156.539062 -247.257812 C 156.539062 -242.648438 156.539062 -238.628906 156.539062 -235.203125 L 156.933594 -230.457031 L 156.933594 -206.742188 L 156.539062 -201.207031 C 156.539062 -198.042969 156.539062 -194.15625 156.539062 -189.546875 C 156.539062 -184.933594 156.667969 -180.914062 156.933594 -177.488281 L 157.722656 -171.953125 C 157.988281 -168.527344 158.183594 -164.507812 158.316406 -159.898438 C 158.449219 -155.285156 158.515625 -151.398438 158.515625 -148.238281 L 158.515625 -114.636719 C 158.515625 -111.210938 158.449219 -107.191406 158.316406 -102.578125 C 158.183594 -97.96875 158.117188 -94.082031 158.117188 -90.917969 L 157.722656 -84.988281 C 157.460938 -81.828125 157.261719 -77.941406 157.132812 -73.328125 C 157 -68.714844 156.933594 -64.695312 156.933594 -61.269531 L 156.539062 -56.527344 C 156.539062 -53.101562 156.539062 -49.082031 156.539062 -44.472656 C 156.539062 -39.859375 156.667969 -35.972656 156.933594 -32.808594 L 156.933594 -27.671875 C 157.195312 -24.507812 156.339844 -22.269531 154.363281 -20.949219 C 152.386719 -19.632812 149.949219 -19.765625 147.050781 -21.347656 L 142.703125 -23.71875 C 139.804688 -25.035156 136.3125 -26.8125 132.226562 -29.054688 C 128.140625 -31.292969 124.652344 -33.203125 121.75 -34.785156 L 116.21875 -37.554688 C 113.320312 -39.132812 109.828125 -40.980469 105.742188 -43.085938 C 101.65625 -45.195312 98.164062 -46.910156 95.265625 -48.226562 L 89.335938 -50.597656 C 86.4375 -51.914062 82.878906 -53.628906 78.664062 -55.738281 C 74.449219 -57.84375 70.890625 -59.558594 67.992188 -60.875 L 62.851562 -63.644531 C 59.953125 -64.960938 56.460938 -66.671875 52.378906 -68.78125 C 48.292969 -70.890625 44.800781 -72.734375 41.902344 -74.316406 L 35.578125 -77.875 C 32.679688 -79.453125 29.1875 -81.367188 25.101562 -83.605469 C 21.015625 -85.84375 17.523438 -87.625 14.625 -88.941406 L 7.511719 -92.5 C 4.613281 -94.082031 2.765625 -96.320312 1.976562 -99.21875 C 1.1875 -102.117188 1.582031 -105.015625 3.164062 -107.917969 L 7.117188 -114.242188 C 8.960938 -117.140625 11.132812 -120.433594 13.636719 -124.125 C 16.140625 -127.8125 18.445312 -131.105469 20.554688 -134.007812 L 24.902344 -139.933594 C 26.75 -142.570312 29.253906 -144.152344 32.414062 -144.679688 C 35.578125 -145.207031 38.605469 -144.546875 41.507812 -142.703125 L 52.179688 -135.191406 C 55.078125 -133.347656 56.921875 -130.976562 57.714844 -128.078125 C 58.503906 -125.175781 58.242188 -122.542969 56.921875 -120.171875 C 55.339844 -118.0625 55.078125 -115.691406 56.132812 -113.054688 C 57.1875 -110.417969 59.164062 -108.445312 62.0625 -107.125 L 63.246094 -106.730469 C 66.148438 -105.414062 69.703125 -103.632812 73.921875 -101.394531 C 78.136719 -99.152344 81.695312 -97.375 84.59375 -96.058594 L 86.964844 -94.476562 C 89.863281 -93.160156 93.355469 -91.378906 97.441406 -89.140625 C 101.527344 -86.898438 105.015625 -84.988281 107.917969 -83.40625 L 109.894531 -82.222656 C 112.792969 -80.902344 115.296875 -80.839844 117.402344 -82.023438 C 119.511719 -83.210938 120.699219 -85.382812 120.960938 -88.546875 L 120.960938 -90.128906 C 121.226562 -93.289062 121.355469 -97.175781 121.355469 -101.789062 C 121.355469 -106.402344 121.226562 -110.417969 120.960938 -113.847656 L 120.960938 -117.007812 C 120.699219 -120.433594 120.5 -124.453125 120.367188 -129.066406 C 120.238281 -133.675781 120.171875 -137.5625 120.171875 -140.726562 L 120.171875 -143.886719 C 119.90625 -147.050781 119.773438 -150.9375 119.773438 -155.550781 C 119.773438 -160.160156 119.90625 -164.046875 120.171875 -167.210938 L 120.171875 -170.769531 C 120.171875 -174.195312 120.238281 -178.214844 120.367188 -182.824219 C 120.5 -187.4375 120.566406 -191.324219 120.566406 -194.488281 L 120.566406 -221.367188 L 120.960938 -225.320312 L 120.960938 -253.386719 C 120.960938 -256.8125 119.773438 -259.644531 117.402344 -261.886719 C 115.03125 -264.125 112.265625 -265.246094 109.101562 -265.246094 L 107.125 -265.246094 C 103.699219 -264.980469 100.867188 -266.035156 98.625 -268.40625 C 96.386719 -270.777344 95.265625 -273.546875 95.265625 -276.707031 L 94.871094 -289.753906 C 94.871094 -292.914062 95.992188 -295.683594 98.230469 -298.054688 C 100.472656 -300.425781 103.304688 -301.742188 106.730469 -302.007812 L 113.847656 -302.402344 C 117.273438 -302.402344 121.289062 -302.46875 125.902344 -302.601562 C 130.515625 -302.730469 134.402344 -302.796875 137.5625 -302.796875 L 146.261719 -302.402344 C 149.6875 -302.402344 152.519531 -301.28125 154.757812 -299.042969 C 157 -296.804688 158.117188 -293.96875 158.117188 -290.542969 Z M 158.117188 -286.984375 "/></g></g></g></svg>