<svg xmlns="http://www.w3.org/2000/svg" xmlns:xlink="http://www.w3.org/1999/xlink" width="500" zoomAndPan="magnify" viewBox="0 0 375 374.999991" height="500" preserveAspectRatio="xMidYMid meet" version="1.0"><defs><g/></defs><path stroke-linecap="butt" transform="matrix(2.058843, 0, 0, 2.058843, 30.94921, -82.384917)" fill="none" stroke-linejoin="miter" d="M 52.219499 180.421342 C 50.688375 180.546564 49.375441 180.047573 48.280696 178.922472 C 47.187849 177.765116 46.704037 176.406647 46.827362 174.843268 L 47.062627 171.984031 C 47.187849 170.327685 47.25046 168.375359 47.25046 166.125157 C 47.25046 163.874954 47.25046 161.98524 47.25046 160.452218 L 47.062627 157.968647 L 47.062627 131.859848 L 46.827362 128.953179 C 46.827362 127.296833 46.797005 125.359685 46.734394 123.13984 C 46.671783 120.891535 46.578815 118.999923 46.453593 117.468798 L 46.453593 114.374296 C 46.328371 112.843171 46.26576 110.968635 46.26576 108.750687 C 46.26576 106.500485 46.328371 104.531083 46.453593 102.84438 L 46.641426 99.79731 C 46.641426 98.266186 46.641426 96.374574 46.641426 94.124371 C 46.641426 91.874169 46.578815 89.921843 46.453593 88.265497 L 46.26576 85.40626 C 46.015316 83.719557 45.890094 81.765334 45.890094 79.547385 C 45.890094 77.297183 45.890094 75.405571 45.890094 73.874447 L 45.890094 70.781841 C 45.890094 69.125495 46.438414 67.765128 47.531261 66.702638 C 48.624108 65.609791 49.999654 64.983681 51.656 64.828102 L 58.359175 64.640269 C 60.047775 64.640269 61.421423 65.186692 62.483913 66.281437 C 63.578658 67.374284 64.06247 68.749829 63.937248 70.406175 L 63.749415 73.125012 C 63.749415 74.656136 63.749415 76.547748 63.749415 78.796053 C 63.749415 81.015899 63.812026 82.953046 63.937248 84.609392 L 64.125081 87.703895 C 64.250303 89.235019 64.343271 91.124734 64.405882 93.374936 C 64.468493 95.592884 64.500747 97.484496 64.500747 99.045978 L 64.500747 102.280881 C 64.500747 103.812005 64.921949 104.749273 65.766249 105.094582 C 66.608652 105.40574 67.593353 104.984539 68.718454 103.827183 C 69.750587 102.671725 71.061624 101.29618 72.65536 99.702445 C 74.281349 98.108709 75.594283 96.735061 76.594163 95.577706 L 77.39103 94.780838 C 78.421266 93.655737 79.703844 92.265013 81.234968 90.608667 C 82.766092 88.921964 84.046772 87.438272 85.078906 86.155695 L 86.016174 85.218427 C 87.04641 83.937747 88.328987 82.469233 89.860111 80.812887 C 91.391236 79.124287 92.671916 77.703206 93.704049 76.547748 L 95.062519 75.234814 C 96.062398 74.077458 97.360154 73.468424 98.953889 73.405813 C 100.577981 73.343202 101.968705 73.891522 103.124163 75.046981 L 108.093202 79.640353 C 109.250557 80.797709 109.827338 82.141 109.827338 83.672124 C 109.827338 85.203248 109.250557 86.546539 108.093202 87.703895 L 107.343767 88.45333 C 106.188309 89.608788 104.797585 90.999512 103.171596 92.625501 C 101.57786 94.219236 100.282002 95.577706 99.282123 96.702807 L 98.297422 97.687508 C 97.140066 98.842966 95.829029 100.250766 94.358619 101.907112 C 92.890106 103.561561 91.639782 105.031971 90.609546 106.312651 L 89.672278 107.485185 C 88.640145 108.765865 87.359465 110.234379 85.828341 111.890725 C 84.297216 113.547071 83.016536 114.952973 81.984403 116.108431 L 80.625933 117.468798 C 79.500832 118.468678 78.125287 119.811969 76.499297 121.500569 C 74.905562 123.156915 73.594525 124.562818 72.562392 125.718276 L 71.061624 127.078643 C 70.031388 128.203744 69.484965 129.609646 69.422354 131.296349 C 69.359743 132.952695 69.828377 134.421209 70.828256 135.703786 L 71.625124 136.265388 C 72.65536 137.546068 73.937937 138.984225 75.469061 140.57796 C 77.000186 142.171695 78.280866 143.54724 79.312999 144.702699 L 80.250267 145.875232 C 81.405725 147.03069 82.750914 148.436593 84.282038 150.092939 C 85.813162 151.749285 87.093842 153.157085 88.124078 154.312543 L 89.108779 155.485077 C 90.108658 156.765757 91.406414 158.203913 93.000149 159.797648 C 94.624241 161.391384 96.014965 162.702421 97.172321 163.734554 L 98.297422 164.671822 C 99.45288 165.703955 100.796171 167.062425 102.327295 168.749128 C 103.860317 170.405474 105.140997 171.875885 106.171233 173.156565 L 107.343767 174.655435 C 108.3759 175.938013 109.624326 177.421704 111.092839 179.110305 C 112.56325 180.764754 113.796497 182.172553 114.796377 183.328011 L 115.781077 184.265279 C 116.813211 185.422635 117.32738 186.796283 117.32738 188.390018 C 117.32738 189.983753 116.7506 191.296688 115.593244 192.328821 L 111.187704 196.546528 C 110.030349 197.578661 108.641523 198.09283 107.015533 198.09283 C 105.421798 198.09283 104.063328 197.578661 102.938227 196.546528 C 101.780872 195.546648 100.452759 194.218536 98.953889 192.562189 C 97.483478 190.875486 96.250231 189.452508 95.250352 188.29705 L 94.453484 187.359782 C 93.453605 186.077205 92.171028 184.608691 90.609546 182.952345 C 89.078422 181.265642 87.735131 179.907172 86.577776 178.875039 L 85.452674 177.749938 C 84.297216 176.717804 82.984282 175.374513 81.515769 173.718167 C 80.047256 172.061821 78.796932 170.593308 77.764799 169.312627 L 77.203197 168.51576 C 76.171064 167.23508 74.922638 165.766566 73.452227 164.11022 C 71.983714 162.453874 70.672677 161.046074 69.515322 159.890616 L 68.95372 159.329014 C 67.796364 158.171659 66.828739 157.750457 66.04705 158.061615 C 65.297615 158.37467 64.921949 159.37455 64.921949 161.06315 C 65.047171 162.594274 65.109782 164.483989 65.109782 166.734191 C 65.109782 168.954037 65.109782 170.891184 65.109782 172.547531 L 65.109782 174.469499 C 65.109782 176.000624 64.531104 177.343915 63.375646 178.499373 C 62.218291 179.656728 60.812389 180.233509 59.156042 180.233509 Z M 52.219499 180.421342 " stroke="#005180" stroke-width="14.4" stroke-opacity="1" stroke-miterlimit="4"/><g fill="#38b6ff" fill-opacity="1"><g transform="translate(117.131073, 349.972019)"><g><path d="M 21.347656 -60.875 C 18.183594 -60.613281 15.484375 -61.667969 13.242188 -64.039062 C 11.003906 -66.410156 10.015625 -69.175781 10.277344 -72.339844 L 10.671875 -78.269531 C 10.9375 -81.695312 11.066406 -85.714844 11.066406 -90.324219 C 11.066406 -94.9375 11.066406 -98.824219 11.066406 -101.988281 L 10.671875 -107.125 L 10.671875 -160.886719 L 10.277344 -166.816406 C 10.277344 -170.242188 10.210938 -174.261719 10.082031 -178.871094 C 9.949219 -183.484375 9.75 -187.371094 9.488281 -190.535156 L 9.488281 -196.859375 C 9.222656 -200.019531 9.09375 -203.90625 9.09375 -208.519531 C 9.09375 -213.132812 9.222656 -217.148438 9.488281 -220.574219 L 9.882812 -226.902344 C 9.882812 -230.0625 9.882812 -233.949219 9.882812 -238.5625 C 9.882812 -243.175781 9.75 -247.191406 9.488281 -250.617188 L 9.09375 -256.546875 C 8.566406 -259.972656 8.300781 -263.992188 8.300781 -268.605469 C 8.300781 -273.214844 8.300781 -277.105469 8.300781 -280.265625 L 8.300781 -286.589844 C 8.300781 -290.015625 9.421875 -292.851562 11.660156 -295.089844 C 13.902344 -297.328125 16.734375 -298.582031 20.160156 -298.84375 L 33.996094 -299.242188 C 37.421875 -299.242188 40.253906 -298.121094 42.496094 -295.878906 C 44.734375 -293.640625 45.722656 -290.808594 45.460938 -287.382812 L 45.0625 -281.847656 C 45.0625 -278.683594 45.0625 -274.796875 45.0625 -270.1875 C 45.0625 -265.574219 45.195312 -261.554688 45.460938 -258.128906 L 45.855469 -251.804688 C 46.117188 -248.640625 46.316406 -244.753906 46.449219 -240.144531 C 46.578125 -235.53125 46.644531 -231.644531 46.644531 -228.480469 L 46.644531 -221.761719 C 46.644531 -218.601562 47.5 -216.6875 49.214844 -216.03125 C 50.925781 -215.371094 52.96875 -216.226562 55.339844 -218.601562 C 57.449219 -220.972656 60.152344 -223.804688 63.445312 -227.097656 C 66.738281 -230.394531 69.441406 -233.226562 71.550781 -235.597656 L 73.128906 -237.179688 C 75.238281 -239.550781 77.875 -242.449219 81.035156 -245.875 C 84.199219 -249.300781 86.832031 -252.332031 88.941406 -254.96875 L 90.917969 -256.945312 C 93.027344 -259.578125 95.660156 -262.609375 98.824219 -266.035156 C 101.988281 -269.460938 104.621094 -272.359375 106.730469 -274.730469 L 109.496094 -277.5 C 111.605469 -279.871094 114.308594 -281.121094 117.601562 -281.253906 C 120.894531 -281.386719 123.726562 -280.265625 126.101562 -277.894531 L 136.378906 -268.40625 C 138.75 -266.035156 139.933594 -263.269531 139.933594 -260.105469 C 139.933594 -256.945312 138.75 -254.175781 136.378906 -251.804688 L 134.796875 -250.222656 C 132.425781 -247.851562 129.589844 -245.019531 126.296875 -241.722656 C 123.003906 -238.429688 120.300781 -235.597656 118.195312 -233.226562 L 116.21875 -231.25 C 113.847656 -228.878906 111.144531 -225.980469 108.113281 -222.550781 C 105.082031 -219.125 102.515625 -216.097656 100.40625 -213.460938 L 98.429688 -211.089844 C 96.320312 -208.453125 93.6875 -205.421875 90.523438 -201.996094 C 87.359375 -198.570312 84.726562 -195.671875 82.617188 -193.300781 L 79.851562 -190.535156 C 77.476562 -188.425781 74.644531 -185.65625 71.351562 -182.230469 C 68.058594 -178.804688 65.355469 -175.90625 63.246094 -173.535156 L 60.085938 -170.769531 C 57.976562 -168.398438 56.855469 -165.496094 56.726562 -162.070312 C 56.59375 -158.644531 57.582031 -155.617188 59.691406 -152.980469 L 61.269531 -151.792969 C 63.378906 -149.160156 66.015625 -146.195312 69.175781 -142.898438 C 72.339844 -139.605469 74.976562 -136.773438 77.082031 -134.402344 L 79.058594 -132.03125 C 81.429688 -129.65625 84.199219 -126.757812 87.359375 -123.332031 C 90.523438 -119.90625 93.160156 -117.007812 95.265625 -114.636719 L 97.242188 -112.265625 C 99.351562 -109.628906 102.050781 -106.664062 105.347656 -103.371094 C 108.640625 -100.078125 111.472656 -97.375 113.847656 -95.265625 L 116.21875 -93.289062 C 118.589844 -91.183594 121.355469 -88.414062 124.519531 -84.988281 C 127.679688 -81.5625 130.316406 -78.53125 132.425781 -75.898438 L 134.796875 -72.734375 C 136.90625 -70.097656 139.472656 -67.070312 142.503906 -63.644531 C 145.535156 -60.21875 148.105469 -57.316406 150.214844 -54.945312 L 152.191406 -52.96875 C 154.296875 -50.597656 155.351562 -47.765625 155.351562 -44.472656 C 155.351562 -41.175781 154.167969 -38.476562 151.792969 -36.367188 L 142.703125 -27.671875 C 140.332031 -25.5625 137.496094 -24.507812 134.203125 -24.507812 C 130.910156 -24.507812 128.078125 -25.5625 125.703125 -27.671875 C 123.332031 -29.777344 120.632812 -32.546875 117.601562 -35.972656 C 114.570312 -39.398438 112 -42.296875 109.894531 -44.667969 L 108.3125 -46.644531 C 106.203125 -49.28125 103.566406 -52.3125 100.40625 -55.738281 C 97.242188 -59.164062 94.476562 -61.929688 92.105469 -64.039062 L 89.734375 -66.410156 C 87.359375 -68.519531 84.660156 -71.285156 81.628906 -74.710938 C 78.597656 -78.136719 76.027344 -81.167969 73.921875 -83.804688 L 72.734375 -85.382812 C 70.625 -88.019531 68.058594 -91.050781 65.027344 -94.476562 C 61.996094 -97.902344 59.292969 -100.800781 56.921875 -103.171875 L 55.738281 -104.359375 C 53.363281 -106.730469 51.390625 -107.585938 49.808594 -106.929688 C 48.226562 -106.269531 47.4375 -104.226562 47.4375 -100.800781 C 47.699219 -97.636719 47.832031 -93.75 47.832031 -89.140625 C 47.832031 -84.527344 47.832031 -80.507812 47.832031 -77.082031 L 47.832031 -73.128906 C 47.832031 -69.96875 46.644531 -67.199219 44.273438 -64.828125 C 41.902344 -62.457031 39.003906 -61.269531 35.578125 -61.269531 Z M 21.347656 -60.875 "/></g></g></g></svg>