<svg xmlns="http://www.w3.org/2000/svg" xmlns:xlink="http://www.w3.org/1999/xlink" width="1920" zoomAndPan="magnify" viewBox="0 0 1440 809.999993" height="1080" preserveAspectRatio="xMidYMid meet" version="1.0"><defs><clipPath id="19d5f11ee8"><path d="M 0 0 L 1066.5 0 L 1066.5 810 L 0 810 Z M 0 0 " clip-rule="nonzero"/></clipPath><clipPath id="5927edd1dc"><path d="M 1066.613281 0 L 1439.917969 0 L 1439.917969 810 L 1066.613281 810 Z M 1066.613281 0 " clip-rule="nonzero"/></clipPath></defs><rect x="-144" width="1728" fill="#ffffff" y="-80.999999" height="971.999992" fill-opacity="1"/><rect x="-144" width="1728" fill="#2a2a2a" y="-80.999999" height="971.999992" fill-opacity="1"/><g clip-path="url(#19d5f11ee8)"><path fill="#38b6ff" d="M 516.054688 809.6875 C 490.613281 809.6875 465.917969 809.6875 439.730469 809.6875 C 439.730469 787.238281 439.730469 765.039062 439.730469 742.34375 C 421.273438 742.34375 404.0625 742.34375 386.105469 742.34375 C 386.105469 753.816406 386.105469 765.539062 386.105469 778.507812 C 388.347656 778.757812 391.09375 779.257812 395.082031 779.753906 C 395.082031 770.027344 395.082031 761.546875 395.082031 752.320312 C 406.558594 752.320312 417.03125 752.320312 428.007812 752.320312 C 428.007812 771.273438 428.007812 789.980469 428.007812 809.4375 C 403.066406 809.4375 378.121094 809.4375 351.683594 809.4375 C 351.683594 787.488281 351.683594 765.289062 351.683594 742.34375 C 332.976562 742.34375 315.519531 742.34375 297.308594 742.34375 C 297.308594 754.066406 297.308594 765.789062 297.308594 778.757812 C 300.054688 779.007812 302.796875 779.007812 306.789062 779.257812 C 306.789062 769.777344 306.789062 761.050781 306.789062 752.070312 C 318.011719 752.070312 328.238281 752.070312 339.460938 752.070312 C 339.460938 771.273438 339.460938 790.480469 339.460938 809.9375 C 314.269531 809.9375 289.578125 809.9375 263.390625 809.9375 C 263.390625 787.488281 263.390625 765.289062 263.390625 742.34375 C 244.683594 742.34375 227.222656 742.34375 209.015625 742.34375 C 209.015625 754.066406 209.015625 765.789062 209.015625 778.507812 C 211.507812 778.757812 214.503906 779.257812 218.742188 779.753906 C 218.742188 769.777344 218.742188 761.050781 218.742188 751.820312 C 230.464844 751.820312 240.691406 751.820312 251.914062 751.820312 C 251.914062 770.777344 251.914062 789.484375 251.914062 809.4375 C 226.722656 809.4375 201.28125 809.4375 175.09375 809.4375 C 175.09375 787.488281 175.09375 765.289062 175.09375 742.34375 C 156.636719 742.34375 139.175781 742.34375 120.96875 742.34375 C 120.96875 754.316406 120.96875 766.039062 120.96875 778.757812 C 123.714844 779.007812 126.707031 779.257812 130.695312 779.507812 C 130.695312 770.027344 130.695312 761.546875 130.695312 752.070312 C 142.171875 752.070312 152.644531 752.070312 163.871094 752.070312 C 163.871094 771.273438 163.871094 789.980469 163.871094 809.4375 C 138.429688 809.4375 113.488281 809.4375 87.546875 809.4375 C 87.546875 786.738281 87.546875 764.539062 87.546875 741.84375 C 69.089844 741.84375 51.628906 741.84375 33.421875 741.84375 C 33.421875 754.066406 33.421875 765.789062 33.421875 778.257812 C 36.414062 778.257812 39.410156 778.257812 42.902344 778.257812 C 42.902344 769.28125 42.902344 761.050781 42.902344 751.820312 C 54.125 751.820312 64.601562 751.820312 75.824219 751.820312 C 75.824219 770.777344 75.824219 789.734375 75.824219 809.1875 C 50.632812 809.1875 25.941406 809.1875 0.5 809.1875 C 0.5 783.746094 0.5 758.304688 0.5 732.117188 C 3.742188 732.117188 6.984375 732.117188 10.972656 732.117188 C 10.972656 754.066406 10.972656 775.515625 10.972656 797.964844 C 28.933594 797.964844 46.390625 797.964844 64.351562 797.964844 C 64.351562 785.992188 64.351562 774.269531 64.351562 761.796875 C 61.109375 761.796875 58.363281 761.796875 54.625 761.796875 C 54.625 771.273438 54.625 779.753906 54.625 788.984375 C 43.648438 788.984375 33.421875 788.984375 22.199219 788.984375 C 22.199219 770.027344 22.199219 751.320312 22.199219 731.617188 C 47.140625 731.617188 72.082031 731.617188 98.273438 731.617188 C 98.273438 753.816406 98.273438 775.515625 98.273438 798.210938 C 116.980469 798.210938 134.4375 798.210938 152.394531 798.210938 C 152.394531 786.242188 152.394531 774.519531 152.394531 762.046875 C 149.902344 761.796875 147.160156 761.296875 143.167969 760.800781 C 143.167969 770.277344 143.167969 779.257812 143.167969 788.984375 C 131.445312 788.984375 120.96875 788.984375 109.746094 788.984375 C 109.746094 770.027344 109.746094 751.070312 109.746094 731.617188 C 135.1875 731.617188 160.128906 731.617188 186.316406 731.617188 C 186.316406 753.816406 186.316406 775.515625 186.316406 798.210938 C 204.773438 798.210938 222.234375 798.210938 240.441406 798.210938 C 240.441406 786.488281 240.441406 774.765625 240.441406 761.796875 C 237.699219 761.546875 234.707031 761.296875 230.214844 760.800781 C 230.214844 771.027344 230.214844 780.003906 230.214844 789.234375 C 218.242188 789.234375 208.015625 789.234375 197.042969 789.234375 C 197.042969 770.027344 197.042969 751.320312 197.042969 731.867188 C 221.984375 731.867188 247.425781 731.867188 273.863281 731.867188 C 273.863281 753.316406 273.863281 775.015625 273.863281 797.714844 C 292.570312 797.714844 310.03125 797.714844 328.238281 797.714844 C 328.238281 785.992188 328.238281 774.019531 328.238281 761.546875 C 324.746094 761.546875 321.753906 761.546875 317.761719 761.546875 C 317.761719 771.027344 317.761719 780.003906 317.761719 789.234375 C 306.289062 789.234375 296.0625 789.234375 285.339844 789.234375 C 285.339844 770.027344 285.339844 751.320312 285.339844 731.867188 C 310.53125 731.867188 335.96875 731.867188 362.410156 731.867188 C 362.410156 753.566406 362.410156 775.265625 362.410156 797.964844 C 380.867188 797.964844 398.324219 797.964844 416.285156 797.964844 C 416.285156 786.242188 416.285156 774.765625 416.285156 762.046875 C 413.789062 761.796875 410.796875 761.296875 406.558594 760.800781 C 406.558594 770.777344 406.558594 779.753906 406.558594 789.234375 C 395.332031 789.234375 385.105469 789.234375 373.882812 789.234375 C 373.882812 770.277344 373.882812 751.320312 373.882812 731.867188 C 398.824219 731.867188 423.765625 731.867188 450.207031 731.867188 C 450.207031 753.816406 450.207031 775.765625 450.207031 798.210938 C 468.914062 798.210938 486.371094 798.210938 504.578125 798.210938 C 504.578125 786.242188 504.578125 774.519531 504.578125 762.046875 C 501.835938 761.796875 499.09375 761.546875 495.351562 761.296875 C 495.351562 770.777344 495.351562 779.753906 495.351562 789.234375 C 484.125 789.234375 473.902344 789.234375 462.675781 789.234375 C 462.675781 770.527344 462.675781 751.570312 462.675781 731.867188 C 487.617188 731.867188 512.5625 731.867188 538.75 731.867188 C 538.75 754.066406 538.75 775.765625 538.75 798.210938 C 557.457031 798.210938 574.917969 798.210938 593.125 798.210938 C 593.125 786.242188 593.125 774.519531 593.125 761.796875 C 590.132812 761.546875 587.136719 761.546875 582.648438 761.296875 C 582.648438 771.027344 582.648438 780.003906 582.648438 789.234375 C 571.175781 789.234375 560.949219 789.234375 549.726562 789.234375 C 549.726562 770.027344 549.726562 751.320312 549.726562 731.617188 C 575.164062 731.617188 600.605469 731.617188 627.046875 731.617188 C 627.046875 753.566406 627.046875 775.515625 627.046875 797.964844 C 645.503906 797.964844 662.960938 797.964844 681.167969 797.964844 C 681.167969 785.742188 681.167969 774.019531 681.167969 761.546875 C 678.175781 761.546875 675.183594 761.546875 670.945312 761.546875 C 670.945312 770.777344 670.945312 779.507812 670.945312 788.984375 C 659.46875 788.984375 649.242188 788.984375 638.269531 788.984375 C 638.269531 770.027344 638.269531 751.070312 638.269531 731.617188 C 663.710938 731.617188 688.902344 731.617188 715.339844 731.617188 C 715.339844 753.566406 715.339844 775.265625 715.339844 797.964844 C 733.296875 797.964844 750.507812 797.964844 768.46875 797.964844 C 768.46875 785.992188 768.46875 774.019531 768.46875 761.546875 C 765.722656 761.546875 762.980469 761.546875 759.238281 761.546875 C 759.238281 771.027344 759.238281 779.753906 759.238281 789.234375 C 747.765625 789.234375 737.539062 789.234375 726.5625 789.234375 C 726.5625 770.027344 726.5625 751.070312 726.5625 731.617188 C 752.003906 731.617188 776.949219 731.617188 803.136719 731.617188 C 803.136719 753.816406 803.136719 775.515625 803.136719 797.964844 C 821.59375 797.964844 839.054688 797.964844 857.261719 797.964844 C 857.261719 785.992188 857.261719 774.269531 857.261719 761.796875 C 854.765625 761.546875 852.023438 761.050781 848.03125 760.550781 C 848.03125 770.277344 848.03125 779.007812 848.03125 788.734375 C 836.558594 788.734375 826.332031 788.734375 815.109375 788.734375 C 815.109375 770.277344 815.109375 751.320312 815.109375 731.367188 C 840.050781 731.367188 865.242188 731.367188 891.183594 731.367188 C 891.183594 753.816406 891.183594 775.515625 891.183594 797.964844 C 909.890625 797.964844 927.097656 797.964844 945.308594 797.964844 C 945.308594 785.742188 945.308594 774.019531 945.308594 761.796875 C 942.3125 761.546875 939.570312 761.050781 935.578125 760.800781 C 935.082031 770.527344 934.582031 779.753906 934.332031 789.484375 C 923.359375 789.484375 913.132812 789.484375 902.15625 789.484375 C 902.15625 770.277344 902.15625 751.320312 902.15625 731.867188 C 927.347656 731.867188 952.789062 731.867188 979.226562 731.867188 C 979.226562 754.066406 979.226562 775.765625 979.226562 798.210938 C 997.683594 798.210938 1015.144531 798.210938 1033.351562 798.210938 C 1033.351562 786.242188 1033.351562 774.519531 1033.351562 761.796875 C 1030.109375 761.546875 1027.367188 761.296875 1023.125 761.050781 C 1023.125 770.777344 1023.125 779.753906 1023.125 789.234375 C 1011.652344 789.234375 1001.425781 789.234375 990.453125 789.234375 C 990.453125 770.027344 990.453125 751.320312 990.453125 731.617188 C 1015.894531 731.617188 1041.335938 731.617188 1067.773438 731.617188 C 1067.773438 754.066406 1067.773438 775.765625 1067.773438 798.210938 C 1085.980469 798.210938 1102.941406 798.210938 1120.898438 798.210938 C 1120.898438 785.992188 1120.898438 774.519531 1120.898438 761.796875 C 1117.90625 761.796875 1115.164062 761.796875 1111.421875 761.796875 C 1111.421875 771.027344 1111.421875 779.507812 1111.421875 788.984375 C 1100.445312 788.984375 1090.21875 788.984375 1078.996094 788.984375 C 1078.996094 770.527344 1078.996094 751.570312 1078.996094 731.867188 C 1103.6875 731.867188 1128.632812 731.867188 1154.320312 731.867188 C 1154.320312 756.558594 1154.320312 781.5 1154.320312 807.441406 C 1151.078125 807.691406 1148.085938 807.691406 1143.847656 807.941406 C 1143.847656 785.742188 1143.847656 764.292969 1143.847656 742.09375 C 1125.636719 742.09375 1108.429688 742.09375 1090.46875 742.09375 C 1090.46875 753.816406 1090.46875 765.789062 1090.46875 778.507812 C 1093.214844 778.757812 1095.707031 778.757812 1099.449219 779.007812 C 1099.449219 769.777344 1099.449219 761.296875 1099.449219 751.820312 C 1110.921875 751.820312 1121.398438 751.820312 1132.621094 751.820312 C 1132.621094 771.027344 1132.621094 789.734375 1132.621094 809.1875 C 1107.429688 809.1875 1082.738281 809.1875 1056.796875 809.1875 C 1056.796875 786.988281 1056.796875 765.039062 1056.796875 741.84375 C 1038.089844 741.84375 1020.632812 741.84375 1002.175781 741.84375 C 1002.175781 753.316406 1002.175781 764.789062 1002.175781 778.007812 C 1004.171875 778.257812 1007.164062 778.757812 1011.152344 779.257812 C 1011.152344 769.53125 1011.152344 761.050781 1011.152344 751.820312 C 1022.628906 751.820312 1033.101562 751.820312 1044.578125 751.820312 C 1044.578125 770.777344 1044.578125 789.484375 1044.578125 809.1875 C 1019.386719 809.1875 994.441406 809.1875 968.253906 809.1875 C 968.253906 786.988281 968.253906 764.789062 968.253906 742.09375 C 949.546875 742.09375 932.335938 742.09375 913.878906 742.09375 C 913.878906 754.066406 913.878906 765.789062 913.878906 778.507812 C 916.871094 778.757812 919.617188 779.007812 923.855469 779.507812 C 923.855469 770.027344 923.855469 761.546875 923.855469 752.070312 C 935.328125 752.070312 946.054688 752.070312 957.03125 752.070312 C 957.03125 770.777344 957.03125 789.484375 957.03125 808.9375 C 931.839844 808.9375 906.398438 808.9375 879.957031 808.9375 C 879.957031 787.238281 879.957031 765.039062 879.957031 742.09375 C 861.25 742.09375 843.792969 742.09375 825.835938 742.09375 C 825.835938 754.066406 825.835938 765.789062 825.835938 778.257812 C 828.828125 778.257812 831.820312 778.257812 835.8125 778.257812 C 835.8125 769.28125 835.8125 760.800781 835.8125 751.570312 C 847.285156 751.570312 857.511719 751.570312 868.484375 751.570312 C 868.484375 770.527344 868.484375 789.234375 868.484375 808.9375 C 843.292969 808.9375 818.101562 808.9375 791.664062 808.9375 C 791.664062 786.488281 791.664062 764.789062 791.664062 742.09375 C 773.457031 742.09375 755.996094 742.09375 738.039062 742.09375 C 738.039062 753.816406 738.039062 765.539062 738.039062 778.257812 C 741.03125 778.257812 743.773438 778.257812 747.765625 778.257812 C 747.765625 769.28125 747.765625 760.800781 747.765625 751.570312 C 758.988281 751.570312 769.214844 751.570312 780.191406 751.570312 C 780.191406 770.777344 780.191406 789.734375 780.191406 809.1875 C 755 809.1875 730.054688 809.1875 703.867188 809.1875 C 703.867188 786.738281 703.867188 764.539062 703.867188 741.84375 C 685.160156 741.84375 667.699219 741.84375 649.492188 741.84375 C 649.492188 754.066406 649.492188 765.789062 649.492188 778.257812 C 652.238281 778.757812 654.730469 779.007812 658.972656 779.507812 C 658.972656 769.777344 658.972656 761.050781 658.972656 751.820312 C 670.695312 751.820312 680.921875 751.820312 692.144531 751.820312 C 692.144531 770.777344 692.144531 789.734375 692.144531 809.1875 C 667.203125 809.1875 642.261719 809.1875 616.070312 809.1875 C 616.070312 787.238281 616.070312 765.039062 616.070312 742.09375 C 597.363281 742.09375 579.90625 742.09375 561.695312 742.09375 C 561.695312 754.066406 561.695312 766.039062 561.695312 778.757812 C 564.691406 779.007812 567.433594 779.007812 571.671875 779.257812 C 571.671875 769.777344 571.671875 761.050781 571.671875 751.820312 C 583.398438 751.820312 593.621094 751.820312 604.847656 751.820312 C 604.847656 770.777344 604.847656 789.734375 604.847656 809.1875 C 579.15625 809.1875 553.964844 809.1875 527.777344 809.1875 C 527.777344 786.738281 527.777344 764.789062 527.777344 742.09375 C 509.566406 742.09375 492.109375 742.09375 473.902344 742.09375 C 473.902344 754.066406 473.902344 765.789062 473.902344 778.507812 C 476.894531 778.757812 479.636719 778.757812 483.878906 779.007812 C 483.878906 769.53125 483.878906 761.050781 483.878906 751.820312 C 495.101562 751.820312 505.578125 751.820312 516.550781 751.820312 C 516.054688 770.777344 516.054688 789.730469 516.054688 809.6875 Z M 779.941406 21.015625 C 768.964844 21.015625 758.738281 21.015625 747.265625 21.015625 C 747.265625 30.492188 747.265625 39.222656 747.265625 48.453125 C 743.523438 48.453125 740.78125 48.453125 738.039062 48.453125 C 738.039062 35.730469 738.039062 23.757812 738.039062 11.789062 C 755.996094 11.789062 773.207031 11.789062 791.414062 11.789062 C 791.414062 34.234375 791.414062 56.183594 791.414062 78.132812 C 817.851562 78.132812 843.042969 78.132812 868.484375 78.132812 C 868.484375 58.679688 868.484375 40.222656 868.484375 21.015625 C 857.511719 21.015625 847.285156 21.015625 835.8125 21.015625 C 835.8125 30.246094 835.8125 38.972656 835.8125 48.453125 C 831.570312 48.453125 828.828125 48.453125 825.585938 48.453125 C 825.585938 35.730469 825.585938 24.257812 825.585938 11.789062 C 843.542969 11.789062 861.003906 11.789062 879.460938 11.789062 C 879.460938 34.234375 879.460938 56.183594 879.460938 78.132812 C 905.898438 78.132812 931.339844 78.132812 957.03125 78.132812 C 957.03125 58.929688 957.03125 40.222656 957.03125 21.015625 C 946.054688 21.015625 935.328125 21.015625 923.605469 21.015625 C 923.605469 30.246094 923.605469 39.222656 923.605469 49.199219 C 919.367188 48.949219 916.375 48.703125 913.382812 48.453125 C 913.382812 35.730469 913.382812 24.007812 913.382812 11.789062 C 931.589844 11.789062 949.046875 11.789062 967.753906 11.789062 C 967.753906 34.484375 967.753906 56.433594 967.753906 78.632812 C 993.945312 78.632812 1018.636719 78.632812 1044.078125 78.632812 C 1044.078125 59.175781 1044.078125 40.46875 1044.078125 21.265625 C 1032.855469 21.265625 1022.378906 21.265625 1010.65625 21.265625 C 1010.65625 30.742188 1010.65625 39.722656 1010.65625 49.699219 C 1006.664062 48.949219 1003.671875 48.453125 1001.175781 47.953125 C 1001.175781 35.234375 1001.175781 23.757812 1001.175781 12.035156 C 1019.386719 12.035156 1037.09375 12.035156 1056.050781 12.035156 C 1056.050781 34.734375 1056.050781 56.433594 1056.050781 78.382812 C 1081.988281 78.382812 1106.683594 78.382812 1131.875 78.382812 C 1131.875 58.929688 1131.875 40.222656 1131.875 21.015625 C 1120.898438 21.015625 1110.671875 21.015625 1099.199219 21.015625 C 1099.199219 30.492188 1099.199219 39.222656 1099.199219 48.453125 C 1095.457031 48.453125 1092.714844 48.453125 1089.972656 48.453125 C 1089.972656 35.730469 1089.972656 23.757812 1089.972656 11.789062 C 1107.929688 11.789062 1125.140625 11.789062 1143.097656 11.789062 C 1143.097656 33.734375 1143.097656 54.6875 1143.097656 76.636719 C 1147.339844 76.636719 1150.582031 76.636719 1154.074219 76.636719 C 1154.074219 51.195312 1154.074219 26.253906 1154.074219 1.0625 C 1128.382812 1.0625 1103.191406 1.0625 1078.496094 1.0625 C 1078.496094 20.765625 1078.496094 39.722656 1078.496094 58.429688 C 1089.722656 58.429688 1099.949219 58.429688 1110.921875 58.429688 C 1110.921875 49.199219 1110.921875 40.71875 1110.921875 31.742188 C 1114.664062 31.742188 1117.65625 31.742188 1120.648438 31.742188 C 1120.648438 44.210938 1120.648438 55.933594 1120.648438 68.15625 C 1102.941406 68.15625 1085.730469 68.15625 1067.273438 68.15625 C 1067.273438 45.460938 1067.273438 23.261719 1067.273438 0.8125 C 1040.585938 0.8125 1015.144531 0.8125 989.953125 0.8125 C 989.953125 20.515625 989.953125 39.222656 989.953125 58.429688 C 1000.925781 58.429688 1011.152344 58.429688 1022.875 58.429688 C 1022.875 48.949219 1022.875 40.222656 1022.875 30.742188 C 1027.117188 30.992188 1030.109375 31.242188 1033.101562 31.492188 C 1033.101562 44.210938 1033.101562 55.933594 1033.101562 68.15625 C 1014.894531 68.15625 997.4375 68.15625 978.980469 68.15625 C 978.980469 45.210938 978.980469 23.261719 978.980469 1.0625 C 952.539062 1.0625 927.097656 1.0625 901.90625 1.0625 C 901.90625 20.765625 901.90625 39.722656 901.90625 58.429688 C 913.132812 58.429688 923.359375 58.429688 934.082031 58.429688 C 934.582031 48.949219 934.832031 40.222656 935.328125 30.742188 C 939.320312 30.992188 942.0625 31.242188 944.808594 31.492188 C 944.808594 44.210938 944.808594 56.183594 944.808594 67.90625 C 926.351562 67.90625 908.890625 67.90625 890.183594 67.90625 C 890.183594 44.960938 890.183594 22.761719 890.183594 0.8125 C 864.246094 0.8125 839.550781 0.8125 814.359375 0.8125 C 814.359375 20.265625 814.359375 39.222656 814.359375 58.179688 C 825.585938 58.179688 836.058594 58.179688 847.535156 58.179688 C 847.535156 48.949219 847.535156 40.222656 847.535156 31.242188 C 851.027344 31.242188 853.769531 31.242188 856.761719 31.242188 C 856.761719 43.714844 856.761719 55.683594 856.761719 67.90625 C 838.554688 67.90625 821.09375 67.90625 802.386719 67.90625 C 802.386719 44.960938 802.386719 22.761719 802.386719 0.8125 C 776.199219 0.8125 751.007812 0.8125 726.316406 0.8125 C 726.316406 20.515625 726.316406 39.472656 726.316406 58.179688 C 737.539062 58.179688 747.765625 58.179688 758.738281 58.179688 C 758.738281 48.949219 758.738281 40.472656 758.738281 30.992188 C 762.730469 31.242188 765.472656 31.242188 768.21875 31.492188 C 768.21875 44.210938 768.21875 55.933594 768.21875 68.15625 C 750.507812 68.15625 733.296875 68.15625 714.839844 68.15625 C 714.839844 45.460938 714.839844 23.261719 714.839844 0.8125 C 688.152344 0.8125 662.960938 0.8125 637.519531 0.8125 C 637.519531 20.515625 637.519531 39.222656 637.519531 58.179688 C 648.496094 58.179688 658.722656 58.179688 670.445312 58.179688 C 670.445312 48.703125 670.445312 39.972656 670.445312 31.242188 C 674.683594 31.242188 677.179688 31.242188 680.421875 31.242188 C 680.421875 43.714844 680.421875 55.683594 680.421875 67.90625 C 662.214844 67.90625 644.753906 67.90625 626.046875 67.90625 C 626.046875 44.960938 626.046875 22.761719 626.046875 0.8125 C 599.859375 0.8125 574.667969 0.8125 548.976562 0.8125 C 548.976562 20.265625 548.976562 39.222656 548.976562 58.179688 C 559.949219 58.179688 570.425781 58.179688 581.898438 58.179688 C 581.898438 48.949219 581.898438 40.472656 581.898438 31.492188 C 585.890625 31.492188 588.882812 31.492188 592.125 31.492188 C 592.125 44.210938 592.125 56.183594 592.125 67.90625 C 573.667969 67.90625 556.210938 67.90625 537.503906 67.90625 C 537.503906 44.960938 537.503906 22.761719 537.503906 0.8125 C 511.5625 0.8125 486.871094 0.8125 461.679688 0.8125 C 461.679688 20.265625 461.679688 39.222656 461.679688 58.429688 C 472.652344 58.429688 482.878906 58.429688 494.351562 58.429688 C 494.351562 49.199219 494.351562 40.222656 494.351562 30.742188 C 498.34375 30.992188 500.839844 31.242188 503.582031 31.242188 C 503.582031 43.960938 503.582031 55.933594 503.582031 68.15625 C 485.625 68.15625 468.414062 68.15625 449.707031 68.15625 C 449.707031 45.460938 449.707031 23.261719 449.707031 0.8125 C 423.269531 0.8125 398.324219 0.8125 373.132812 0.8125 C 373.132812 20.265625 373.132812 39.222656 373.132812 58.429688 C 384.109375 58.429688 394.335938 58.429688 405.808594 58.429688 C 405.808594 49.199219 405.808594 40.222656 405.808594 30.742188 C 409.800781 30.992188 412.542969 31.242188 415.285156 31.242188 C 415.285156 43.960938 415.285156 55.933594 415.285156 67.90625 C 397.328125 67.90625 380.117188 67.90625 361.660156 67.90625 C 361.660156 44.960938 361.660156 22.761719 361.660156 0.5625 C 335.222656 0.5625 310.28125 0.5625 284.589844 0.5625 C 284.589844 20.019531 284.589844 38.972656 284.589844 57.929688 C 295.8125 57.929688 306.289062 57.929688 317.511719 57.929688 C 317.511719 48.453125 317.511719 39.972656 317.511719 30.492188 C 321.503906 30.742188 324.496094 30.992188 327.738281 30.992188 C 327.738281 43.714844 327.738281 55.4375 327.738281 67.65625 C 309.53125 67.65625 292.074219 67.65625 273.613281 67.65625 C 273.613281 44.960938 273.613281 22.761719 273.613281 0.5625 C 247.175781 0.5625 221.734375 0.5625 196.542969 0.5625 C 196.542969 20.265625 196.542969 39.222656 196.542969 57.929688 C 207.769531 57.929688 217.996094 57.929688 228.71875 57.929688 C 229.21875 48.453125 229.46875 39.722656 229.964844 30.246094 C 233.957031 30.492188 236.699219 30.742188 239.445312 30.992188 C 239.445312 43.714844 239.445312 55.683594 239.445312 67.410156 C 220.988281 67.410156 203.777344 67.410156 185.070312 67.410156 C 185.070312 44.460938 185.070312 22.511719 185.070312 0.3125 C 158.882812 0.3125 133.9375 0.3125 108.996094 0.3125 C 108.996094 20.019531 108.996094 38.726562 108.996094 57.679688 C 120.222656 57.679688 130.449219 57.679688 141.921875 57.679688 C 141.921875 48.203125 141.921875 39.472656 141.921875 29.996094 C 145.910156 30.492188 148.65625 30.742188 151.398438 30.992188 C 151.398438 43.464844 151.398438 55.1875 151.398438 67.410156 C 133.441406 67.410156 115.980469 67.410156 97.273438 67.410156 C 97.273438 44.460938 97.273438 22.261719 97.273438 0.0625 C 72.332031 0.8125 47.140625 0.8125 22.199219 0.8125 C 22.199219 20.515625 22.199219 39.222656 22.199219 58.429688 C 33.171875 58.429688 43.398438 58.429688 54.871094 58.429688 C 54.871094 48.949219 54.871094 40.222656 54.871094 30.742188 C 58.863281 30.992188 61.605469 31.242188 64.351562 31.492188 C 64.351562 43.960938 64.351562 55.683594 64.351562 67.90625 C 46.390625 67.90625 29.183594 67.90625 10.726562 67.90625 C 10.726562 45.210938 10.726562 23.261719 10.726562 0.8125 C 6.734375 0.8125 3.742188 0.8125 0.5 0.8125 C 0.5 26.753906 0.5 52.441406 0.5 78.132812 C 25.941406 78.132812 50.632812 78.132812 75.574219 78.132812 C 75.574219 58.679688 75.574219 39.722656 75.574219 20.765625 C 64.601562 20.765625 54.125 20.765625 42.902344 20.765625 C 42.902344 30.246094 42.902344 38.972656 42.902344 48.203125 C 39.160156 48.203125 36.414062 48.203125 33.671875 48.203125 C 33.671875 35.480469 33.671875 23.511719 33.671875 11.789062 C 51.878906 11.789062 69.339844 11.789062 87.796875 11.789062 C 87.796875 34.484375 87.796875 56.433594 87.796875 78.382812 C 113.984375 78.382812 138.925781 78.382812 163.871094 78.382812 C 163.871094 58.929688 163.871094 39.972656 163.871094 21.015625 C 152.894531 21.015625 142.417969 21.015625 130.945312 21.015625 C 130.945312 30.492188 130.945312 39.472656 130.945312 49.199219 C 126.707031 48.703125 123.714844 48.453125 121.21875 48.203125 C 121.21875 35.234375 121.21875 23.511719 121.21875 11.789062 C 139.675781 11.789062 156.886719 11.789062 175.34375 11.789062 C 175.34375 34.484375 175.34375 56.183594 175.34375 78.132812 C 201.78125 78.132812 226.972656 78.132812 252.414062 78.132812 C 252.414062 58.679688 252.414062 40.222656 252.414062 21.015625 C 241.191406 21.015625 230.714844 21.015625 218.742188 21.015625 C 218.742188 30.492188 218.742188 39.472656 218.742188 49.449219 C 214.503906 48.703125 211.507812 48.453125 209.015625 47.953125 C 209.015625 34.984375 209.015625 23.261719 209.015625 11.789062 C 227.472656 11.789062 244.933594 11.789062 263.140625 11.789062 C 263.140625 34.484375 263.140625 56.183594 263.140625 78.132812 C 289.078125 78.132812 314.269531 78.132812 339.460938 78.132812 C 339.460938 58.679688 339.460938 39.722656 339.460938 21.015625 C 327.988281 21.015625 317.511719 21.015625 306.289062 21.015625 C 306.289062 30.492188 306.289062 38.972656 306.289062 48.703125 C 302.546875 48.453125 299.804688 48.203125 297.0625 47.953125 C 297.0625 34.984375 297.0625 23.261719 297.0625 11.289062 C 315.269531 11.289062 332.726562 11.289062 351.683594 11.289062 C 351.683594 33.984375 351.683594 56.183594 351.683594 77.632812 C 377.875 77.632812 402.566406 77.632812 427.757812 77.632812 C 427.757812 58.179688 427.757812 39.722656 427.757812 20.515625 C 416.78125 20.515625 406.058594 20.515625 394.585938 20.515625 C 394.585938 30.246094 394.585938 38.972656 394.585938 48.703125 C 390.84375 48.203125 388.097656 47.953125 385.355469 47.703125 C 385.355469 35.234375 385.355469 23.511719 385.355469 11.289062 C 403.3125 11.289062 420.773438 11.289062 439.480469 11.289062 C 439.480469 33.984375 439.480469 55.683594 439.480469 77.632812 C 465.667969 77.632812 490.613281 77.632812 516.054688 77.632812 C 516.054688 58.179688 516.054688 39.722656 516.054688 20.765625 C 505.078125 20.765625 494.601562 20.765625 483.128906 20.765625 C 483.128906 30.246094 483.128906 38.726562 483.128906 47.703125 C 479.136719 47.703125 476.394531 47.703125 473.152344 47.703125 C 473.152344 34.984375 473.152344 23.511719 473.152344 11.289062 C 491.359375 11.289062 508.570312 11.289062 527.277344 11.289062 C 527.277344 33.738281 527.277344 55.683594 527.277344 77.632812 C 553.714844 77.632812 578.90625 77.632812 604.597656 77.632812 C 604.597656 58.179688 604.597656 39.722656 604.597656 20.515625 C 593.375 20.515625 582.898438 20.515625 571.175781 20.515625 C 571.175781 29.996094 571.175781 38.726562 571.175781 48.703125 C 566.683594 48.203125 563.941406 47.953125 561.449219 47.453125 C 561.449219 34.484375 561.449219 22.761719 561.449219 11.039062 C 579.65625 11.039062 597.113281 11.039062 615.820312 11.039062 C 615.820312 33.738281 615.820312 55.4375 615.820312 77.386719 C 642.011719 77.386719 666.953125 77.386719 691.894531 77.386719 C 691.894531 57.679688 691.894531 38.972656 691.894531 20.269531 C 680.671875 20.269531 670.195312 20.269531 659.21875 20.269531 C 659.21875 29.496094 659.21875 37.976562 659.21875 47.453125 C 655.480469 47.453125 652.734375 47.453125 649.492188 47.453125 C 649.492188 34.984375 649.492188 23.261719 649.492188 10.789062 C 667.453125 10.789062 684.910156 10.789062 704.117188 10.789062 C 704.117188 33.238281 704.117188 55.1875 704.117188 77.386719 C 730.554688 77.386719 755.246094 77.386719 780.191406 77.386719 C 779.941406 58.929688 779.941406 40.222656 779.941406 21.015625 Z M 1134.117188 166.679688 C 1134.117188 155.453125 1134.117188 144.976562 1134.117188 133.503906 C 1124.640625 133.503906 1116.160156 133.503906 1106.683594 133.503906 C 1106.933594 129.515625 1107.179688 126.519531 1107.429688 123.777344 C 1120.152344 123.777344 1131.875 123.777344 1143.847656 123.777344 C 1143.847656 141.984375 1143.847656 159.445312 1143.847656 177.652344 C 1120.898438 177.652344 1098.699219 177.652344 1076.503906 177.652344 C 1076.503906 203.839844 1076.503906 228.785156 1076.503906 254.472656 C 1095.957031 254.472656 1114.914062 254.472656 1134.367188 254.472656 C 1134.367188 243.5 1134.367188 232.773438 1134.367188 220.800781 C 1125.140625 220.800781 1116.410156 220.800781 1106.683594 220.800781 C 1106.933594 216.8125 1107.179688 214.066406 1107.429688 211.324219 C 1119.902344 211.324219 1131.625 211.324219 1144.09375 211.324219 C 1144.09375 229.53125 1144.09375 246.992188 1144.09375 265.449219 C 1121.398438 265.449219 1099.199219 265.449219 1076.503906 265.449219 C 1076.503906 291.636719 1076.503906 316.582031 1076.503906 342.019531 C 1095.957031 342.019531 1114.914062 342.019531 1134.367188 342.019531 C 1134.367188 330.796875 1134.367188 320.320312 1134.367188 308.597656 C 1124.890625 308.597656 1115.910156 308.597656 1106.433594 308.597656 C 1106.933594 304.609375 1107.429688 302.113281 1107.679688 299.371094 C 1120.152344 299.371094 1131.875 299.371094 1144.09375 299.371094 C 1144.09375 317.578125 1144.09375 334.789062 1144.09375 353.496094 C 1121.148438 353.496094 1099.199219 353.496094 1076.503906 353.496094 C 1076.503906 379.683594 1076.503906 404.625 1076.503906 429.816406 C 1095.957031 429.816406 1114.914062 429.816406 1133.871094 429.816406 C 1133.871094 418.59375 1133.871094 408.117188 1133.871094 396.644531 C 1124.390625 396.644531 1115.910156 396.644531 1107.179688 396.644531 C 1107.179688 393.152344 1107.179688 390.410156 1107.179688 387.414062 C 1119.902344 387.414062 1131.875 387.414062 1143.847656 387.414062 C 1143.847656 405.375 1143.847656 422.585938 1143.847656 440.792969 C 1121.148438 440.792969 1098.949219 440.792969 1076.503906 440.792969 C 1076.503906 467.230469 1076.503906 492.671875 1076.503906 517.863281 C 1096.207031 517.863281 1114.914062 517.863281 1134.117188 517.863281 C 1134.117188 506.640625 1134.117188 495.914062 1134.117188 484.191406 C 1124.640625 484.191406 1115.660156 484.191406 1106.183594 484.191406 C 1106.683594 480.199219 1106.933594 477.707031 1107.429688 474.960938 C 1119.902344 474.960938 1131.625 474.960938 1144.09375 474.960938 C 1144.09375 492.921875 1144.09375 510.378906 1144.09375 528.835938 C 1121.398438 528.835938 1099.199219 528.835938 1076.503906 528.835938 C 1076.503906 555.027344 1076.503906 579.96875 1076.503906 605.660156 C 1095.957031 605.660156 1114.664062 605.660156 1134.367188 605.660156 C 1134.367188 594.683594 1134.367188 584.210938 1134.367188 572.488281 C 1125.140625 572.488281 1116.410156 572.488281 1106.933594 572.488281 C 1107.179688 568.746094 1107.179688 566 1107.429688 563.257812 C 1120.152344 563.257812 1132.125 563.257812 1144.097656 563.257812 C 1144.097656 581.464844 1144.097656 598.925781 1144.097656 617.632812 C 1121.148438 617.632812 1098.949219 617.632812 1076.753906 617.632812 C 1076.753906 643.570312 1076.753906 668.265625 1076.753906 693.457031 C 1096.457031 693.457031 1115.660156 693.457031 1134.367188 693.457031 C 1134.367188 682.230469 1134.367188 672.003906 1134.367188 660.78125 C 1125.140625 660.78125 1116.660156 660.78125 1107.679688 660.78125 C 1107.679688 657.039062 1107.679688 654.046875 1107.679688 651.304688 C 1120.402344 651.304688 1132.125 651.304688 1144.097656 651.304688 C 1144.097656 669.261719 1144.097656 686.722656 1144.097656 705.179688 C 1121.648438 705.179688 1100.199219 705.179688 1078.25 705.179688 C 1078.496094 709.417969 1078.746094 712.410156 1078.746094 715.65625 C 1104.4375 715.65625 1129.378906 715.65625 1154.320312 715.65625 C 1154.320312 689.714844 1154.320312 664.773438 1154.320312 640.078125 C 1134.617188 640.078125 1115.660156 640.078125 1096.707031 640.078125 C 1096.707031 651.054688 1096.707031 661.28125 1096.707031 672.753906 C 1106.183594 672.753906 1114.914062 672.753906 1124.140625 672.753906 C 1124.140625 676.746094 1124.140625 679.738281 1124.140625 682.230469 C 1111.421875 682.230469 1099.699219 682.230469 1087.726562 682.230469 C 1087.726562 664.273438 1087.726562 646.8125 1087.726562 628.355469 C 1110.425781 628.355469 1132.371094 628.355469 1154.320312 628.355469 C 1154.320312 602.167969 1154.320312 577.226562 1154.320312 551.535156 C 1134.867188 551.535156 1115.910156 551.535156 1096.707031 551.535156 C 1096.707031 562.757812 1096.707031 573.234375 1096.707031 584.707031 C 1106.433594 584.707031 1115.164062 584.707031 1124.390625 584.707031 C 1124.390625 588.449219 1124.390625 591.191406 1124.390625 594.1875 C 1111.671875 594.1875 1099.699219 594.1875 1087.476562 594.1875 C 1087.476562 576.226562 1087.476562 559.019531 1087.476562 540.5625 C 1110.175781 540.5625 1132.371094 540.5625 1154.320312 540.5625 C 1154.320312 513.871094 1154.320312 488.929688 1154.320312 463.738281 C 1134.867188 463.738281 1115.910156 463.738281 1096.457031 463.738281 C 1096.457031 474.714844 1096.457031 484.941406 1096.457031 496.664062 C 1105.933594 496.664062 1115.164062 496.664062 1125.390625 496.664062 C 1124.640625 501.152344 1124.390625 504.144531 1124.140625 506.640625 C 1111.171875 506.640625 1099.449219 506.640625 1087.476562 506.640625 C 1087.476562 488.679688 1087.476562 471.472656 1087.476562 452.765625 C 1110.175781 452.765625 1132.125 452.765625 1154.320312 452.765625 C 1154.320312 426.324219 1154.320312 401.382812 1154.320312 376.191406 C 1134.617188 376.191406 1115.660156 376.191406 1096.707031 376.191406 C 1096.707031 387.167969 1096.707031 397.394531 1096.707031 408.617188 C 1106.183594 408.617188 1114.914062 408.617188 1124.390625 408.617188 C 1124.390625 412.605469 1124.390625 415.601562 1124.390625 418.34375 C 1111.671875 418.34375 1099.949219 418.34375 1087.976562 418.34375 C 1087.976562 400.386719 1087.976562 382.925781 1087.976562 364.46875 C 1110.671875 364.46875 1132.371094 364.46875 1154.320312 364.46875 C 1154.320312 338.03125 1154.320312 312.839844 1154.320312 287.898438 C 1134.617188 287.898438 1115.660156 287.898438 1096.953125 287.898438 C 1096.953125 299.121094 1096.953125 309.347656 1096.953125 320.570312 C 1106.433594 320.570312 1115.414062 320.570312 1124.640625 320.570312 C 1124.640625 324.3125 1124.640625 327.054688 1124.640625 330.050781 C 1111.921875 330.050781 1099.949219 330.050781 1087.726562 330.050781 C 1087.726562 312.089844 1087.726562 295.128906 1087.726562 276.421875 C 1110.425781 276.421875 1132.621094 276.421875 1154.570312 276.421875 C 1154.570312 249.734375 1154.570312 224.542969 1154.570312 199.601562 C 1135.117188 199.601562 1116.160156 199.601562 1096.707031 199.601562 C 1096.707031 210.574219 1096.707031 220.800781 1096.707031 232.773438 C 1106.183594 232.773438 1115.164062 232.773438 1125.390625 232.773438 C 1124.890625 237.511719 1124.640625 240.257812 1124.140625 242.75 C 1111.171875 242.75 1099.449219 242.75 1087.726562 242.75 C 1087.726562 224.542969 1087.726562 207.085938 1087.726562 188.628906 C 1110.421875 188.628906 1132.125 188.628906 1154.320312 188.628906 C 1154.320312 162.4375 1154.320312 137.496094 1154.320312 112.304688 C 1134.617188 112.304688 1115.910156 112.304688 1096.707031 112.304688 C 1096.707031 123.277344 1096.707031 133.503906 1096.707031 144.976562 C 1106.183594 144.976562 1114.914062 144.976562 1124.390625 144.976562 C 1124.390625 148.96875 1124.390625 151.960938 1124.390625 154.707031 C 1111.671875 154.707031 1099.949219 154.707031 1087.726562 154.707031 C 1087.726562 136.746094 1087.726562 119.289062 1087.726562 100.832031 C 1110.421875 100.832031 1132.125 100.832031 1155.070312 100.832031 C 1154.820312 96.589844 1154.820312 93.097656 1154.570312 89.855469 C 1127.882812 89.855469 1102.441406 89.855469 1076.75 89.855469 C 1076.75 115.296875 1076.75 139.988281 1076.75 166.179688 C 1095.957031 166.679688 1114.914062 166.679688 1134.117188 166.679688 Z M 10.476562 364.46875 C 33.421875 364.46875 55.621094 364.46875 77.320312 364.46875 C 77.320312 338.03125 77.320312 313.089844 77.320312 288.144531 C 57.617188 288.144531 38.910156 288.144531 19.953125 288.144531 C 19.953125 299.121094 19.953125 309.597656 19.953125 320.820312 C 29.183594 320.820312 37.664062 320.820312 46.890625 320.820312 C 46.890625 324.8125 46.890625 327.554688 46.890625 330.296875 C 34.171875 330.296875 22.199219 330.296875 10.476562 330.296875 C 10.476562 312.089844 10.476562 295.128906 10.476562 276.671875 C 33.421875 276.671875 55.621094 276.671875 77.570312 276.671875 C 77.570312 250.234375 77.570312 225.292969 77.570312 199.851562 C 58.113281 199.851562 39.160156 199.851562 19.953125 199.851562 C 19.953125 210.824219 19.953125 221.050781 19.953125 232.773438 C 29.183594 232.773438 37.910156 232.773438 47.640625 232.773438 C 47.390625 237.265625 47.140625 240.007812 47.140625 243 C 34.421875 243 22.699219 243 10.476562 243 C 10.476562 225.042969 10.476562 207.582031 10.476562 188.628906 C 33.171875 188.628906 55.371094 188.628906 77.570312 188.628906 C 77.570312 162.1875 77.570312 137.246094 77.570312 112.554688 C 57.867188 112.554688 38.910156 112.554688 20.203125 112.554688 C 20.203125 123.777344 20.203125 134.003906 20.203125 145.476562 C 29.679688 145.476562 38.410156 145.476562 47.890625 145.476562 C 47.640625 149.46875 47.390625 151.960938 47.140625 154.957031 C 34.667969 154.957031 22.945312 154.957031 10.476562 154.957031 C 10.476562 136.996094 10.476562 119.539062 10.476562 100.832031 C 33.171875 100.832031 55.371094 100.832031 78.316406 100.832031 C 78.070312 96.339844 77.820312 93.347656 77.570312 90.355469 C 51.378906 90.355469 25.941406 90.355469 0.5 90.355469 C 0.5 116.292969 0.5 141.238281 0.5 166.429688 C 20.203125 166.429688 38.910156 166.429688 58.113281 166.429688 C 58.113281 155.453125 58.113281 145.226562 58.113281 133.753906 C 48.636719 133.753906 39.90625 133.753906 29.929688 133.753906 C 30.179688 129.761719 30.429688 126.769531 30.429688 123.777344 C 43.148438 123.777344 54.871094 123.777344 66.84375 123.777344 C 66.84375 141.984375 66.84375 159.195312 66.84375 177.652344 C 44.148438 177.652344 22.199219 177.652344 0.5 177.652344 C 0.5 204.089844 0.5 229.28125 0.5 254.472656 C 20.203125 254.472656 39.160156 254.472656 57.867188 254.472656 C 57.867188 243.25 57.867188 233.023438 57.867188 221.300781 C 48.386719 221.300781 39.65625 221.300781 30.429688 221.300781 C 30.429688 217.308594 30.429688 214.816406 30.429688 212.074219 C 43.148438 212.074219 55.121094 212.074219 67.09375 212.074219 C 67.09375 230.28125 67.09375 247.492188 67.09375 265.949219 C 44.398438 265.949219 22.199219 265.949219 0.5 265.949219 C 0.5 292.386719 0.5 317.328125 0.5 342.269531 C 20.203125 342.269531 39.160156 342.269531 57.867188 342.269531 C 57.867188 331.046875 57.867188 320.820312 57.867188 309.097656 C 48.136719 309.097656 39.160156 309.097656 29.183594 309.097656 C 29.929688 305.105469 30.179688 302.363281 30.679688 299.867188 C 43.148438 299.867188 54.871094 299.867188 66.59375 299.867188 C 66.59375 318.078125 66.59375 335.535156 66.59375 353.992188 C 43.898438 353.992188 22.199219 353.992188 0.25 353.992188 C 0.25 380.183594 0.25 405.125 0.25 430.066406 C 19.953125 430.066406 38.910156 430.066406 57.617188 430.066406 C 57.617188 418.84375 57.617188 408.617188 57.617188 397.394531 C 48.136719 397.394531 39.160156 397.394531 29.679688 397.394531 C 29.929688 393.652344 29.929688 390.90625 30.179688 388.164062 C 42.902344 388.164062 54.871094 388.164062 66.84375 388.164062 C 66.84375 406.121094 66.84375 423.332031 66.84375 441.289062 C 44.148438 441.289062 22.449219 441.289062 0.25 441.289062 C 0.25 467.480469 0.25 492.921875 0.25 518.613281 C 19.703125 518.613281 38.660156 518.613281 57.617188 518.613281 C 57.617188 507.386719 57.617188 496.910156 57.617188 485.1875 C 47.890625 485.1875 39.160156 485.1875 29.433594 485.1875 C 29.929688 481.199219 30.179688 478.703125 30.429688 475.710938 C 42.902344 475.710938 54.625 475.710938 66.84375 475.710938 C 66.84375 493.667969 66.84375 511.128906 66.84375 529.835938 C 43.898438 529.835938 21.949219 529.835938 0 529.835938 C 0 556.023438 0 580.71875 0 605.910156 C 19.703125 605.910156 38.660156 605.910156 57.617188 605.910156 C 57.617188 594.683594 57.617188 584.210938 57.617188 572.984375 C 48.136719 572.984375 39.160156 572.984375 30.179688 572.984375 C 30.179688 569.242188 30.179688 566.5 30.179688 563.757812 C 42.902344 563.757812 54.871094 563.757812 67.09375 563.757812 C 67.09375 581.964844 67.09375 598.925781 67.09375 617.882812 C 44.398438 617.882812 22.449219 617.882812 0.5 617.882812 C 0.5 644.320312 0.5 669.261719 0.5 694.203125 C 20.203125 694.203125 38.660156 694.203125 57.617188 694.203125 C 57.617188 682.980469 57.617188 672.503906 57.617188 661.03125 C 48.136719 661.03125 39.160156 661.03125 29.679688 661.03125 C 29.929688 657.289062 30.179688 654.546875 30.429688 652.050781 C 42.902344 652.050781 54.625 652.050781 66.59375 652.050781 C 66.59375 670.011719 66.59375 687.46875 66.59375 705.675781 C 44.398438 705.675781 23.195312 705.675781 1.996094 705.675781 C 1.996094 709.667969 1.996094 712.910156 1.996094 716.152344 C 27.4375 716.152344 52.378906 716.152344 77.320312 716.152344 C 77.320312 690.214844 77.320312 665.269531 77.320312 640.578125 C 57.617188 640.578125 38.660156 640.578125 19.953125 640.578125 C 19.953125 651.800781 19.953125 662.027344 19.953125 673.253906 C 29.183594 673.253906 37.664062 673.253906 46.640625 673.253906 C 46.640625 676.992188 46.640625 679.988281 46.640625 682.730469 C 34.171875 682.730469 22.449219 682.730469 10.476562 682.730469 C 10.476562 664.773438 10.476562 647.3125 10.476562 629.105469 C 33.171875 629.105469 55.121094 629.105469 77.320312 629.105469 C 77.320312 602.914062 77.320312 577.476562 77.320312 552.285156 C 57.617188 552.285156 38.660156 552.285156 19.703125 552.285156 C 19.703125 563.257812 19.703125 573.734375 19.703125 585.207031 C 28.933594 585.207031 37.910156 585.207031 47.640625 585.207031 C 47.140625 589.445312 46.890625 592.441406 46.640625 594.933594 C 33.671875 594.933594 22.199219 594.933594 10.226562 594.933594 C 10.226562 576.976562 10.226562 559.765625 10.226562 541.308594 C 32.921875 541.308594 55.121094 541.308594 77.570312 541.308594 C 77.570312 514.871094 77.570312 489.929688 77.570312 464.238281 C 58.113281 464.238281 39.410156 464.238281 20.203125 464.238281 C 20.203125 475.460938 20.203125 485.9375 20.203125 497.410156 C 29.433594 497.410156 38.160156 497.410156 47.390625 497.410156 C 47.140625 501.402344 47.140625 504.394531 46.890625 507.386719 C 34.171875 507.386719 22.449219 507.386719 10.226562 507.386719 C 10.226562 489.179688 10.226562 471.96875 10.226562 453.011719 C 32.921875 453.011719 55.121094 453.011719 78.070312 453.011719 C 78.070312 439.046875 78.070312 426.574219 78.070312 414.105469 C 78.070312 401.632812 78.070312 389.160156 78.070312 376.941406 C 57.617188 376.941406 38.660156 376.941406 19.953125 376.941406 C 19.953125 387.914062 19.953125 398.390625 19.953125 409.363281 C 29.183594 409.363281 37.664062 409.363281 46.890625 409.363281 C 46.890625 413.105469 46.890625 416.097656 46.890625 419.09375 C 34.421875 419.09375 22.699219 419.09375 10.476562 419.09375 C 10.476562 400.636719 10.476562 383.425781 10.476562 364.46875 Z M 10.476562 364.46875 " fill-opacity="1" fill-rule="nonzero"/></g><g clip-path="url(#5927edd1dc)"><path fill="#38b6ff" d="M 800.972656 809.6875 C 775.53125 809.6875 750.839844 809.6875 724.648438 809.6875 C 724.648438 787.238281 724.648438 765.039062 724.648438 742.34375 C 706.191406 742.34375 688.980469 742.34375 671.023438 742.34375 C 671.023438 753.816406 671.023438 765.539062 671.023438 778.507812 C 673.269531 778.757812 676.011719 779.257812 680.003906 779.753906 C 680.003906 770.027344 680.003906 761.546875 680.003906 752.320312 C 691.476562 752.320312 701.953125 752.320312 712.925781 752.320312 C 712.925781 771.273438 712.925781 789.980469 712.925781 809.4375 C 687.984375 809.4375 663.042969 809.4375 636.605469 809.4375 C 636.605469 787.488281 636.605469 765.289062 636.605469 742.34375 C 617.898438 742.34375 600.4375 742.34375 582.230469 742.34375 C 582.230469 754.066406 582.230469 765.789062 582.230469 778.757812 C 584.972656 779.007812 587.71875 779.007812 591.707031 779.257812 C 591.707031 769.777344 591.707031 761.050781 591.707031 752.070312 C 602.933594 752.070312 613.160156 752.070312 624.382812 752.070312 C 624.382812 771.273438 624.382812 790.480469 624.382812 809.9375 C 599.191406 809.9375 574.496094 809.9375 548.308594 809.9375 C 548.308594 787.488281 548.308594 765.289062 548.308594 742.34375 C 529.601562 742.34375 512.144531 742.34375 493.933594 742.34375 C 493.933594 754.066406 493.933594 765.789062 493.933594 778.507812 C 496.429688 778.757812 499.421875 779.257812 503.664062 779.753906 C 503.664062 769.777344 503.664062 761.050781 503.664062 751.820312 C 515.386719 751.820312 525.613281 751.820312 536.835938 751.820312 C 536.835938 770.777344 536.835938 789.484375 536.835938 809.4375 C 511.644531 809.4375 486.203125 809.4375 460.011719 809.4375 C 460.011719 787.488281 460.011719 765.289062 460.011719 742.34375 C 441.554688 742.34375 424.097656 742.34375 405.890625 742.34375 C 405.890625 754.316406 405.890625 766.039062 405.890625 778.757812 C 408.632812 779.007812 411.625 779.257812 415.617188 779.507812 C 415.617188 770.027344 415.617188 761.546875 415.617188 752.070312 C 427.089844 752.070312 437.566406 752.070312 448.789062 752.070312 C 448.789062 771.273438 448.789062 789.980469 448.789062 809.4375 C 423.347656 809.4375 398.40625 809.4375 372.464844 809.4375 C 372.464844 786.738281 372.464844 764.539062 372.464844 741.84375 C 354.007812 741.84375 336.550781 741.84375 318.34375 741.84375 C 318.34375 754.066406 318.34375 765.789062 318.34375 778.257812 C 321.335938 778.257812 324.328125 778.257812 327.820312 778.257812 C 327.820312 769.28125 327.820312 761.050781 327.820312 751.820312 C 339.042969 751.820312 349.519531 751.820312 360.742188 751.820312 C 360.742188 770.777344 360.742188 789.734375 360.742188 809.1875 C 335.550781 809.1875 310.859375 809.1875 285.417969 809.1875 C 285.417969 783.746094 285.417969 758.304688 285.417969 732.117188 C 288.660156 732.117188 291.902344 732.117188 295.894531 732.117188 C 295.894531 754.066406 295.894531 775.515625 295.894531 797.964844 C 313.851562 797.964844 331.3125 797.964844 349.269531 797.964844 C 349.269531 785.992188 349.269531 774.269531 349.269531 761.796875 C 346.027344 761.796875 343.285156 761.796875 339.542969 761.796875 C 339.542969 771.273438 339.542969 779.753906 339.542969 788.984375 C 328.570312 788.984375 318.34375 788.984375 307.117188 788.984375 C 307.117188 770.027344 307.117188 751.320312 307.117188 731.617188 C 332.058594 731.617188 357.003906 731.617188 383.191406 731.617188 C 383.191406 753.816406 383.191406 775.515625 383.191406 798.210938 C 401.898438 798.210938 419.359375 798.210938 437.316406 798.210938 C 437.316406 786.242188 437.316406 774.519531 437.316406 762.046875 C 434.820312 761.796875 432.078125 761.296875 428.085938 760.800781 C 428.085938 770.277344 428.085938 779.257812 428.085938 788.984375 C 416.363281 788.984375 405.890625 788.984375 394.664062 788.984375 C 394.664062 770.027344 394.664062 751.070312 394.664062 731.617188 C 420.105469 731.617188 445.046875 731.617188 471.238281 731.617188 C 471.238281 753.816406 471.238281 775.515625 471.238281 798.210938 C 489.695312 798.210938 507.152344 798.210938 525.363281 798.210938 C 525.363281 786.488281 525.363281 774.765625 525.363281 761.796875 C 522.617188 761.546875 519.625 761.296875 515.136719 760.800781 C 515.136719 771.027344 515.136719 780.003906 515.136719 789.234375 C 503.164062 789.234375 492.9375 789.234375 481.960938 789.234375 C 481.960938 770.027344 481.960938 751.320312 481.960938 731.867188 C 506.90625 731.867188 532.347656 731.867188 558.785156 731.867188 C 558.785156 753.316406 558.785156 775.015625 558.785156 797.714844 C 577.492188 797.714844 594.949219 797.714844 613.160156 797.714844 C 613.160156 785.992188 613.160156 774.019531 613.160156 761.546875 C 609.667969 761.546875 606.671875 761.546875 602.683594 761.546875 C 602.683594 771.027344 602.683594 780.003906 602.683594 789.234375 C 591.210938 789.234375 580.984375 789.234375 570.257812 789.234375 C 570.257812 770.027344 570.257812 751.320312 570.257812 731.867188 C 595.449219 731.867188 620.890625 731.867188 647.328125 731.867188 C 647.328125 753.566406 647.328125 775.265625 647.328125 797.964844 C 665.785156 797.964844 683.246094 797.964844 701.203125 797.964844 C 701.203125 786.242188 701.203125 774.765625 701.203125 762.046875 C 698.710938 761.796875 695.714844 761.296875 691.476562 760.800781 C 691.476562 770.777344 691.476562 779.753906 691.476562 789.234375 C 680.253906 789.234375 670.027344 789.234375 658.800781 789.234375 C 658.800781 770.277344 658.800781 751.320312 658.800781 731.867188 C 683.746094 731.867188 708.6875 731.867188 735.125 731.867188 C 735.125 753.816406 735.125 775.765625 735.125 798.210938 C 753.832031 798.210938 771.292969 798.210938 789.5 798.210938 C 789.5 786.242188 789.5 774.519531 789.5 762.046875 C 786.753906 761.796875 784.011719 761.546875 780.269531 761.296875 C 780.269531 770.777344 780.269531 779.753906 780.269531 789.234375 C 769.046875 789.234375 758.820312 789.234375 747.597656 789.234375 C 747.597656 770.527344 747.597656 751.570312 747.597656 731.867188 C 772.539062 731.867188 797.480469 731.867188 823.667969 731.867188 C 823.667969 754.066406 823.667969 775.765625 823.667969 798.210938 C 842.375 798.210938 859.835938 798.210938 878.042969 798.210938 C 878.042969 786.242188 878.042969 774.519531 878.042969 761.796875 C 875.050781 761.546875 872.058594 761.546875 867.566406 761.296875 C 867.566406 771.027344 867.566406 780.003906 867.566406 789.234375 C 856.09375 789.234375 845.867188 789.234375 834.644531 789.234375 C 834.644531 770.027344 834.644531 751.320312 834.644531 731.617188 C 860.085938 731.617188 885.527344 731.617188 911.964844 731.617188 C 911.964844 753.566406 911.964844 775.515625 911.964844 797.964844 C 930.421875 797.964844 947.882812 797.964844 966.089844 797.964844 C 966.089844 785.742188 966.089844 774.019531 966.089844 761.546875 C 963.097656 761.546875 960.101562 761.546875 955.863281 761.546875 C 955.863281 770.777344 955.863281 779.507812 955.863281 788.984375 C 944.390625 788.984375 934.164062 788.984375 923.1875 788.984375 C 923.1875 770.027344 923.1875 751.070312 923.1875 731.617188 C 948.628906 731.617188 973.820312 731.617188 1000.261719 731.617188 C 1000.261719 753.566406 1000.261719 775.265625 1000.261719 797.964844 C 1018.21875 797.964844 1035.429688 797.964844 1053.386719 797.964844 C 1053.386719 785.992188 1053.386719 774.019531 1053.386719 761.546875 C 1050.644531 761.546875 1047.898438 761.546875 1044.160156 761.546875 C 1044.160156 771.027344 1044.160156 779.753906 1044.160156 789.234375 C 1032.683594 789.234375 1022.457031 789.234375 1011.484375 789.234375 C 1011.484375 770.027344 1011.484375 751.070312 1011.484375 731.617188 C 1036.925781 731.617188 1061.867188 731.617188 1088.054688 731.617188 C 1088.054688 753.816406 1088.054688 775.515625 1088.054688 797.964844 C 1106.511719 797.964844 1123.972656 797.964844 1142.179688 797.964844 C 1142.179688 785.992188 1142.179688 774.269531 1142.179688 761.796875 C 1139.6875 761.546875 1136.941406 761.050781 1132.953125 760.550781 C 1132.953125 770.277344 1132.953125 779.007812 1132.953125 788.734375 C 1121.480469 788.734375 1111.253906 788.734375 1100.027344 788.734375 C 1100.027344 770.277344 1100.027344 751.320312 1100.027344 731.367188 C 1124.972656 731.367188 1150.164062 731.367188 1176.101562 731.367188 C 1176.101562 753.816406 1176.101562 775.515625 1176.101562 797.964844 C 1194.808594 797.964844 1212.019531 797.964844 1230.226562 797.964844 C 1230.226562 785.742188 1230.226562 774.019531 1230.226562 761.796875 C 1227.234375 761.546875 1224.488281 761.050781 1220.5 760.800781 C 1220 770.527344 1219.5 779.753906 1219.253906 789.484375 C 1208.277344 789.484375 1198.050781 789.484375 1187.078125 789.484375 C 1187.078125 770.277344 1187.078125 751.320312 1187.078125 731.867188 C 1212.269531 731.867188 1237.710938 731.867188 1264.148438 731.867188 C 1264.148438 754.066406 1264.148438 775.765625 1264.148438 798.210938 C 1282.605469 798.210938 1300.066406 798.210938 1318.273438 798.210938 C 1318.273438 786.242188 1318.273438 774.519531 1318.273438 761.796875 C 1315.03125 761.546875 1312.285156 761.296875 1308.046875 761.050781 C 1308.046875 770.777344 1308.046875 779.753906 1308.046875 789.234375 C 1296.574219 789.234375 1286.347656 789.234375 1275.371094 789.234375 C 1275.371094 770.027344 1275.371094 751.320312 1275.371094 731.617188 C 1300.8125 731.617188 1326.253906 731.617188 1352.691406 731.617188 C 1352.691406 754.066406 1352.691406 775.765625 1352.691406 798.210938 C 1370.898438 798.210938 1387.859375 798.210938 1405.820312 798.210938 C 1405.820312 785.992188 1405.820312 774.519531 1405.820312 761.796875 C 1402.824219 761.796875 1400.082031 761.796875 1396.339844 761.796875 C 1396.339844 771.027344 1396.339844 779.507812 1396.339844 788.984375 C 1385.367188 788.984375 1375.140625 788.984375 1363.917969 788.984375 C 1363.917969 770.527344 1363.917969 751.570312 1363.917969 731.867188 C 1388.609375 731.867188 1413.550781 731.867188 1439.242188 731.867188 C 1439.242188 756.558594 1439.242188 781.5 1439.242188 807.441406 C 1436 807.691406 1433.007812 807.691406 1428.765625 807.941406 C 1428.765625 785.742188 1428.765625 764.292969 1428.765625 742.09375 C 1410.558594 742.09375 1393.347656 742.09375 1375.390625 742.09375 C 1375.390625 753.816406 1375.390625 765.789062 1375.390625 778.507812 C 1378.132812 778.757812 1380.628906 778.757812 1384.367188 779.007812 C 1384.367188 769.777344 1384.367188 761.296875 1384.367188 751.820312 C 1395.84375 751.820312 1406.316406 751.820312 1417.542969 751.820312 C 1417.542969 771.027344 1417.542969 789.734375 1417.542969 809.1875 C 1392.351562 809.1875 1367.65625 809.1875 1341.71875 809.1875 C 1341.71875 786.988281 1341.71875 765.039062 1341.71875 741.84375 C 1323.011719 741.84375 1305.550781 741.84375 1287.09375 741.84375 C 1287.09375 753.316406 1287.09375 764.789062 1287.09375 778.007812 C 1289.089844 778.257812 1292.082031 778.757812 1296.074219 779.257812 C 1296.074219 769.53125 1296.074219 761.050781 1296.074219 751.820312 C 1307.546875 751.820312 1318.023438 751.820312 1329.496094 751.820312 C 1329.496094 770.777344 1329.496094 789.484375 1329.496094 809.1875 C 1304.304688 809.1875 1279.363281 809.1875 1253.171875 809.1875 C 1253.171875 786.988281 1253.171875 764.789062 1253.171875 742.09375 C 1234.46875 742.09375 1217.257812 742.09375 1198.800781 742.09375 C 1198.800781 754.066406 1198.800781 765.789062 1198.800781 778.507812 C 1201.792969 778.757812 1204.535156 779.007812 1208.777344 779.507812 C 1208.777344 770.027344 1208.777344 761.546875 1208.777344 752.070312 C 1220.25 752.070312 1230.976562 752.070312 1241.949219 752.070312 C 1241.949219 770.777344 1241.949219 789.484375 1241.949219 808.9375 C 1216.757812 808.9375 1191.316406 808.9375 1164.878906 808.9375 C 1164.878906 787.238281 1164.878906 765.039062 1164.878906 742.09375 C 1146.171875 742.09375 1128.710938 742.09375 1110.753906 742.09375 C 1110.753906 754.066406 1110.753906 765.789062 1110.753906 778.257812 C 1113.746094 778.257812 1116.738281 778.257812 1120.730469 778.257812 C 1120.730469 769.28125 1120.730469 760.800781 1120.730469 751.570312 C 1132.203125 751.570312 1142.429688 751.570312 1153.40625 751.570312 C 1153.40625 770.527344 1153.40625 789.234375 1153.40625 808.9375 C 1128.214844 808.9375 1103.023438 808.9375 1076.582031 808.9375 C 1076.582031 786.488281 1076.582031 764.789062 1076.582031 742.09375 C 1058.375 742.09375 1040.914062 742.09375 1022.957031 742.09375 C 1022.957031 753.816406 1022.957031 765.539062 1022.957031 778.257812 C 1025.949219 778.257812 1028.695312 778.257812 1032.683594 778.257812 C 1032.683594 769.28125 1032.683594 760.800781 1032.683594 751.570312 C 1043.910156 751.570312 1054.136719 751.570312 1065.109375 751.570312 C 1065.109375 770.777344 1065.109375 789.734375 1065.109375 809.1875 C 1039.917969 809.1875 1014.976562 809.1875 988.785156 809.1875 C 988.785156 786.738281 988.785156 764.539062 988.785156 741.84375 C 970.082031 741.84375 952.621094 741.84375 934.414062 741.84375 C 934.414062 754.066406 934.414062 765.789062 934.414062 778.257812 C 937.15625 778.757812 939.652344 779.007812 943.890625 779.507812 C 943.890625 769.777344 943.890625 761.050781 943.890625 751.820312 C 955.613281 751.820312 965.839844 751.820312 977.0625 751.820312 C 977.0625 770.777344 977.0625 789.734375 977.0625 809.1875 C 952.121094 809.1875 927.179688 809.1875 900.992188 809.1875 C 900.992188 787.238281 900.992188 765.039062 900.992188 742.09375 C 882.285156 742.09375 864.824219 742.09375 846.617188 742.09375 C 846.617188 754.066406 846.617188 766.039062 846.617188 778.757812 C 849.609375 779.007812 852.351562 779.007812 856.59375 779.257812 C 856.59375 769.777344 856.59375 761.050781 856.59375 751.820312 C 868.316406 751.820312 878.542969 751.820312 889.765625 751.820312 C 889.765625 770.777344 889.765625 789.734375 889.765625 809.1875 C 864.074219 809.1875 838.882812 809.1875 812.695312 809.1875 C 812.695312 786.738281 812.695312 764.789062 812.695312 742.09375 C 794.488281 742.09375 777.027344 742.09375 758.820312 742.09375 C 758.820312 754.066406 758.820312 765.789062 758.820312 778.507812 C 761.8125 778.757812 764.558594 778.757812 768.796875 779.007812 C 768.796875 769.53125 768.796875 761.050781 768.796875 751.820312 C 780.019531 751.820312 790.496094 751.820312 801.472656 751.820312 C 800.972656 770.777344 800.972656 789.730469 800.972656 809.6875 Z M 1064.859375 21.015625 C 1053.886719 21.015625 1043.660156 21.015625 1032.1875 21.015625 C 1032.1875 30.492188 1032.1875 39.222656 1032.1875 48.453125 C 1028.445312 48.453125 1025.699219 48.453125 1022.957031 48.453125 C 1022.957031 35.730469 1022.957031 23.757812 1022.957031 11.789062 C 1040.914062 11.789062 1058.125 11.789062 1076.332031 11.789062 C 1076.332031 34.234375 1076.332031 56.183594 1076.332031 78.132812 C 1102.773438 78.132812 1127.964844 78.132812 1153.40625 78.132812 C 1153.40625 58.679688 1153.40625 40.222656 1153.40625 21.015625 C 1142.429688 21.015625 1132.203125 21.015625 1120.730469 21.015625 C 1120.730469 30.246094 1120.730469 38.972656 1120.730469 48.453125 C 1116.492188 48.453125 1113.746094 48.453125 1110.503906 48.453125 C 1110.503906 35.730469 1110.503906 24.257812 1110.503906 11.789062 C 1128.460938 11.789062 1145.921875 11.789062 1164.378906 11.789062 C 1164.378906 34.234375 1164.378906 56.183594 1164.378906 78.132812 C 1190.816406 78.132812 1216.257812 78.132812 1241.949219 78.132812 C 1241.949219 58.929688 1241.949219 40.222656 1241.949219 21.015625 C 1230.976562 21.015625 1220.25 21.015625 1208.527344 21.015625 C 1208.527344 30.246094 1208.527344 39.222656 1208.527344 49.199219 C 1204.285156 48.949219 1201.292969 48.703125 1198.300781 48.453125 C 1198.300781 35.730469 1198.300781 24.007812 1198.300781 11.789062 C 1216.507812 11.789062 1233.96875 11.789062 1252.675781 11.789062 C 1252.675781 34.484375 1252.675781 56.433594 1252.675781 78.632812 C 1278.863281 78.632812 1303.554688 78.632812 1328.996094 78.632812 C 1328.996094 59.175781 1328.996094 40.46875 1328.996094 21.265625 C 1317.773438 21.265625 1307.296875 21.265625 1295.574219 21.265625 C 1295.574219 30.742188 1295.574219 39.722656 1295.574219 49.699219 C 1291.585938 48.949219 1288.589844 48.453125 1286.097656 47.953125 C 1286.097656 35.234375 1286.097656 23.757812 1286.097656 12.035156 C 1304.304688 12.035156 1322.011719 12.035156 1340.96875 12.035156 C 1340.96875 34.734375 1340.96875 56.433594 1340.96875 78.382812 C 1366.910156 78.382812 1391.601562 78.382812 1416.792969 78.382812 C 1416.792969 58.929688 1416.792969 40.222656 1416.792969 21.015625 C 1405.820312 21.015625 1395.59375 21.015625 1384.121094 21.015625 C 1384.121094 30.492188 1384.121094 39.222656 1384.121094 48.453125 C 1380.378906 48.453125 1377.632812 48.453125 1374.890625 48.453125 C 1374.890625 35.730469 1374.890625 23.757812 1374.890625 11.789062 C 1392.847656 11.789062 1410.058594 11.789062 1428.019531 11.789062 C 1428.019531 33.734375 1428.019531 54.6875 1428.019531 76.636719 C 1432.257812 76.636719 1435.5 76.636719 1438.992188 76.636719 C 1438.992188 51.195312 1438.992188 26.253906 1438.992188 1.0625 C 1413.300781 1.0625 1388.109375 1.0625 1363.417969 1.0625 C 1363.417969 20.765625 1363.417969 39.722656 1363.417969 58.429688 C 1374.640625 58.429688 1384.867188 58.429688 1395.84375 58.429688 C 1395.84375 49.199219 1395.84375 40.71875 1395.84375 31.742188 C 1399.582031 31.742188 1402.578125 31.742188 1405.570312 31.742188 C 1405.570312 44.210938 1405.570312 55.933594 1405.570312 68.15625 C 1387.859375 68.15625 1370.652344 68.15625 1352.195312 68.15625 C 1352.195312 45.460938 1352.195312 23.261719 1352.195312 0.8125 C 1325.503906 0.8125 1300.066406 0.8125 1274.871094 0.8125 C 1274.871094 20.515625 1274.871094 39.222656 1274.871094 58.429688 C 1285.847656 58.429688 1296.074219 58.429688 1307.796875 58.429688 C 1307.796875 48.949219 1307.796875 40.222656 1307.796875 30.742188 C 1312.035156 30.992188 1315.03125 31.242188 1318.023438 31.492188 C 1318.023438 44.210938 1318.023438 55.933594 1318.023438 68.15625 C 1299.816406 68.15625 1282.355469 68.15625 1263.898438 68.15625 C 1263.898438 45.210938 1263.898438 23.261719 1263.898438 1.0625 C 1237.460938 1.0625 1212.019531 1.0625 1186.828125 1.0625 C 1186.828125 20.765625 1186.828125 39.722656 1186.828125 58.429688 C 1198.050781 58.429688 1208.277344 58.429688 1219.003906 58.429688 C 1219.5 48.949219 1219.75 40.222656 1220.25 30.742188 C 1224.242188 30.992188 1226.984375 31.242188 1229.726562 31.492188 C 1229.726562 44.210938 1229.726562 56.183594 1229.726562 67.90625 C 1211.269531 67.90625 1193.8125 67.90625 1175.105469 67.90625 C 1175.105469 44.960938 1175.105469 22.761719 1175.105469 0.8125 C 1149.164062 0.8125 1124.472656 0.8125 1099.28125 0.8125 C 1099.28125 20.265625 1099.28125 39.222656 1099.28125 58.179688 C 1110.503906 58.179688 1120.980469 58.179688 1132.453125 58.179688 C 1132.453125 48.949219 1132.453125 40.222656 1132.453125 31.242188 C 1135.945312 31.242188 1138.6875 31.242188 1141.683594 31.242188 C 1141.683594 43.714844 1141.683594 55.683594 1141.683594 67.90625 C 1123.472656 67.90625 1106.015625 67.90625 1087.308594 67.90625 C 1087.308594 44.960938 1087.308594 22.761719 1087.308594 0.8125 C 1061.117188 0.8125 1035.925781 0.8125 1011.234375 0.8125 C 1011.234375 20.515625 1011.234375 39.472656 1011.234375 58.179688 C 1022.457031 58.179688 1032.683594 58.179688 1043.660156 58.179688 C 1043.660156 48.949219 1043.660156 40.472656 1043.660156 30.992188 C 1047.648438 31.242188 1050.394531 31.242188 1053.136719 31.492188 C 1053.136719 44.210938 1053.136719 55.933594 1053.136719 68.15625 C 1035.429688 68.15625 1018.21875 68.15625 999.761719 68.15625 C 999.761719 45.460938 999.761719 23.261719 999.761719 0.8125 C 973.074219 0.8125 947.882812 0.8125 922.441406 0.8125 C 922.441406 20.515625 922.441406 39.222656 922.441406 58.179688 C 933.414062 58.179688 943.640625 58.179688 955.363281 58.179688 C 955.363281 48.703125 955.363281 39.972656 955.363281 31.242188 C 959.605469 31.242188 962.097656 31.242188 965.339844 31.242188 C 965.339844 43.714844 965.339844 55.683594 965.339844 67.90625 C 947.132812 67.90625 929.675781 67.90625 910.96875 67.90625 C 910.96875 44.960938 910.96875 22.761719 910.96875 0.8125 C 884.777344 0.8125 859.585938 0.8125 833.894531 0.8125 C 833.894531 20.265625 833.894531 39.222656 833.894531 58.179688 C 844.871094 58.179688 855.347656 58.179688 866.820312 58.179688 C 866.820312 48.949219 866.820312 40.472656 866.820312 31.492188 C 870.808594 31.492188 873.804688 31.492188 877.046875 31.492188 C 877.046875 44.210938 877.046875 56.183594 877.046875 67.90625 C 858.589844 67.90625 841.128906 67.90625 822.421875 67.90625 C 822.421875 44.960938 822.421875 22.761719 822.421875 0.8125 C 796.484375 0.8125 771.789062 0.8125 746.597656 0.8125 C 746.597656 20.265625 746.597656 39.222656 746.597656 58.429688 C 757.574219 58.429688 767.800781 58.429688 779.273438 58.429688 C 779.273438 49.199219 779.273438 40.222656 779.273438 30.742188 C 783.261719 30.992188 785.757812 31.242188 788.5 31.242188 C 788.5 43.960938 788.5 55.933594 788.5 68.15625 C 770.542969 68.15625 753.332031 68.15625 734.625 68.15625 C 734.625 45.460938 734.625 23.261719 734.625 0.8125 C 708.1875 0.8125 683.246094 0.8125 658.054688 0.8125 C 658.054688 20.265625 658.054688 39.222656 658.054688 58.429688 C 669.027344 58.429688 679.253906 58.429688 690.726562 58.429688 C 690.726562 49.199219 690.726562 40.222656 690.726562 30.742188 C 694.71875 30.992188 697.460938 31.242188 700.207031 31.242188 C 700.207031 43.960938 700.207031 55.933594 700.207031 67.90625 C 682.246094 67.90625 665.039062 67.90625 646.582031 67.90625 C 646.582031 44.960938 646.582031 22.761719 646.582031 0.5625 C 620.140625 0.5625 595.199219 0.5625 569.507812 0.5625 C 569.507812 20.019531 569.507812 38.972656 569.507812 57.929688 C 580.734375 57.929688 591.210938 57.929688 602.433594 57.929688 C 602.433594 48.453125 602.433594 39.972656 602.433594 30.492188 C 606.425781 30.742188 609.417969 30.992188 612.660156 30.992188 C 612.660156 43.714844 612.660156 55.4375 612.660156 67.65625 C 594.453125 67.65625 576.992188 67.65625 558.535156 67.65625 C 558.535156 44.960938 558.535156 22.761719 558.535156 0.5625 C 532.097656 0.5625 506.65625 0.5625 481.464844 0.5625 C 481.464844 20.265625 481.464844 39.222656 481.464844 57.929688 C 492.6875 57.929688 502.914062 57.929688 513.640625 57.929688 C 514.136719 48.453125 514.386719 39.722656 514.886719 30.246094 C 518.878906 30.492188 521.621094 30.742188 524.363281 30.992188 C 524.363281 43.714844 524.363281 55.683594 524.363281 67.410156 C 505.90625 67.410156 488.695312 67.410156 469.992188 67.410156 C 469.992188 44.460938 469.992188 22.511719 469.992188 0.3125 C 443.800781 0.3125 418.859375 0.3125 393.917969 0.3125 C 393.917969 20.019531 393.917969 38.726562 393.917969 57.679688 C 405.140625 57.679688 415.367188 57.679688 426.839844 57.679688 C 426.839844 48.203125 426.839844 39.472656 426.839844 29.996094 C 430.832031 30.492188 433.574219 30.742188 436.320312 30.992188 C 436.320312 43.464844 436.320312 55.1875 436.320312 67.410156 C 418.359375 67.410156 400.902344 67.410156 382.195312 67.410156 C 382.195312 44.460938 382.195312 22.261719 382.195312 0.0625 C 357.253906 0.8125 332.058594 0.8125 307.117188 0.8125 C 307.117188 20.515625 307.117188 39.222656 307.117188 58.429688 C 318.09375 58.429688 328.320312 58.429688 339.792969 58.429688 C 339.792969 48.949219 339.792969 40.222656 339.792969 30.742188 C 343.785156 30.992188 346.527344 31.242188 349.269531 31.492188 C 349.269531 43.960938 349.269531 55.683594 349.269531 67.90625 C 331.3125 67.90625 314.101562 67.90625 295.644531 67.90625 C 295.644531 45.210938 295.644531 23.261719 295.644531 0.8125 C 291.652344 0.8125 288.660156 0.8125 285.417969 0.8125 C 285.417969 26.753906 285.417969 52.441406 285.417969 78.132812 C 310.859375 78.132812 335.550781 78.132812 360.496094 78.132812 C 360.496094 58.679688 360.496094 39.722656 360.496094 20.765625 C 349.519531 20.765625 339.042969 20.765625 327.820312 20.765625 C 327.820312 30.246094 327.820312 38.972656 327.820312 48.203125 C 324.078125 48.203125 321.335938 48.203125 318.589844 48.203125 C 318.589844 35.480469 318.589844 23.511719 318.589844 11.789062 C 336.800781 11.789062 354.257812 11.789062 372.714844 11.789062 C 372.714844 34.484375 372.714844 56.433594 372.714844 78.382812 C 398.90625 78.382812 423.847656 78.382812 448.789062 78.382812 C 448.789062 58.929688 448.789062 39.972656 448.789062 21.015625 C 437.816406 21.015625 427.339844 21.015625 415.867188 21.015625 C 415.867188 30.492188 415.867188 39.472656 415.867188 49.199219 C 411.625 48.703125 408.632812 48.453125 406.136719 48.203125 C 406.136719 35.234375 406.136719 23.511719 406.136719 11.789062 C 424.597656 11.789062 441.804688 11.789062 460.261719 11.789062 C 460.261719 34.484375 460.261719 56.183594 460.261719 78.132812 C 486.703125 78.132812 511.894531 78.132812 537.335938 78.132812 C 537.335938 58.679688 537.335938 40.222656 537.335938 21.015625 C 526.109375 21.015625 515.632812 21.015625 503.664062 21.015625 C 503.664062 30.492188 503.664062 39.472656 503.664062 49.449219 C 499.421875 48.703125 496.429688 48.453125 493.933594 47.953125 C 493.933594 34.984375 493.933594 23.261719 493.933594 11.789062 C 512.390625 11.789062 529.851562 11.789062 548.058594 11.789062 C 548.058594 34.484375 548.058594 56.183594 548.058594 78.132812 C 574 78.132812 599.191406 78.132812 624.382812 78.132812 C 624.382812 58.679688 624.382812 39.722656 624.382812 21.015625 C 612.910156 21.015625 602.433594 21.015625 591.210938 21.015625 C 591.210938 30.492188 591.210938 38.972656 591.210938 48.703125 C 587.46875 48.453125 584.722656 48.203125 581.980469 47.953125 C 581.980469 34.984375 581.980469 23.261719 581.980469 11.289062 C 600.1875 11.289062 617.648438 11.289062 636.605469 11.289062 C 636.605469 33.984375 636.605469 56.183594 636.605469 77.632812 C 662.792969 77.632812 687.484375 77.632812 712.675781 77.632812 C 712.675781 58.179688 712.675781 39.722656 712.675781 20.515625 C 701.703125 20.515625 690.976562 20.515625 679.503906 20.515625 C 679.503906 30.246094 679.503906 38.972656 679.503906 48.703125 C 675.761719 48.203125 673.019531 47.953125 670.277344 47.703125 C 670.277344 35.234375 670.277344 23.511719 670.277344 11.289062 C 688.234375 11.289062 705.695312 11.289062 724.398438 11.289062 C 724.398438 33.984375 724.398438 55.683594 724.398438 77.632812 C 750.589844 77.632812 775.53125 77.632812 800.972656 77.632812 C 800.972656 58.179688 800.972656 39.722656 800.972656 20.765625 C 789.996094 20.765625 779.523438 20.765625 768.050781 20.765625 C 768.050781 30.246094 768.050781 38.726562 768.050781 47.703125 C 764.058594 47.703125 761.316406 47.703125 758.070312 47.703125 C 758.070312 34.984375 758.070312 23.511719 758.070312 11.289062 C 776.28125 11.289062 793.488281 11.289062 812.195312 11.289062 C 812.195312 33.738281 812.195312 55.683594 812.195312 77.632812 C 838.636719 77.632812 863.828125 77.632812 889.515625 77.632812 C 889.515625 58.179688 889.515625 39.722656 889.515625 20.515625 C 878.292969 20.515625 867.816406 20.515625 856.09375 20.515625 C 856.09375 29.996094 856.09375 38.726562 856.09375 48.703125 C 851.605469 48.203125 848.863281 47.953125 846.367188 47.453125 C 846.367188 34.484375 846.367188 22.761719 846.367188 11.039062 C 864.574219 11.039062 882.035156 11.039062 900.742188 11.039062 C 900.742188 33.738281 900.742188 55.4375 900.742188 77.386719 C 926.929688 77.386719 951.871094 77.386719 976.816406 77.386719 C 976.816406 57.679688 976.816406 38.972656 976.816406 20.269531 C 965.589844 20.269531 955.113281 20.269531 944.140625 20.269531 C 944.140625 29.496094 944.140625 37.976562 944.140625 47.453125 C 940.398438 47.453125 937.65625 47.453125 934.414062 47.453125 C 934.414062 34.984375 934.414062 23.261719 934.414062 10.789062 C 952.371094 10.789062 969.832031 10.789062 989.035156 10.789062 C 989.035156 33.238281 989.035156 55.1875 989.035156 77.386719 C 1015.476562 77.386719 1040.167969 77.386719 1065.109375 77.386719 C 1064.859375 58.929688 1064.859375 40.222656 1064.859375 21.015625 Z M 1419.039062 166.679688 C 1419.039062 155.453125 1419.039062 144.976562 1419.039062 133.503906 C 1409.5625 133.503906 1401.082031 133.503906 1391.601562 133.503906 C 1391.851562 129.515625 1392.101562 126.519531 1392.351562 123.777344 C 1405.070312 123.777344 1416.792969 123.777344 1428.765625 123.777344 C 1428.765625 141.984375 1428.765625 159.445312 1428.765625 177.652344 C 1405.820312 177.652344 1383.621094 177.652344 1361.421875 177.652344 C 1361.421875 203.839844 1361.421875 228.785156 1361.421875 254.472656 C 1380.878906 254.472656 1399.832031 254.472656 1419.289062 254.472656 C 1419.289062 243.5 1419.289062 232.773438 1419.289062 220.800781 C 1410.058594 220.800781 1401.328125 220.800781 1391.601562 220.800781 C 1391.851562 216.8125 1392.101562 214.066406 1392.351562 211.324219 C 1404.820312 211.324219 1416.542969 211.324219 1429.015625 211.324219 C 1429.015625 229.53125 1429.015625 246.992188 1429.015625 265.449219 C 1406.316406 265.449219 1384.121094 265.449219 1361.421875 265.449219 C 1361.421875 291.636719 1361.421875 316.582031 1361.421875 342.019531 C 1380.878906 342.019531 1399.832031 342.019531 1419.289062 342.019531 C 1419.289062 330.796875 1419.289062 320.320312 1419.289062 308.597656 C 1409.808594 308.597656 1400.832031 308.597656 1391.351562 308.597656 C 1391.851562 304.609375 1392.351562 302.113281 1392.601562 299.371094 C 1405.070312 299.371094 1416.792969 299.371094 1429.015625 299.371094 C 1429.015625 317.578125 1429.015625 334.789062 1429.015625 353.496094 C 1406.070312 353.496094 1384.121094 353.496094 1361.421875 353.496094 C 1361.421875 379.683594 1361.421875 404.625 1361.421875 429.816406 C 1380.878906 429.816406 1399.832031 429.816406 1418.789062 429.816406 C 1418.789062 418.59375 1418.789062 408.117188 1418.789062 396.644531 C 1409.3125 396.644531 1400.832031 396.644531 1392.101562 396.644531 C 1392.101562 393.152344 1392.101562 390.410156 1392.101562 387.414062 C 1404.820312 387.414062 1416.792969 387.414062 1428.765625 387.414062 C 1428.765625 405.375 1428.765625 422.585938 1428.765625 440.792969 C 1406.070312 440.792969 1383.871094 440.792969 1361.421875 440.792969 C 1361.421875 467.230469 1361.421875 492.671875 1361.421875 517.863281 C 1381.125 517.863281 1399.832031 517.863281 1419.039062 517.863281 C 1419.039062 506.640625 1419.039062 495.914062 1419.039062 484.191406 C 1409.5625 484.191406 1400.582031 484.191406 1391.101562 484.191406 C 1391.601562 480.199219 1391.851562 477.707031 1392.351562 474.960938 C 1404.820312 474.960938 1416.542969 474.960938 1429.015625 474.960938 C 1429.015625 492.921875 1429.015625 510.378906 1429.015625 528.835938 C 1406.316406 528.835938 1384.121094 528.835938 1361.421875 528.835938 C 1361.421875 555.027344 1361.421875 579.96875 1361.421875 605.660156 C 1380.878906 605.660156 1399.582031 605.660156 1419.289062 605.660156 C 1419.289062 594.683594 1419.289062 584.210938 1419.289062 572.488281 C 1410.058594 572.488281 1401.328125 572.488281 1391.851562 572.488281 C 1392.101562 568.746094 1392.101562 566 1392.351562 563.257812 C 1405.070312 563.257812 1417.042969 563.257812 1429.015625 563.257812 C 1429.015625 581.464844 1429.015625 598.925781 1429.015625 617.632812 C 1406.070312 617.632812 1383.871094 617.632812 1361.671875 617.632812 C 1361.671875 643.570312 1361.671875 668.265625 1361.671875 693.457031 C 1381.375 693.457031 1400.582031 693.457031 1419.289062 693.457031 C 1419.289062 682.230469 1419.289062 672.003906 1419.289062 660.78125 C 1410.058594 660.78125 1401.578125 660.78125 1392.601562 660.78125 C 1392.601562 657.039062 1392.601562 654.046875 1392.601562 651.304688 C 1405.320312 651.304688 1417.042969 651.304688 1429.015625 651.304688 C 1429.015625 669.261719 1429.015625 686.722656 1429.015625 705.179688 C 1406.566406 705.179688 1385.117188 705.179688 1363.167969 705.179688 C 1363.417969 709.417969 1363.667969 712.410156 1363.667969 715.65625 C 1389.359375 715.65625 1414.300781 715.65625 1439.242188 715.65625 C 1439.242188 689.714844 1439.242188 664.773438 1439.242188 640.078125 C 1419.539062 640.078125 1400.582031 640.078125 1381.625 640.078125 C 1381.625 651.054688 1381.625 661.28125 1381.625 672.753906 C 1391.101562 672.753906 1399.832031 672.753906 1409.0625 672.753906 C 1409.0625 676.746094 1409.0625 679.738281 1409.0625 682.230469 C 1396.339844 682.230469 1384.617188 682.230469 1372.644531 682.230469 C 1372.644531 664.273438 1372.644531 646.8125 1372.644531 628.355469 C 1395.34375 628.355469 1417.292969 628.355469 1439.242188 628.355469 C 1439.242188 602.167969 1439.242188 577.226562 1439.242188 551.535156 C 1419.785156 551.535156 1400.832031 551.535156 1381.625 551.535156 C 1381.625 562.757812 1381.625 573.234375 1381.625 584.707031 C 1391.351562 584.707031 1400.082031 584.707031 1409.3125 584.707031 C 1409.3125 588.449219 1409.3125 591.191406 1409.3125 594.1875 C 1396.589844 594.1875 1384.617188 594.1875 1372.398438 594.1875 C 1372.398438 576.226562 1372.398438 559.019531 1372.398438 540.5625 C 1395.09375 540.5625 1417.292969 540.5625 1439.242188 540.5625 C 1439.242188 513.871094 1439.242188 488.929688 1439.242188 463.738281 C 1419.785156 463.738281 1400.832031 463.738281 1381.375 463.738281 C 1381.375 474.714844 1381.375 484.941406 1381.375 496.664062 C 1390.855469 496.664062 1400.082031 496.664062 1410.308594 496.664062 C 1409.5625 501.152344 1409.3125 504.144531 1409.0625 506.640625 C 1396.09375 506.640625 1384.367188 506.640625 1372.398438 506.640625 C 1372.398438 488.679688 1372.398438 471.472656 1372.398438 452.765625 C 1395.09375 452.765625 1417.042969 452.765625 1439.242188 452.765625 C 1439.242188 426.324219 1439.242188 401.382812 1439.242188 376.191406 C 1419.539062 376.191406 1400.582031 376.191406 1381.625 376.191406 C 1381.625 387.167969 1381.625 397.394531 1381.625 408.617188 C 1391.101562 408.617188 1399.832031 408.617188 1409.3125 408.617188 C 1409.3125 412.605469 1409.3125 415.601562 1409.3125 418.34375 C 1396.589844 418.34375 1384.867188 418.34375 1372.894531 418.34375 C 1372.894531 400.386719 1372.894531 382.925781 1372.894531 364.46875 C 1395.59375 364.46875 1417.292969 364.46875 1439.242188 364.46875 C 1439.242188 338.03125 1439.242188 312.839844 1439.242188 287.898438 C 1419.539062 287.898438 1400.582031 287.898438 1381.875 287.898438 C 1381.875 299.121094 1381.875 309.347656 1381.875 320.570312 C 1391.351562 320.570312 1400.332031 320.570312 1409.5625 320.570312 C 1409.5625 324.3125 1409.5625 327.054688 1409.5625 330.050781 C 1396.839844 330.050781 1384.867188 330.050781 1372.644531 330.050781 C 1372.644531 312.089844 1372.644531 295.128906 1372.644531 276.421875 C 1395.34375 276.421875 1417.542969 276.421875 1439.492188 276.421875 C 1439.492188 249.734375 1439.492188 224.542969 1439.492188 199.601562 C 1420.035156 199.601562 1401.082031 199.601562 1381.625 199.601562 C 1381.625 210.574219 1381.625 220.800781 1381.625 232.773438 C 1391.101562 232.773438 1400.082031 232.773438 1410.308594 232.773438 C 1409.808594 237.511719 1409.5625 240.257812 1409.0625 242.75 C 1396.09375 242.75 1384.367188 242.75 1372.644531 242.75 C 1372.644531 224.542969 1372.644531 207.085938 1372.644531 188.628906 C 1395.34375 188.628906 1417.042969 188.628906 1439.242188 188.628906 C 1439.242188 162.4375 1439.242188 137.496094 1439.242188 112.304688 C 1419.539062 112.304688 1400.832031 112.304688 1381.625 112.304688 C 1381.625 123.277344 1381.625 133.503906 1381.625 144.976562 C 1391.101562 144.976562 1399.832031 144.976562 1409.3125 144.976562 C 1409.3125 148.96875 1409.3125 151.960938 1409.3125 154.707031 C 1396.589844 154.707031 1384.867188 154.707031 1372.644531 154.707031 C 1372.644531 136.746094 1372.644531 119.289062 1372.644531 100.832031 C 1395.34375 100.832031 1417.042969 100.832031 1439.988281 100.832031 C 1439.742188 96.589844 1439.742188 93.097656 1439.492188 89.855469 C 1412.804688 89.855469 1387.363281 89.855469 1361.671875 89.855469 C 1361.671875 115.296875 1361.671875 139.988281 1361.671875 166.179688 C 1380.878906 166.679688 1399.832031 166.679688 1419.039062 166.679688 Z M 295.394531 364.46875 C 318.34375 364.46875 340.539062 364.46875 362.242188 364.46875 C 362.242188 338.03125 362.242188 313.089844 362.242188 288.144531 C 342.535156 288.144531 323.828125 288.144531 304.875 288.144531 C 304.875 299.121094 304.875 309.597656 304.875 320.820312 C 314.101562 320.820312 322.582031 320.820312 331.8125 320.820312 C 331.8125 324.8125 331.8125 327.554688 331.8125 330.296875 C 319.089844 330.296875 307.117188 330.296875 295.394531 330.296875 C 295.394531 312.089844 295.394531 295.128906 295.394531 276.671875 C 318.34375 276.671875 340.539062 276.671875 362.488281 276.671875 C 362.488281 250.234375 362.488281 225.292969 362.488281 199.851562 C 343.035156 199.851562 324.078125 199.851562 304.875 199.851562 C 304.875 210.824219 304.875 221.050781 304.875 232.773438 C 314.101562 232.773438 322.832031 232.773438 332.558594 232.773438 C 332.308594 237.265625 332.058594 240.007812 332.058594 243 C 319.339844 243 307.617188 243 295.394531 243 C 295.394531 225.042969 295.394531 207.582031 295.394531 188.628906 C 318.09375 188.628906 340.292969 188.628906 362.488281 188.628906 C 362.488281 162.1875 362.488281 137.246094 362.488281 112.554688 C 342.785156 112.554688 323.828125 112.554688 305.121094 112.554688 C 305.121094 123.777344 305.121094 134.003906 305.121094 145.476562 C 314.601562 145.476562 323.332031 145.476562 332.808594 145.476562 C 332.558594 149.46875 332.308594 151.960938 332.058594 154.957031 C 319.589844 154.957031 307.867188 154.957031 295.394531 154.957031 C 295.394531 136.996094 295.394531 119.539062 295.394531 100.832031 C 318.09375 100.832031 340.292969 100.832031 363.238281 100.832031 C 362.988281 96.339844 362.738281 93.347656 362.488281 90.355469 C 336.300781 90.355469 310.859375 90.355469 285.417969 90.355469 C 285.417969 116.292969 285.417969 141.238281 285.417969 166.429688 C 305.121094 166.429688 323.828125 166.429688 343.035156 166.429688 C 343.035156 155.453125 343.035156 145.226562 343.035156 133.753906 C 333.558594 133.753906 324.828125 133.753906 314.851562 133.753906 C 315.101562 129.761719 315.347656 126.769531 315.347656 123.777344 C 328.070312 123.777344 339.792969 123.777344 351.765625 123.777344 C 351.765625 141.984375 351.765625 159.195312 351.765625 177.652344 C 329.066406 177.652344 307.117188 177.652344 285.417969 177.652344 C 285.417969 204.089844 285.417969 229.28125 285.417969 254.472656 C 305.121094 254.472656 324.078125 254.472656 342.785156 254.472656 C 342.785156 243.25 342.785156 233.023438 342.785156 221.300781 C 333.308594 221.300781 324.578125 221.300781 315.347656 221.300781 C 315.347656 217.308594 315.347656 214.816406 315.347656 212.074219 C 328.070312 212.074219 340.042969 212.074219 352.015625 212.074219 C 352.015625 230.28125 352.015625 247.492188 352.015625 265.949219 C 329.316406 265.949219 307.117188 265.949219 285.417969 265.949219 C 285.417969 292.386719 285.417969 317.328125 285.417969 342.269531 C 305.121094 342.269531 324.078125 342.269531 342.785156 342.269531 C 342.785156 331.046875 342.785156 320.820312 342.785156 309.097656 C 333.058594 309.097656 324.078125 309.097656 314.101562 309.097656 C 314.851562 305.105469 315.101562 302.363281 315.597656 299.867188 C 328.070312 299.867188 339.792969 299.867188 351.515625 299.867188 C 351.515625 318.078125 351.515625 335.535156 351.515625 353.992188 C 328.816406 353.992188 307.117188 353.992188 285.167969 353.992188 C 285.167969 380.183594 285.167969 405.125 285.167969 430.066406 C 304.875 430.066406 323.828125 430.066406 342.535156 430.066406 C 342.535156 418.84375 342.535156 408.617188 342.535156 397.394531 C 333.058594 397.394531 324.078125 397.394531 314.601562 397.394531 C 314.851562 393.652344 314.851562 390.90625 315.101562 388.164062 C 327.820312 388.164062 339.792969 388.164062 351.765625 388.164062 C 351.765625 406.121094 351.765625 423.332031 351.765625 441.289062 C 329.066406 441.289062 307.367188 441.289062 285.167969 441.289062 C 285.167969 467.480469 285.167969 492.921875 285.167969 518.613281 C 304.625 518.613281 323.582031 518.613281 342.535156 518.613281 C 342.535156 507.386719 342.535156 496.910156 342.535156 485.1875 C 332.808594 485.1875 324.078125 485.1875 314.351562 485.1875 C 314.851562 481.199219 315.101562 478.703125 315.347656 475.710938 C 327.820312 475.710938 339.542969 475.710938 351.765625 475.710938 C 351.765625 493.667969 351.765625 511.128906 351.765625 529.835938 C 328.816406 529.835938 306.867188 529.835938 284.917969 529.835938 C 284.917969 556.023438 284.917969 580.71875 284.917969 605.910156 C 304.625 605.910156 323.582031 605.910156 342.535156 605.910156 C 342.535156 594.683594 342.535156 584.210938 342.535156 572.984375 C 333.058594 572.984375 324.078125 572.984375 315.101562 572.984375 C 315.101562 569.242188 315.101562 566.5 315.101562 563.757812 C 327.820312 563.757812 339.792969 563.757812 352.015625 563.757812 C 352.015625 581.964844 352.015625 598.925781 352.015625 617.882812 C 329.316406 617.882812 307.367188 617.882812 285.417969 617.882812 C 285.417969 644.320312 285.417969 669.261719 285.417969 694.203125 C 305.121094 694.203125 323.582031 694.203125 342.535156 694.203125 C 342.535156 682.980469 342.535156 672.503906 342.535156 661.03125 C 333.058594 661.03125 324.078125 661.03125 314.601562 661.03125 C 314.851562 657.289062 315.101562 654.546875 315.347656 652.050781 C 327.820312 652.050781 339.542969 652.050781 351.515625 652.050781 C 351.515625 670.011719 351.515625 687.46875 351.515625 705.675781 C 329.316406 705.675781 308.117188 705.675781 286.914062 705.675781 C 286.914062 709.667969 286.914062 712.910156 286.914062 716.152344 C 312.355469 716.152344 337.296875 716.152344 362.242188 716.152344 C 362.242188 690.214844 362.242188 665.269531 362.242188 640.578125 C 342.535156 640.578125 323.582031 640.578125 304.875 640.578125 C 304.875 651.800781 304.875 662.027344 304.875 673.253906 C 314.101562 673.253906 322.582031 673.253906 331.5625 673.253906 C 331.5625 676.992188 331.5625 679.988281 331.5625 682.730469 C 319.089844 682.730469 307.367188 682.730469 295.394531 682.730469 C 295.394531 664.773438 295.394531 647.3125 295.394531 629.105469 C 318.09375 629.105469 340.042969 629.105469 362.242188 629.105469 C 362.242188 602.914062 362.242188 577.476562 362.242188 552.285156 C 342.535156 552.285156 323.582031 552.285156 304.625 552.285156 C 304.625 563.257812 304.625 573.734375 304.625 585.207031 C 313.851562 585.207031 322.832031 585.207031 332.558594 585.207031 C 332.058594 589.445312 331.8125 592.441406 331.5625 594.933594 C 318.589844 594.933594 307.117188 594.933594 295.144531 594.933594 C 295.144531 576.976562 295.144531 559.765625 295.144531 541.308594 C 317.84375 541.308594 340.042969 541.308594 362.488281 541.308594 C 362.488281 514.871094 362.488281 489.929688 362.488281 464.238281 C 343.035156 464.238281 324.328125 464.238281 305.121094 464.238281 C 305.121094 475.460938 305.121094 485.9375 305.121094 497.410156 C 314.351562 497.410156 323.082031 497.410156 332.308594 497.410156 C 332.058594 501.402344 332.058594 504.394531 331.8125 507.386719 C 319.089844 507.386719 307.367188 507.386719 295.144531 507.386719 C 295.144531 489.179688 295.144531 471.96875 295.144531 453.011719 C 317.84375 453.011719 340.042969 453.011719 362.988281 453.011719 C 362.988281 439.046875 362.988281 426.574219 362.988281 414.105469 C 362.988281 401.632812 362.988281 389.160156 362.988281 376.941406 C 342.535156 376.941406 323.582031 376.941406 304.875 376.941406 C 304.875 387.914062 304.875 398.390625 304.875 409.363281 C 314.101562 409.363281 322.582031 409.363281 331.8125 409.363281 C 331.8125 413.105469 331.8125 416.097656 331.8125 419.09375 C 319.339844 419.09375 307.617188 419.09375 295.394531 419.09375 C 295.394531 400.636719 295.394531 383.425781 295.394531 364.46875 Z M 295.394531 364.46875 " fill-opacity="1" fill-rule="nonzero"/></g></svg>