<svg xmlns="http://www.w3.org/2000/svg" xmlns:xlink="http://www.w3.org/1999/xlink" width="500" zoomAndPan="magnify" viewBox="0 0 375 374.999991" height="500" preserveAspectRatio="xMidYMid meet" version="1.0"><defs><g/></defs><path stroke-linecap="butt" transform="matrix(2.058843, 0, 0, 2.058843, 20.449213, -88.384917)" fill="none" stroke-linejoin="miter" d="M 102.327294 176.015802 C 101.297058 177.296482 100.202314 178.905396 99.046856 180.84444 C 97.921754 182.749333 96.969308 184.40568 96.187619 185.811582 L 95.624119 186.562914 C 94.844327 187.968816 93.844448 189.609984 92.624482 191.484521 C 91.43677 193.3287 90.328744 194.890181 89.296611 196.172758 L 88.499743 196.922194 C 87.499864 198.202874 86.249541 198.889698 84.750671 198.984563 C 83.282157 199.047174 82.047013 198.50075 81.047134 197.343395 L 80.8593 197.343395 C 79.829064 196.187937 78.531309 194.782035 76.96793 193.125688 C 75.436806 191.437088 74.171304 189.953396 73.171425 188.672716 L 72.186724 187.547615 C 71.156488 186.265038 69.906165 184.796524 68.437652 183.140178 C 66.969139 181.453475 65.656204 180.030497 64.500746 178.875039 L 63.749414 177.749938 C 62.719178 176.59448 61.406244 175.218934 59.812508 173.625199 C 58.218773 172.031464 56.843228 170.655918 55.68777 169.50046 L 54.703069 168.51576 C 53.70319 167.360301 52.42251 165.952502 50.859131 164.296156 C 49.328007 162.639809 48.062505 161.171296 47.062626 159.890616 L 45.890092 158.532146 C 44.859856 157.374791 43.609533 155.936635 42.14102 154.219575 C 40.672507 152.500617 39.422183 151.062461 38.39005 149.907003 L 37.079013 148.546636 C 36.04688 147.265956 34.7662 145.8278 33.235075 144.234064 C 31.703951 142.640329 30.358763 141.20407 29.203305 139.921493 L 28.030771 138.563023 C 27.000535 137.405668 26.421857 135.969408 26.296635 134.250451 C 26.171413 132.531494 26.624869 131.030726 27.657002 129.750046 C 28.687238 128.469366 29.844593 126.968599 31.125273 125.249641 C 32.405953 123.500327 33.546233 121.984381 34.546112 120.703701 L 35.34298 119.766433 C 36.375113 118.483856 37.515393 116.952732 38.765716 115.171163 C 40.046396 113.359238 41.203752 111.812935 42.233988 110.530358 L 43.218688 109.407154 C 44.218568 108.124576 45.32849 106.563095 46.546559 104.718916 C 47.766526 102.84438 48.829016 101.203212 49.73403 99.79731 L 50.483465 98.436943 C 51.390376 97.031041 52.452866 95.437305 53.670936 93.655737 C 54.890902 91.843812 56.016003 90.312688 57.046239 89.062364 L 57.797572 88.077664 C 58.827808 86.796983 59.985163 85.265859 61.265843 83.484291 C 62.546523 81.672366 63.686803 80.124166 64.686682 78.843485 L 65.671383 77.530551 C 66.703516 76.249871 67.891228 74.749104 69.234519 73.032044 C 70.577811 71.280832 71.750344 69.764886 72.750224 68.484206 C 73.657135 67.203526 74.84295 66.562237 76.31336 66.562237 C 77.781873 66.562237 79.032197 67.140915 80.062433 68.296373 L 81.4228 69.844573 C 82.453036 71.000031 83.703359 72.405933 85.171872 74.06228 C 86.640385 75.718626 87.890709 77.187139 88.920945 78.467819 L 90.842914 80.765454 C 91.84469 82.046134 93.047581 83.56208 94.453483 85.313292 C 95.859385 87.030352 97.077454 88.531119 98.109587 89.811799 L 100.031556 92.297267 C 101.061792 93.577948 102.312116 95.061639 103.780629 96.75024 C 105.249142 98.406586 106.499465 99.79731 107.531599 100.922411 L 109.453567 103.265581 C 110.483803 104.390682 111.734127 105.796585 113.20264 107.485185 C 114.671153 109.141531 115.921476 110.610045 116.95361 111.890725 L 118.875579 114.18836 C 119.875458 115.46904 121.078348 116.952732 122.484251 118.641332 C 123.890153 120.297678 125.110119 121.766192 126.140355 123.046872 L 128.062324 124.921408 C 129.094457 126.203985 129.671238 127.718034 129.79646 129.469245 C 129.921682 131.188203 129.530837 132.749684 128.625823 134.155586 L 126.937223 136.828887 C 126.030312 138.234789 125.000076 139.87406 123.844618 141.750493 C 122.687262 143.594673 121.734816 145.218765 120.983483 146.624667 L 119.063412 150.280772 C 118.281722 151.686674 118.0161 153.265231 118.266544 155.016442 C 118.515091 156.733502 119.281602 158.109048 120.562282 159.141181 L 122.484251 160.640051 C 123.764931 161.672184 125.233444 162.952865 126.88979 164.483989 C 128.578391 166.015113 129.999471 167.29769 131.156827 168.327926 L 133.828231 171.046763 C 134.983689 172.046642 135.562366 173.359576 135.562366 174.983669 C 135.562366 176.577404 135.0463 177.952949 134.016064 179.110305 L 129.608627 183.515844 C 128.578391 184.671302 127.2351 185.312591 125.578753 185.437813 C 123.922407 185.563035 122.453894 185.109579 121.171316 184.077446 L 120.186616 183.140178 C 118.905935 182.109942 117.407065 180.889976 115.688108 179.484073 C 113.969151 178.078171 112.530994 176.860102 111.375536 175.827969 L 110.015169 174.843268 C 108.859711 173.843389 107.546777 173.407009 106.078264 173.530334 C 104.609751 173.655556 103.359427 174.422067 102.327294 175.827969 Z M 51.843832 138.37519 C 52.99929 139.530648 54.312224 140.953626 55.780738 142.640329 C 57.249251 144.296675 58.499574 145.765189 59.531707 147.047766 L 60.890177 148.546636 C 61.890056 149.827316 63.125201 151.343262 64.593714 153.094473 C 66.094481 154.813431 67.342907 156.24969 68.344684 157.407045 L 69.51532 158.532146 C 70.547454 159.812827 71.828134 161.266161 73.359258 162.890254 C 74.890382 164.483989 76.233674 165.844356 77.391029 166.969457 L 78.703963 168.51576 C 79.859421 169.671218 81.109745 170.219538 82.453036 170.156927 C 83.796327 170.094316 84.921428 169.36006 85.828339 167.95226 L 88.920945 163.358888 C 89.797499 162.078207 90.108657 160.609694 89.86011 158.953348 C 89.609666 157.264747 88.843155 155.906278 87.562475 154.874145 L 85.828339 153.375274 C 84.547659 152.343141 83.874116 151.032104 83.813403 149.438369 C 83.750792 147.844634 84.234604 146.406477 85.26484 145.125797 L 89.86011 140.109326 C 90.890346 138.828645 92.171026 138.157 93.704048 138.094389 C 95.235172 138.031778 96.578463 138.578201 97.733921 139.733659 C 98.891277 140.765793 100.171957 141.219248 101.577859 141.094026 C 102.983761 140.938447 104.141117 140.156758 105.046131 138.750856 L 107.343766 135.515953 C 108.218423 134.235273 108.561835 132.734505 108.375899 131.015548 C 108.188066 129.266234 107.579031 127.812899 106.546898 126.655544 L 105.985296 125.906109 C 104.827941 124.750651 103.484649 123.342851 101.953525 121.688402 C 100.422401 120.032056 99.139823 118.624256 98.109587 117.468798 L 97.360152 116.671931 C 96.328019 115.516472 95.047339 114.108673 93.516215 112.452327 C 91.98509 110.79598 90.702513 109.327467 89.672277 108.046787 L 88.920945 107.297352 C 87.890709 106.014775 86.67264 104.546261 85.26484 102.889915 C 83.858938 101.203212 82.640869 99.71952 81.608735 98.436943 L 80.8593 97.499675 C 79.829064 96.344217 78.641352 95.765539 77.296164 95.765539 C 75.952873 95.765539 74.76516 96.406828 73.734924 97.687508 L 73.547091 98.063174 C 72.514958 99.469076 71.327246 101.047633 69.983954 102.796947 C 68.640663 104.515904 67.452951 105.954061 66.422715 107.109519 L 65.671383 107.858954 C 64.641147 109.141531 63.453434 110.640401 62.110143 112.359359 C 60.764955 114.078316 59.639854 115.656873 58.73484 117.093132 L 57.797572 118.218233 C 56.89066 119.500811 55.797813 121.047113 54.515236 122.859039 C 53.234556 124.640607 52.094276 126.171731 51.094397 127.452411 L 50.297529 128.577513 C 49.265396 129.985312 48.844194 131.531615 49.032028 133.218318 C 49.250217 134.874664 49.87443 136.280566 50.906564 137.437922 Z M 51.843832 138.37519 " stroke="#005180" stroke-width="14.4" stroke-opacity="1" stroke-miterlimit="4"/><g fill="#38b6ff" fill-opacity="1"><g transform="translate(69.475401, 343.972019)"><g><path d="M 161.675781 -69.96875 C 159.570312 -67.332031 157.328125 -64.039062 154.957031 -60.085938 C 152.585938 -56.132812 150.609375 -52.707031 149.027344 -49.808594 L 147.839844 -48.226562 C 146.261719 -45.328125 144.21875 -41.96875 141.714844 -38.144531 C 139.210938 -34.324219 136.90625 -31.097656 134.796875 -28.460938 L 133.214844 -26.878906 C 131.105469 -24.246094 128.539062 -22.863281 125.507812 -22.730469 C 122.476562 -22.597656 119.90625 -23.71875 117.796875 -26.089844 L 117.402344 -26.089844 C 115.296875 -28.460938 112.660156 -31.359375 109.496094 -34.785156 C 106.335938 -38.210938 103.699219 -41.242188 101.589844 -43.878906 L 99.613281 -46.25 C 97.507812 -48.886719 94.9375 -51.914062 91.90625 -55.339844 C 88.875 -58.769531 86.175781 -61.667969 83.804688 -64.039062 L 82.222656 -66.410156 C 80.113281 -68.78125 77.414062 -71.613281 74.117188 -74.910156 C 70.824219 -78.203125 67.992188 -81.035156 65.621094 -83.40625 L 63.644531 -85.382812 C 61.535156 -87.757812 58.898438 -90.65625 55.738281 -94.082031 C 52.574219 -97.507812 49.9375 -100.539062 47.832031 -103.171875 L 45.460938 -105.941406 C 43.351562 -108.3125 40.78125 -111.277344 37.75 -114.835938 C 34.71875 -118.390625 32.152344 -121.355469 30.042969 -123.726562 L 27.277344 -126.496094 C 25.167969 -129.128906 22.53125 -132.09375 19.371094 -135.390625 C 16.207031 -138.683594 13.441406 -141.648438 11.066406 -144.285156 L 8.695312 -147.050781 C 6.589844 -149.421875 5.402344 -152.386719 5.140625 -155.945312 C 4.875 -159.503906 5.796875 -162.597656 7.90625 -165.234375 C 10.015625 -167.871094 12.386719 -170.964844 15.019531 -174.523438 C 17.65625 -178.082031 20.027344 -181.179688 22.136719 -183.8125 L 23.71875 -185.789062 C 25.824219 -188.425781 28.199219 -191.585938 30.832031 -195.277344 C 33.46875 -198.964844 35.839844 -202.128906 37.949219 -204.765625 L 39.925781 -207.136719 C 42.035156 -209.769531 44.339844 -213 46.84375 -216.820312 C 49.347656 -220.640625 51.519531 -224.003906 53.363281 -226.902344 L 54.945312 -229.667969 C 56.792969 -232.566406 58.964844 -235.859375 61.46875 -239.550781 C 63.972656 -243.238281 66.277344 -246.402344 68.386719 -249.039062 L 69.96875 -251.015625 C 72.074219 -253.648438 74.449219 -256.8125 77.082031 -260.5 C 79.71875 -264.191406 82.089844 -267.351562 84.199219 -269.988281 L 86.175781 -272.753906 C 88.28125 -275.390625 90.722656 -278.488281 93.488281 -282.046875 C 96.253906 -285.601562 98.691406 -288.699219 100.800781 -291.335938 C 102.644531 -293.96875 105.082031 -295.289062 108.113281 -295.289062 C 111.144531 -295.289062 113.714844 -294.101562 115.820312 -291.730469 L 118.589844 -288.566406 C 120.699219 -286.195312 123.265625 -283.296875 126.296875 -279.871094 C 129.328125 -276.445312 131.898438 -273.414062 134.007812 -270.777344 L 137.957031 -266.035156 C 140.066406 -263.398438 142.570312 -260.304688 145.46875 -256.746094 C 148.367188 -253.1875 150.871094 -250.089844 152.980469 -247.457031 L 156.933594 -242.316406 C 159.042969 -239.683594 161.609375 -236.652344 164.640625 -233.226562 C 167.671875 -229.800781 170.242188 -226.902344 172.351562 -224.527344 L 176.304688 -219.785156 C 178.410156 -217.414062 180.980469 -214.515625 184.011719 -211.089844 C 187.042969 -207.664062 189.609375 -204.632812 191.71875 -201.996094 L 195.671875 -197.253906 C 197.78125 -194.617188 200.285156 -191.585938 203.183594 -188.160156 C 206.082031 -184.734375 208.585938 -181.707031 210.695312 -179.070312 L 214.648438 -175.117188 C 216.753906 -172.480469 217.941406 -169.386719 218.203125 -165.828125 C 218.46875 -162.269531 217.675781 -159.042969 215.832031 -156.144531 L 212.273438 -150.609375 C 210.429688 -147.710938 208.320312 -144.347656 205.949219 -140.527344 C 203.578125 -136.707031 201.601562 -133.347656 200.019531 -130.449219 L 196.066406 -122.9375 C 194.488281 -120.039062 193.960938 -116.808594 194.488281 -113.253906 C 195.011719 -109.695312 196.59375 -106.863281 199.230469 -104.753906 L 203.183594 -101.589844 C 205.820312 -99.484375 208.847656 -96.847656 212.273438 -93.6875 C 215.699219 -90.523438 218.601562 -87.886719 220.972656 -85.78125 L 226.503906 -80.246094 C 228.878906 -78.136719 230.0625 -75.4375 230.0625 -72.140625 C 230.0625 -68.847656 229.007812 -66.015625 226.902344 -63.644531 L 217.808594 -54.550781 C 215.699219 -52.179688 212.933594 -50.863281 209.507812 -50.597656 C 206.082031 -50.335938 203.050781 -51.257812 200.414062 -53.363281 L 198.441406 -55.339844 C 195.804688 -57.449219 192.707031 -59.953125 189.148438 -62.851562 C 185.59375 -65.75 182.628906 -68.253906 180.253906 -70.363281 L 177.488281 -72.339844 C 175.117188 -74.449219 172.414062 -75.371094 169.386719 -75.105469 C 166.355469 -74.84375 163.785156 -73.261719 161.675781 -70.363281 Z M 57.714844 -147.445312 C 60.085938 -145.074219 62.785156 -142.175781 65.816406 -138.75 C 68.847656 -135.324219 71.417969 -132.292969 73.523438 -129.65625 L 76.292969 -126.496094 C 78.402344 -123.859375 80.96875 -120.761719 84 -117.207031 C 87.03125 -113.648438 89.601562 -110.683594 91.710938 -108.3125 L 94.082031 -105.941406 C 96.1875 -103.304688 98.824219 -100.339844 101.988281 -97.046875 C 105.148438 -93.75 107.917969 -90.917969 110.289062 -88.546875 L 113.054688 -85.382812 C 115.425781 -83.011719 117.996094 -81.890625 120.761719 -82.023438 C 123.53125 -82.15625 125.835938 -83.671875 127.679688 -86.570312 L 134.007812 -96.058594 C 135.851562 -98.691406 136.507812 -101.722656 135.984375 -105.148438 C 135.457031 -108.574219 133.875 -111.34375 131.238281 -113.449219 L 127.679688 -116.613281 C 125.046875 -118.722656 123.664062 -121.421875 123.53125 -124.714844 C 123.398438 -128.011719 124.386719 -130.976562 126.496094 -133.609375 L 135.984375 -143.886719 C 138.089844 -146.523438 140.726562 -147.90625 143.886719 -148.039062 C 147.050781 -148.171875 149.816406 -147.050781 152.191406 -144.679688 C 154.5625 -142.570312 157.195312 -141.648438 160.09375 -141.910156 C 162.996094 -142.175781 165.367188 -143.757812 167.210938 -146.65625 L 171.953125 -153.375 C 173.800781 -156.011719 174.523438 -159.105469 174.128906 -162.664062 C 173.734375 -166.222656 172.480469 -169.1875 170.375 -171.558594 L 169.1875 -173.140625 C 166.816406 -175.511719 164.046875 -178.410156 160.886719 -181.835938 C 157.722656 -185.261719 155.089844 -188.160156 152.980469 -190.535156 L 151.398438 -192.113281 C 149.289062 -194.488281 146.65625 -197.386719 143.492188 -200.8125 C 140.332031 -204.238281 137.695312 -207.269531 135.585938 -209.902344 L 134.007812 -211.484375 C 131.898438 -214.121094 129.394531 -217.148438 126.496094 -220.574219 C 123.597656 -224.003906 121.09375 -227.03125 118.984375 -229.667969 L 117.402344 -231.644531 C 115.296875 -234.015625 112.859375 -235.203125 110.089844 -235.203125 C 107.324219 -235.203125 104.886719 -233.882812 102.777344 -231.25 L 102.382812 -230.457031 C 100.273438 -227.558594 97.835938 -224.332031 95.070312 -220.773438 C 92.300781 -217.214844 89.863281 -214.25 87.757812 -211.878906 L 86.175781 -210.296875 C 84.066406 -207.664062 81.628906 -204.566406 78.863281 -201.007812 C 76.09375 -197.453125 73.789062 -194.222656 71.945312 -191.324219 L 69.96875 -188.953125 C 68.121094 -186.316406 65.882812 -183.15625 63.246094 -179.464844 C 60.613281 -175.777344 58.242188 -172.613281 56.132812 -169.976562 L 54.550781 -167.605469 C 52.441406 -164.707031 51.585938 -161.546875 51.980469 -158.117188 C 52.378906 -154.691406 53.628906 -151.792969 55.738281 -149.421875 Z M 57.714844 -147.445312 "/></g></g></g></svg>